SplineFontDB: 3.0
FontName: Exo-Light
FullName: Exo Light
FamilyName: Exo
Weight: Light
Copyright: Copyright (c) 2011 Natanael Gama (exo@ndiscovered.com), with Reserved Font Name "Exo"
Version: 1.00
ItalicAngle: 0
UnderlinePosition: -50
UnderlineWidth: 50
Ascent: 800
Descent: 200
sfntRevision: 0x00010000
LayerCount: 2
Layer: 0 1 "Back"  1
Layer: 1 1 "Fore"  0
XUID: [1021 985 1766467542 11607666]
FSType: 0
OS2Version: 4
OS2_WeightWidthSlopeOnly: 0
OS2_UseTypoMetrics: 1
CreationTime: 1317846202
ModificationTime: 1328305025
PfmFamily: 17
TTFWeight: 300
TTFWidth: 5
LineGap: 0
VLineGap: 0
Panose: 2 0 3 3 0 0 0 0 0 0
OS2TypoAscent: 202
OS2TypoAOffset: 1
OS2TypoDescent: -127
OS2TypoDOffset: 1
OS2TypoLinegap: 0
OS2WinAscent: 0
OS2WinAOffset: 1
OS2WinDescent: 54
OS2WinDOffset: 1
HheadAscent: 0
HheadAOffset: 1
HheadDescent: -54
HheadDOffset: 1
OS2SubXSize: 650
OS2SubYSize: 700
OS2SubXOff: 0
OS2SubYOff: 140
OS2SupXSize: 650
OS2SupYSize: 700
OS2SupXOff: 0
OS2SupYOff: 480
OS2StrikeYSize: 49
OS2StrikeYPos: 258
OS2Vendor: 'PfEd'
OS2CodePages: 20000093.00000000
OS2UnicodeRanges: a00000ef.4000204b.00000000.00000000
Lookup: 4 0 0 "'ordn' Ordinals lookup 0"  {"'ordn' Ordinals lookup 0 subtable"  } ['ordn' ('DFLT' <'dflt' > 'grek' <'dflt' > 'latn' <'dflt' > ) ]
Lookup: 1 0 0 "'smcp' Lowercase to Small Capitals lookup 1"  {"'smcp' Lowercase to Small Capitals lookup 1 subtable"  } ['smcp' ('DFLT' <'dflt' > 'grek' <'dflt' > 'latn' <'FRA ' 'dflt' > ) ]
Lookup: 1 0 0 "'c2sc' Capitals to Small Capitals in Latin lookup 2"  {"'c2sc' Capitals to Small Capitals in Latin lookup 2 subtable"  } ['c2sc' ('latn' <'dflt' > ) ]
Lookup: 4 0 0 "'dlig' Discretionary Ligatures lookup 3"  {"'dlig' Discretionary Ligatures lookup 3 subtable"  } ['dlig' ('DFLT' <'dflt' > 'grek' <'dflt' > 'latn' <'dflt' > ) ]
Lookup: 4 0 1 "'liga' Standard Ligatures lookup 4"  {"'liga' Standard Ligatures lookup 4 subtable"  } ['liga' ('DFLT' <'dflt' > 'grek' <'dflt' > 'latn' <'FRA ' 'dflt' > ) ]

StartChar: .notdef
Encoding: 0 -1 0
AltUni2: 000000.ffffffff.0
Width: 771
Flags: W
LayerCount: 2
Fore
SplineSet
651 506 m 1,0,-1
 399 266 l 1,1,-1
 651 25 l 1,2,-1
 651 506 l 1,0,-1
134 13 m 1,3,-1
 641 13 l 1,4,-1
 388 256 l 1,5,-1
 134 13 l 1,3,-1
121 22 m 1,6,-1
 377 266 l 1,7,-1
 121 507 l 1,8,-1
 121 22 l 1,6,-1
642 518 m 1,9,-1
 131 518 l 1,10,-1
 388 276 l 1,11,-1
 642 518 l 1,9,-1
107 0 m 1,12,-1
 107 531 l 1,13,-1
 665 531 l 1,14,-1
 665 0 l 1,15,-1
 107 0 l 1,12,-1
EndSplineSet
EndChar

StartChar: exclam
Encoding: 33 33 4
Width: 265
GlyphClass: 2
Flags: W
LayerCount: 2
Fore
SplineSet
92 19 m 2,0,-1
 92 78 l 2,1,2
 92 99 92 99 112 99 c 2,3,-1
 152 99 l 2,4,5
 171 99 171 99 171 78 c 2,6,-1
 171 19 l 2,7,8
 171 0 171 0 152 0 c 2,9,-1
 112 0 l 2,10,11
 103 0 103 0 97.5 5.5 c 128,-1,12
 92 11 92 11 92 19 c 2,0,-1
98 731 m 1,13,-1
 164 731 l 1,14,-1
 158 196 l 1,15,-1
 104 196 l 1,16,-1
 98 731 l 1,13,-1
EndSplineSet
Substitution2: "'smcp' Lowercase to Small Capitals lookup 1 subtable" exclam.smcp
EndChar

StartChar: quotedbl
Encoding: 34 34 5
Width: 339
GlyphClass: 2
Flags: W
LayerCount: 2
Fore
SplineSet
138 732 m 1,0,-1
 138 665 l 1,1,-1
 129 531 l 1,2,-1
 89 531 l 1,3,-1
 80 665 l 1,4,-1
 80 732 l 1,5,-1
 138 732 l 1,0,-1
261 732 m 1,6,-1
 261 665 l 1,7,-1
 252 531 l 1,8,-1
 212 531 l 1,9,-1
 203 665 l 1,10,-1
 203 732 l 1,11,-1
 261 732 l 1,6,-1
EndSplineSet
Substitution2: "'smcp' Lowercase to Small Capitals lookup 1 subtable" quotedbl.smcp
EndChar

StartChar: numbersign
Encoding: 35 35 6
Width: 675
GlyphClass: 2
Flags: W
LayerCount: 2
Fore
SplineSet
22 238 m 1,0,-1
 28 277 l 1,1,-1
 194 277 l 1,2,-1
 222 455 l 1,3,-1
 56 455 l 1,4,-1
 63 494 l 1,5,-1
 228 494 l 1,6,-1
 266 732 l 1,7,-1
 305 732 l 1,8,-1
 267 494 l 1,9,-1
 439 494 l 1,10,-1
 477 732 l 1,11,-1
 515 732 l 1,12,-1
 478 494 l 1,13,-1
 655 494 l 1,14,-1
 648 455 l 1,15,-1
 471 455 l 1,16,-1
 443 276 l 1,17,-1
 620 276 l 1,18,-1
 614 237 l 1,19,-1
 437 237 l 1,20,-1
 399 0 l 1,21,-1
 361 0 l 1,22,-1
 398 237 l 1,23,-1
 226 238 l 1,24,-1
 188 0 l 1,25,-1
 150 0 l 1,26,-1
 187 238 l 1,27,-1
 22 238 l 1,0,-1
233 277 m 1,28,-1
 404 276 l 1,29,-1
 432 455 l 1,30,-1
 261 455 l 1,31,-1
 233 277 l 1,28,-1
EndSplineSet
Substitution2: "'smcp' Lowercase to Small Capitals lookup 1 subtable" numbersign.smcp
EndChar

StartChar: dollar
Encoding: 36 36 7
Width: 578
GlyphClass: 2
Flags: W
LayerCount: 2
Fore
SplineSet
257 824 m 1,0,-1
 302 824 l 1,1,-1
 302 736 l 1,2,3
 342 733 342 733 488 716 c 1,4,-1
 488 673 l 1,5,-1
 258 682 l 2,6,7
 251 682 251 682 244 682 c 0,8,9
 186 682 186 682 152 658 c 128,-1,10
 118 634 118 634 118 560 c 2,11,-1
 118 494 l 2,12,13
 118 434 118 434 150 411 c 128,-1,14
 182 388 182 388 237 388 c 2,15,-1
 358 388 l 2,16,17
 456 388 456 388 489 336 c 0,18,19
 517 292 517 292 517 224 c 2,20,-1
 517 156 l 2,21,22
 517 -8 517 -8 323 -8 c 0,23,24
 313 -8 313 -8 302 -8 c 1,25,-1
 302 -89 l 1,26,-1
 257 -89 l 1,27,-1
 257 -4 l 1,28,29
 134 6 134 6 83 14 c 1,30,-1
 83 55 l 1,31,32
 265 49 265 49 317 49 c 0,33,34
 460 49 460 49 460 156 c 2,35,-1
 460 224 l 2,36,37
 460 294 460 294 419 317 c 0,38,39
 396 330 396 330 358 330 c 2,40,-1
 238 330 l 2,41,42
 118 330 118 330 81 404 c 1,43,44
 61 441 61 441 61 494 c 2,45,-1
 61 560 l 1,46,47
 62 665 62 665 118 703 c 0,48,49
 168 738 168 738 257 738 c 1,50,-1
 257 824 l 1,0,-1
EndSplineSet
Substitution2: "'smcp' Lowercase to Small Capitals lookup 1 subtable" dollar.smcp
EndChar

StartChar: percent
Encoding: 37 37 8
Width: 954
GlyphClass: 2
Flags: W
LayerCount: 2
Fore
SplineSet
47 474 m 2,0,-1
 47 607 l 2,1,2
 47 673 47 673 75 702.5 c 128,-1,3
 103 732 103 732 176 732 c 2,4,-1
 277 732 l 2,5,6
 348 732 348 732 376 702.5 c 128,-1,7
 404 673 404 673 404 607 c 2,8,-1
 404 474 l 2,9,10
 404 408 404 408 376 378.5 c 128,-1,11
 348 349 348 349 275 349 c 2,12,-1
 174 349 l 2,13,14
 103 349 103 349 75 378.5 c 128,-1,15
 47 408 47 408 47 474 c 2,0,-1
95 474 m 2,16,17
 95 429 95 429 112.5 413 c 128,-1,18
 130 397 130 397 174 397 c 2,19,-1
 275 397 l 2,20,21
 323 397 323 397 339.5 413 c 128,-1,22
 356 429 356 429 356 474 c 2,23,-1
 356 607 l 2,24,25
 356 664 356 664 325 677 c 0,26,27
 308 684 308 684 277 684 c 2,28,-1
 176 684 l 2,29,30
 115 684 115 684 102 654 c 0,31,32
 95 638 95 638 95 607 c 2,33,-1
 95 474 l 2,16,17
232 0 m 1,34,-1
 670 732 l 1,35,-1
 724 732 l 1,36,-1
 286 0 l 1,37,-1
 232 0 l 1,34,-1
551 127 m 2,38,-1
 551 260 l 2,39,40
 551 327 551 327 579 356 c 128,-1,41
 607 385 607 385 680 385 c 2,42,-1
 781 385 l 2,43,44
 852 385 852 385 880 355.5 c 128,-1,45
 908 326 908 326 908 260 c 2,46,-1
 908 127 l 2,47,48
 908 61 908 61 880 31.5 c 128,-1,49
 852 2 852 2 779 2 c 2,50,-1
 678 2 l 2,51,52
 607 2 607 2 579 31.5 c 128,-1,53
 551 61 551 61 551 127 c 2,38,-1
599 127 m 2,54,55
 599 82 599 82 616.5 66 c 128,-1,56
 634 50 634 50 678 50 c 2,57,-1
 779 50 l 2,58,59
 827 50 827 50 843.5 66 c 128,-1,60
 860 82 860 82 860 127 c 2,61,-1
 860 260 l 2,62,63
 860 317 860 317 828 330 c 0,64,65
 812 337 812 337 781 337 c 2,66,-1
 680 337 l 2,67,68
 631 337 631 337 615 321.5 c 128,-1,69
 599 306 599 306 599 260 c 2,70,-1
 599 127 l 2,54,55
EndSplineSet
Substitution2: "'smcp' Lowercase to Small Capitals lookup 1 subtable" percent.smcp
EndChar

StartChar: ampersand
Encoding: 38 38 9
Width: 642
GlyphClass: 2
Flags: W
LayerCount: 2
Fore
SplineSet
37 206 m 0,0,1
 37 297 37 297 118 366 c 2,2,-1
 204 439 l 1,3,-1
 141 524 l 1,4,5
 108 571 108 571 108 610 c 0,6,7
 108 660 108 660 140.5 691.5 c 128,-1,8
 173 723 173 723 211.5 728 c 128,-1,9
 250 733 250 733 313.5 733 c 128,-1,10
 377 733 377 733 477 715 c 1,11,-1
 477 677 l 1,12,-1
 274 677 l 2,13,14
 175 677 175 677 167 618 c 0,15,16
 167 615 167 615 167 612 c 0,17,18
 167 582 167 582 200 538 c 2,19,-1
 454 195 l 1,20,-1
 581 324 l 1,21,-1
 600 305 l 1,22,-1
 542 206 l 1,23,-1
 489 151 l 1,24,-1
 598 0 l 1,25,-1
 529 0 l 1,26,-1
 447 111 l 1,27,-1
 375 44 l 2,28,29
 322 -5 322 -5 249 -5 c 0,30,31
 211 -5 211 -5 165 13.5 c 128,-1,32
 119 32 119 32 78 87.5 c 128,-1,33
 37 143 37 143 37 206 c 0,0,1
252 51 m 0,34,35
 296 51 296 51 334 83 c 1,36,-1
 412 156 l 1,37,-1
 237 392 l 1,38,-1
 159 327 l 2,39,40
 93 272 93 272 93 208 c 0,41,42
 93 162 93 162 130.5 113.5 c 128,-1,43
 168 65 168 65 227 53 c 0,44,45
 240 51 240 51 252 51 c 0,34,35
EndSplineSet
AlternateSubs2: "'salt' Stylistic Alternatives in Latin lookup 16 subtable" ampersand.salt
Substitution2: "'smcp' Lowercase to Small Capitals lookup 1 subtable" ampersand.smcp
EndChar

StartChar: quotesingle
Encoding: 39 39 10
Width: 160
GlyphClass: 2
Flags: W
LayerCount: 2
Fore
SplineSet
109 732 m 1,0,-1
 109 665 l 1,1,-1
 101 531 l 1,2,-1
 61 531 l 1,3,-1
 51 665 l 1,4,-1
 51 732 l 1,5,-1
 109 732 l 1,0,-1
EndSplineSet
Substitution2: "'smcp' Lowercase to Small Capitals lookup 1 subtable" quotesingle.smcp
EndChar

StartChar: parenleft
Encoding: 40 40 11
Width: 328
GlyphClass: 2
Flags: W
LayerCount: 2
Fore
SplineSet
101 149 m 128,-1,1
 84 238 84 238 84 310 c 128,-1,2
 84 382 84 382 92.5 441.5 c 128,-1,3
 101 501 101 501 115 552 c 128,-1,4
 129 603 129 603 146 651 c 128,-1,5
 163 699 163 699 180 736 c 0,6,7
 216 813 216 813 234 845 c 1,8,-1
 243 860 l 1,9,-1
 305 860 l 1,10,11
 283 824 283 824 251.5 757.5 c 128,-1,12
 220 691 220 691 198 631 c 128,-1,13
 176 571 176 571 158.5 486.5 c 128,-1,14
 141 402 141 402 141 322 c 128,-1,15
 141 242 141 242 158 156 c 128,-1,16
 175 70 175 70 199 7 c 0,17,18
 249 -123 249 -123 289 -184 c 2,19,-1
 306 -210 l 1,20,-1
 243 -210 l 1,21,22
 221 -179 221 -179 190.5 -118.5 c 128,-1,23
 160 -58 160 -58 139 1 c 128,-1,0
 118 60 118 60 101 149 c 128,-1,1
EndSplineSet
Substitution2: "'case' Case-Sensitive Forms lookup 18 subtable" parenleft.alt
Substitution2: "'c2sc' Capitals to Small Capitals in Latin lookup 2 subtable" parenleft.smcp
Substitution2: "'smcp' Lowercase to Small Capitals lookup 1 subtable" parenleft.smcp
EndChar

StartChar: parenright
Encoding: 41 41 12
Width: 327
GlyphClass: 2
Flags: W
LayerCount: 2
Fore
SplineSet
169 154.5 m 128,-1,1
 187 242 187 242 187 322 c 128,-1,2
 187 402 187 402 170 485 c 128,-1,3
 153 568 153 568 129 632 c 0,4,5
 79 765 79 765 39 831 c 1,6,-1
 22 860 l 1,7,-1
 85 860 l 1,8,9
 107 824 107 824 137.5 758 c 128,-1,10
 168 692 168 692 189 632 c 128,-1,11
 210 572 210 572 227 487.5 c 128,-1,12
 244 403 244 403 244 320.5 c 128,-1,13
 244 238 244 238 227.5 150 c 128,-1,14
 211 62 211 62 188 0 c 0,15,16
 140 -128 140 -128 101 -185 c 1,17,-1
 85 -210 l 1,18,-1
 22 -210 l 1,19,20
 45 -177 45 -177 76.5 -114 c 128,-1,21
 108 -51 108 -51 129.5 8 c 128,-1,0
 151 67 151 67 169 154.5 c 128,-1,1
EndSplineSet
Substitution2: "'case' Case-Sensitive Forms lookup 18 subtable" parenright.alt
Substitution2: "'c2sc' Capitals to Small Capitals in Latin lookup 2 subtable" parenright.smcp
Substitution2: "'smcp' Lowercase to Small Capitals lookup 1 subtable" parenright.smcp
EndChar

StartChar: asterisk
Encoding: 42 42 13
Width: 449
GlyphClass: 2
Flags: W
LayerCount: 2
Fore
SplineSet
56 575 m 1,0,-1
 56 606 l 1,1,-1
 196 626 l 1,2,-1
 199 570 l 1,3,-1
 56 575 l 1,0,-1
128 412 m 1,4,-1
 155 547 l 1,5,-1
 212 534 l 1,6,-1
 157 403 l 1,7,-1
 128 412 l 1,4,-1
186 719 m 1,8,-1
 216 731 l 1,9,-1
 289 611 l 1,10,-1
 236 587 l 1,11,-1
 186 719 l 1,8,-1
219 482 m 1,12,-1
 250 531 l 1,13,-1
 362 443 l 1,14,-1
 346 418 l 1,15,-1
 219 482 l 1,12,-1
262 565 m 1,16,-1
 379 643 l 1,17,-1
 394 616 l 1,18,-1
 300 521 l 1,19,-1
 262 565 l 1,16,-1
EndSplineSet
Substitution2: "'smcp' Lowercase to Small Capitals lookup 1 subtable" asterisk.smcp
EndChar

StartChar: plus
Encoding: 43 43 14
Width: 517
GlyphClass: 2
Flags: W
LayerCount: 2
Fore
SplineSet
56 328 m 1,0,-1
 56 384 l 1,1,-1
 230 384 l 1,2,-1
 230 559 l 1,3,-1
 287 559 l 1,4,-1
 287 384 l 1,5,-1
 462 384 l 1,6,-1
 462 328 l 1,7,-1
 287 328 l 1,8,-1
 287 153 l 1,9,-1
 230 153 l 1,10,-1
 230 328 l 1,11,-1
 56 328 l 1,0,-1
EndSplineSet
EndChar

StartChar: comma
Encoding: 44 44 15
Width: 236
GlyphClass: 2
Flags: W
LayerCount: 2
Fore
SplineSet
131 -75 m 0,0,1
 120 -80 120 -80 111.5 -81.5 c 128,-1,2
 103 -83 103 -83 98.5 -83 c 128,-1,3
 94 -83 94 -83 84 -81 c 1,4,-1
 84 -58 l 1,5,6
 84 -58 84 -58 85 -58 c 0,7,8
 109 -58 109 -58 109 -32 c 2,9,-1
 109 0 l 1,10,-1
 100 0 l 2,11,12
 80 0 80 0 80 21 c 2,13,-1
 80 78 l 2,14,15
 80 100 80 100 100 100 c 2,16,-1
 137 100 l 2,17,18
 157 100 157 100 157 78 c 2,19,-1
 157 -20 l 2,20,21
 157 -63 157 -63 131 -75 c 0,0,1
EndSplineSet
EndChar

StartChar: hyphen
Encoding: 45 45 16
Width: 348
GlyphClass: 2
Flags: W
LayerCount: 2
Fore
SplineSet
22 262 m 1,0,-1
 22 318 l 1,1,-1
 326 318 l 1,2,-1
 326 262 l 1,3,-1
 22 262 l 1,0,-1
EndSplineSet
Substitution2: "'case' Case-Sensitive Forms lookup 18 subtable" hyphen.alt
Substitution2: "'c2sc' Capitals to Small Capitals in Latin lookup 2 subtable" hyphen.smcp
Substitution2: "'smcp' Lowercase to Small Capitals lookup 1 subtable" hyphen.smcp
EndChar

StartChar: period
Encoding: 46 46 17
Width: 238
GlyphClass: 2
Flags: W
LayerCount: 2
Fore
SplineSet
80 19 m 2,0,-1
 80 78 l 2,1,2
 80 99 80 99 99 99 c 2,3,-1
 138 99 l 2,4,5
 159 99 159 99 159 78 c 2,6,-1
 159 19 l 2,7,8
 159 0 159 0 138 0 c 2,9,-1
 99 0 l 2,10,11
 91 0 91 0 85.5 5.5 c 128,-1,12
 80 11 80 11 80 19 c 2,0,-1
EndSplineSet
EndChar

StartChar: slash
Encoding: 47 47 18
Width: 384
GlyphClass: 2
Flags: W
LayerCount: 2
Fore
SplineSet
22 -72 m 1,0,-1
 303 770 l 1,1,-1
 362 770 l 1,2,-1
 81 -72 l 1,3,-1
 22 -72 l 1,0,-1
EndSplineSet
Substitution2: "'numr' Numerators in Latin lookup 13 subtable" fraction
Substitution2: "'frac' Diagonal Fractions lookup 6 subtable" fraction
EndChar

StartChar: zero
Encoding: 48 48 19
Width: 649
GlyphClass: 2
Flags: W
LayerCount: 2
Fore
SplineSet
78 162 m 2,0,-1
 78 570 l 2,1,2
 78 648 78 648 126.5 690 c 128,-1,3
 175 732 175 732 250 732 c 2,4,-1
 404 732 l 2,5,6
 530 732 530 732 562 633 c 0,7,8
 571 604 571 604 571 570 c 2,9,-1
 571 162 l 2,10,11
 571 0 571 0 404 0 c 2,12,-1
 250 0 l 2,13,14
 178 0 178 0 130 36 c 0,15,16
 78 75 78 75 78 162 c 2,0,-1
135 162 m 2,17,18
 135 109 135 109 167 83 c 128,-1,19
 199 57 199 57 250 57 c 2,20,-1
 404 57 l 2,21,22
 514 57 514 57 514 162 c 2,23,-1
 514 570 l 2,24,25
 514 675 514 675 404 675 c 2,26,-1
 250 675 l 2,27,28
 194 675 194 675 164.5 646.5 c 128,-1,29
 135 618 135 618 135 570 c 2,30,-1
 135 162 l 2,17,18
EndSplineSet
Substitution2: "'dnom' Denominators in Latin lookup 19 subtable" zero.denominator
Substitution2: "'sups' Superscript lookup 17 subtable" zerosuperior
Substitution2: "'onum' Oldstyle Figures in Latin lookup 15 subtable" zero.oldstyle
Substitution2: "'tnum' Tabular Numbers in Latin lookup 14 subtable" zero.tnum
Substitution2: "'numr' Numerators in Latin lookup 13 subtable" zero.numerator
Substitution2: "'zero' Slashed Zero lookup 12 subtable" uni0338
Substitution2: "'sinf' Scientific Inferiors lookup 11 subtable" zeroinferior
Substitution2: "'frac' Diagonal Fractions lookup 5 subtable" zero.numerator
Substitution2: "'smcp' Lowercase to Small Capitals lookup 1 subtable" zero.smcp
EndChar

StartChar: one
Encoding: 49 49 20
Width: 359
GlyphClass: 2
Flags: W
LayerCount: 2
Fore
SplineSet
270 732 m 1,0,-1
 270 0 l 1,1,-1
 213 0 l 1,2,-1
 213 667 l 1,3,-1
 45 608 l 1,4,-1
 45 647 l 1,5,-1
 213 732 l 1,6,-1
 270 732 l 1,0,-1
EndSplineSet
Substitution2: "'dnom' Denominators in Latin lookup 19 subtable" one.denominator
Substitution2: "'sups' Superscript lookup 17 subtable" onesuperior
Substitution2: "'onum' Oldstyle Figures in Latin lookup 15 subtable" one.oldstyle
Substitution2: "'tnum' Tabular Numbers in Latin lookup 14 subtable" one.tnum
Substitution2: "'numr' Numerators in Latin lookup 13 subtable" one.numerator
Substitution2: "'sinf' Scientific Inferiors lookup 11 subtable" oneinferior
Substitution2: "'frac' Diagonal Fractions lookup 5 subtable" one.numerator
Substitution2: "'smcp' Lowercase to Small Capitals lookup 1 subtable" one.smcp
EndChar

StartChar: two
Encoding: 50 50 21
Width: 597
GlyphClass: 2
Flags: W
LayerCount: 2
Fore
SplineSet
45 684 m 1,0,-1
 45 725 l 1,1,2
 175 742 175 742 339 742 c 0,3,4
 489 742 489 742 530 611 c 0,5,6
 542 575 542 575 542 526.5 c 128,-1,7
 542 478 542 478 507.5 413.5 c 128,-1,8
 473 349 473 349 427 296 c 128,-1,9
 381 243 381 243 321 189 c 0,10,11
 235 110 235 110 159 57 c 1,12,-1
 542 57 l 1,13,-1
 542 0 l 1,14,-1
 52 0 l 1,15,-1
 52 53 l 1,16,17
 180 145 180 145 242 200 c 128,-1,18
 304 255 304 255 346.5 298.5 c 128,-1,19
 389 342 389 342 417 379 c 0,20,21
 484 468 484 468 484 534 c 0,22,23
 484 644 484 644 401 674 c 0,24,25
 374 684 374 684 337 684 c 2,26,-1
 45 684 l 1,0,-1
EndSplineSet
Substitution2: "'dnom' Denominators in Latin lookup 19 subtable" two.denominator
Substitution2: "'sups' Superscript lookup 17 subtable" twosuperior
Substitution2: "'onum' Oldstyle Figures in Latin lookup 15 subtable" two.oldstyle
Substitution2: "'tnum' Tabular Numbers in Latin lookup 14 subtable" two.tnum
Substitution2: "'numr' Numerators in Latin lookup 13 subtable" two.numerator
Substitution2: "'sinf' Scientific Inferiors lookup 11 subtable" twoinferior
Substitution2: "'frac' Diagonal Fractions lookup 5 subtable" two.numerator
Substitution2: "'smcp' Lowercase to Small Capitals lookup 1 subtable" two.smcp
EndChar

StartChar: three
Encoding: 51 51 22
Width: 596
GlyphClass: 2
Flags: W
LayerCount: 2
Fore
SplineSet
33 712 m 1,0,1
 86 728 86 728 146.5 731.5 c 128,-1,2
 207 735 207 735 255.5 735 c 128,-1,3
 304 735 304 735 341 734 c 0,4,5
 423 733 423 733 468 687 c 128,-1,6
 513 641 513 641 513 569 c 2,7,-1
 513 500 l 2,8,9
 513 461 513 461 499 430 c 0,10,11
 475 379 475 379 428 364 c 1,12,13
 513 322 513 322 513 220 c 2,14,-1
 513 161 l 2,15,16
 513 -7 513 -7 335 -7 c 0,17,18
 194 -7 194 -7 133.5 -1.5 c 128,-1,19
 73 4 73 4 39 15 c 1,20,-1
 41 51 l 1,21,-1
 330 51 l 2,22,23
 420 51 420 51 443 104 c 0,24,25
 454 127 454 127 454 161 c 2,26,-1
 454 220 l 2,27,28
 454 279 454 279 418.5 306 c 128,-1,29
 383 333 383 333 335 335 c 2,30,-1
 101 342 l 1,31,-1
 101 385 l 1,32,-1
 335 394 l 1,33,34
 390 395 390 395 423 422.5 c 128,-1,35
 456 450 456 450 456 500 c 2,36,-1
 456 569 l 2,37,38
 456 623 456 623 421.5 650 c 128,-1,39
 387 677 387 677 336 677 c 2,40,-1
 33 677 l 1,41,-1
 33 712 l 1,0,1
EndSplineSet
Substitution2: "'dnom' Denominators in Latin lookup 19 subtable" three.denominator
Substitution2: "'sups' Superscript lookup 17 subtable" threesuperior
Substitution2: "'onum' Oldstyle Figures in Latin lookup 15 subtable" three.oldstyle
Substitution2: "'tnum' Tabular Numbers in Latin lookup 14 subtable" three.tnum
Substitution2: "'numr' Numerators in Latin lookup 13 subtable" three.numerator
Substitution2: "'sinf' Scientific Inferiors lookup 11 subtable" threeinferior
Substitution2: "'frac' Diagonal Fractions lookup 5 subtable" three.numerator
Substitution2: "'smcp' Lowercase to Small Capitals lookup 1 subtable" three.smcp
EndChar

StartChar: four
Encoding: 52 52 23
Width: 593
GlyphClass: 2
Flags: W
LayerCount: 2
Fore
SplineSet
424 255 m 1,0,-1
 424 472 l 1,1,-1
 452 547 l 1,2,-1
 481 547 l 1,3,-1
 481 255 l 1,4,-1
 571 255 l 1,5,-1
 571 211 l 1,6,-1
 481 196 l 1,7,-1
 481 2 l 1,8,-1
 424 2 l 1,9,-1
 424 196 l 1,10,-1
 49 196 l 1,11,-1
 22 228 l 1,12,-1
 339 732 l 1,13,-1
 406 732 l 1,14,-1
 108 255 l 1,15,-1
 424 255 l 1,0,-1
EndSplineSet
Substitution2: "'dnom' Denominators in Latin lookup 19 subtable" four.denominator
Substitution2: "'sups' Superscript lookup 17 subtable" foursuperior
Substitution2: "'onum' Oldstyle Figures in Latin lookup 15 subtable" four.oldstyle
Substitution2: "'tnum' Tabular Numbers in Latin lookup 14 subtable" four.tnum
Substitution2: "'numr' Numerators in Latin lookup 13 subtable" four.numerator
Substitution2: "'sinf' Scientific Inferiors lookup 11 subtable" fourinferior
Substitution2: "'frac' Diagonal Fractions lookup 5 subtable" four.numerator
Substitution2: "'smcp' Lowercase to Small Capitals lookup 1 subtable" four.smcp
EndChar

StartChar: five
Encoding: 53 53 24
Width: 618
GlyphClass: 2
Flags: W
LayerCount: 2
Fore
SplineSet
302 443 m 2,0,-1
 389 441 l 1,1,2
 474 441 474 441 513.5 396.5 c 128,-1,3
 553 352 553 352 553 275 c 2,4,-1
 553 166 l 2,5,6
 553 58 553 58 473 17 c 0,7,8
 434 -4 434 -4 389 -4 c 0,9,10
 282 -4 282 -4 222.5 -1 c 128,-1,11
 163 2 163 2 85 15 c 1,12,-1
 85 56 l 1,13,-1
 389 56 l 2,14,15
 440 56 440 56 468 87.5 c 128,-1,16
 496 119 496 119 496 168 c 2,17,-1
 496 273 l 2,18,19
 496 330 496 330 471 356 c 0,20,21
 444 384 444 384 389 384 c 2,22,-1
 235 384 l 2,23,24
 198 384 198 384 168.5 358.5 c 128,-1,25
 139 333 139 333 139 292 c 1,26,-1
 87 292 l 1,27,-1
 109 732 l 1,28,-1
 531 732 l 1,29,-1
 531 675 l 1,30,-1
 162 675 l 1,31,-1
 148 399 l 1,32,33
 159 413 159 413 183.5 426 c 128,-1,34
 208 439 208 439 234 441 c 0,35,36
 267 443 267 443 302 443 c 2,0,-1
EndSplineSet
Substitution2: "'dnom' Denominators in Latin lookup 19 subtable" five.denominator
Substitution2: "'sups' Superscript lookup 17 subtable" fivesuperior
Substitution2: "'onum' Oldstyle Figures in Latin lookup 15 subtable" five.oldstyle
Substitution2: "'tnum' Tabular Numbers in Latin lookup 14 subtable" five.tnum
Substitution2: "'numr' Numerators in Latin lookup 13 subtable" five.numerator
Substitution2: "'sinf' Scientific Inferiors lookup 11 subtable" fiveinferior
Substitution2: "'frac' Diagonal Fractions lookup 5 subtable" five.numerator
Substitution2: "'smcp' Lowercase to Small Capitals lookup 1 subtable" five.smcp
EndChar

StartChar: six
Encoding: 54 54 25
Width: 627
GlyphClass: 2
Flags: W
LayerCount: 2
Fore
SplineSet
73 386 m 0,0,1
 73 479 73 479 87.5 549.5 c 128,-1,2
 102 620 102 620 127 660 c 0,3,4
 176 738 176 738 245 738 c 0,5,6
 418 738 418 738 537 722 c 1,7,-1
 537 681 l 1,8,-1
 254 681 l 2,9,10
 225 681 225 681 202 660.5 c 128,-1,11
 179 640 179 640 166 610 c 128,-1,12
 153 580 153 580 145 541 c 0,13,14
 131 476 131 476 130 403 c 1,15,16
 279 420 279 420 400 420 c 0,17,18
 497 420 497 420 531 375 c 1,19,20
 561 337 561 337 561 272 c 2,21,-1
 561 148 l 2,22,23
 561 -1 561 -1 400 -1 c 2,24,-1
 261 -1 l 1,25,26
 150 0 150 0 107 114 c 0,27,28
 73 206 73 206 73 386 c 0,0,1
130 363 m 1,29,30
 130 229 130 229 150 166 c 0,31,32
 173 93 173 93 209 70 c 0,33,34
 232 56 232 56 261 56 c 2,35,-1
 400 56 l 2,36,37
 449 56 449 56 477 75.5 c 128,-1,38
 505 95 505 95 505 151 c 2,39,-1
 505 272 l 2,40,41
 505 324 505 324 477 343.5 c 128,-1,42
 449 363 449 363 400 363 c 2,43,-1
 130 363 l 1,29,30
EndSplineSet
Substitution2: "'dnom' Denominators in Latin lookup 19 subtable" six.denominator
Substitution2: "'sups' Superscript lookup 17 subtable" sixsuperior
Substitution2: "'onum' Oldstyle Figures in Latin lookup 15 subtable" six.oldstyle
Substitution2: "'tnum' Tabular Numbers in Latin lookup 14 subtable" six.tnum
Substitution2: "'numr' Numerators in Latin lookup 13 subtable" six.numerator
Substitution2: "'sinf' Scientific Inferiors lookup 11 subtable" sixinferior
Substitution2: "'frac' Diagonal Fractions lookup 5 subtable" six.numerator
Substitution2: "'smcp' Lowercase to Small Capitals lookup 1 subtable" six.smcp
EndChar

StartChar: seven
Encoding: 55 55 26
Width: 542
GlyphClass: 2
Flags: W
LayerCount: 2
Fore
SplineSet
33 675 m 1,0,-1
 33 732 l 1,1,-1
 485 732 l 1,2,-1
 509 692 l 1,3,-1
 253 0 l 1,4,-1
 185 0 l 1,5,-1
 436 675 l 1,6,-1
 33 675 l 1,0,-1
EndSplineSet
Substitution2: "'dnom' Denominators in Latin lookup 19 subtable" seven.denominator
Substitution2: "'sups' Superscript lookup 17 subtable" sevensuperior
Substitution2: "'onum' Oldstyle Figures in Latin lookup 15 subtable" seven.oldstyle
Substitution2: "'tnum' Tabular Numbers in Latin lookup 14 subtable" seven.tnum
Substitution2: "'numr' Numerators in Latin lookup 13 subtable" seven.numerator
Substitution2: "'sinf' Scientific Inferiors lookup 11 subtable" seveninferior
Substitution2: "'frac' Diagonal Fractions lookup 5 subtable" seven.numerator
Substitution2: "'smcp' Lowercase to Small Capitals lookup 1 subtable" seven.smcp
EndChar

StartChar: eight
Encoding: 56 56 27
Width: 641
GlyphClass: 2
Flags: W
LayerCount: 2
Fore
SplineSet
84 499 m 2,0,-1
 84 564 l 2,1,2
 84 659 84 659 130 698 c 128,-1,3
 176 737 176 737 260 737 c 2,4,-1
 396 737 l 2,5,6
 504 737 504 737 539 663 c 0,7,8
 558 625 558 625 558 564 c 2,9,-1
 558 499 l 2,10,11
 558 468 558 468 546 441 c 0,12,13
 524 390 524 390 477 382 c 1,14,15
 518 373 518 373 538 334 c 128,-1,16
 558 295 558 295 558 252 c 2,17,-1
 558 154 l 2,18,19
 558 52 558 52 479 17 c 0,20,21
 442 0 442 0 395 0 c 2,22,-1
 260 0 l 2,23,24
 137 0 137 0 99 76 c 0,25,26
 87 101 87 101 85.5 121.5 c 128,-1,27
 84 142 84 142 84 154 c 2,28,-1
 84 252 l 2,29,30
 84 342 84 342 174 361 c 1,31,32
 125 375 125 375 104.5 413.5 c 128,-1,33
 84 452 84 452 84 499 c 2,0,-1
141 151 m 2,34,35
 141 57 141 57 260 57 c 2,36,-1
 395 57 l 2,37,38
 437 57 437 57 469 80.5 c 128,-1,39
 501 104 501 104 501 151 c 2,40,-1
 501 256 l 2,41,42
 501 326 501 326 433 342 c 0,43,44
 417 346 417 346 398 346 c 2,45,-1
 249 346 l 2,46,47
 207 346 207 346 174 324.5 c 128,-1,48
 141 303 141 303 141 256 c 2,49,-1
 141 151 l 2,34,35
141 494 m 2,50,51
 141 438 141 438 178 418 c 1,52,53
 210 402 210 402 249 402 c 2,54,-1
 398 402 l 2,55,56
 453 402 453 402 477 430 c 128,-1,57
 501 458 501 458 501 494 c 2,58,-1
 501 562 l 2,59,60
 501 625 501 625 475.5 652.5 c 128,-1,61
 450 680 450 680 396 680 c 2,62,-1
 260 680 l 2,63,64
 197 680 197 680 169 655 c 128,-1,65
 141 630 141 630 141 562 c 2,66,-1
 141 494 l 2,50,51
EndSplineSet
Substitution2: "'dnom' Denominators in Latin lookup 19 subtable" eight.denominator
Substitution2: "'sups' Superscript lookup 17 subtable" eightsuperior
Substitution2: "'onum' Oldstyle Figures in Latin lookup 15 subtable" eight.oldstyle
Substitution2: "'tnum' Tabular Numbers in Latin lookup 14 subtable" eight.tnum
Substitution2: "'numr' Numerators in Latin lookup 13 subtable" eight.numerator
Substitution2: "'sinf' Scientific Inferiors lookup 11 subtable" eightinferior
Substitution2: "'frac' Diagonal Fractions lookup 5 subtable" eight.numerator
Substitution2: "'smcp' Lowercase to Small Capitals lookup 1 subtable" eight.smcp
EndChar

StartChar: nine
Encoding: 57 57 28
Width: 627
GlyphClass: 2
Flags: W
LayerCount: 2
Fore
SplineSet
228 736 m 2,0,-1
 367 736 l 2,1,2
 478 736 478 736 520 621 c 1,3,4
 555 529 555 529 555 351 c 0,5,6
 555 86 555 86 446 16 c 0,7,8
 417 -3 417 -3 383 -3 c 0,9,10
 177 -3 177 -3 91 13 c 1,11,-1
 91 54 l 1,12,-1
 373 54 l 2,13,14
 410 54 410 54 436 83.5 c 128,-1,15
 462 113 462 113 474 160 c 0,16,17
 497 245 497 245 498 333 c 1,18,19
 348 315 348 315 228 315 c 0,20,21
 131 315 131 315 97 360 c 0,22,23
 67 399 67 399 67 463 c 2,24,-1
 67 587 l 2,25,26
 67 736 67 736 228 736 c 2,0,-1
123 463 m 2,27,28
 123 411 123 411 151 391.5 c 128,-1,29
 179 372 179 372 228 372 c 2,30,-1
 498 372 l 1,31,32
 498 506 498 506 478 570 c 0,33,34
 455 643 455 643 419 665 c 0,35,36
 396 679 396 679 367 679 c 2,37,-1
 228 679 l 2,38,39
 179 679 179 679 151 659.5 c 128,-1,40
 123 640 123 640 123 584 c 2,41,-1
 123 463 l 2,27,28
EndSplineSet
Substitution2: "'dnom' Denominators in Latin lookup 19 subtable" nine.denominator
Substitution2: "'sups' Superscript lookup 17 subtable" ninesuperior
Substitution2: "'onum' Oldstyle Figures in Latin lookup 15 subtable" nine.oldstyle
Substitution2: "'tnum' Tabular Numbers in Latin lookup 14 subtable" nine.tnum
Substitution2: "'numr' Numerators in Latin lookup 13 subtable" nine.numerator
Substitution2: "'sinf' Scientific Inferiors lookup 11 subtable" nineinferior
Substitution2: "'frac' Diagonal Fractions lookup 5 subtable" nine.numerator
Substitution2: "'smcp' Lowercase to Small Capitals lookup 1 subtable" nine.smcp
EndChar

StartChar: colon
Encoding: 58 58 29
Width: 239
GlyphClass: 2
Flags: W
LayerCount: 2
Fore
SplineSet
80 19 m 2,0,-1
 80 78 l 2,1,2
 80 99 80 99 99 99 c 2,3,-1
 138 99 l 2,4,5
 159 99 159 99 159 78 c 2,6,-1
 159 19 l 2,7,8
 159 0 159 0 138 0 c 2,9,-1
 99 0 l 2,10,11
 91 0 91 0 85.5 5.5 c 128,-1,12
 80 11 80 11 80 19 c 2,0,-1
80 452 m 2,13,-1
 80 511 l 2,14,15
 80 531 80 531 99 531 c 2,16,-1
 138 531 l 2,17,18
 159 531 159 531 159 511 c 2,19,-1
 159 452 l 2,20,21
 159 433 159 433 138 433 c 2,22,-1
 99 433 l 2,23,24
 91 433 91 433 85.5 438 c 128,-1,25
 80 443 80 443 80 452 c 2,13,-1
EndSplineSet
EndChar

StartChar: semicolon
Encoding: 59 59 30
Width: 239
GlyphClass: 2
Flags: W
LayerCount: 2
Fore
SplineSet
131 -75 m 0,0,1
 120 -80 120 -80 111.5 -81.5 c 128,-1,2
 103 -83 103 -83 98.5 -83 c 128,-1,3
 94 -83 94 -83 84 -81 c 1,4,-1
 84 -58 l 1,5,6
 84 -58 84 -58 85 -58 c 0,7,8
 109 -58 109 -58 109 -32 c 2,9,-1
 109 0 l 1,10,-1
 100 0 l 2,11,12
 92 0 92 0 86 6.5 c 128,-1,13
 80 13 80 13 80 21 c 2,14,-1
 80 78 l 2,15,16
 80 91 80 91 87 95.5 c 128,-1,17
 94 100 94 100 100 100 c 2,18,-1
 137 100 l 2,19,20
 157 100 157 100 157 78 c 2,21,-1
 157 -20 l 2,22,23
 157 -63 157 -63 131 -75 c 0,0,1
81 452 m 2,24,-1
 81 511 l 2,25,26
 81 532 81 532 101 532 c 2,27,-1
 140 532 l 2,28,29
 160 532 160 532 160 511 c 2,30,-1
 160 452 l 2,31,32
 160 433 160 433 140 433 c 2,33,-1
 101 433 l 2,34,35
 92 433 92 433 86.5 438.5 c 128,-1,36
 81 444 81 444 81 452 c 2,24,-1
EndSplineSet
EndChar

StartChar: less
Encoding: 60 60 31
Width: 476
GlyphClass: 2
Flags: W
LayerCount: 2
Fore
SplineSet
56 325 m 1,0,-1
 56 384 l 1,1,-1
 421 556 l 1,2,-1
 421 494 l 1,3,-1
 132 354 l 1,4,-1
 421 204 l 1,5,-1
 421 140 l 1,6,-1
 56 325 l 1,0,-1
EndSplineSet
EndChar

StartChar: equal
Encoding: 61 61 32
Width: 471
GlyphClass: 2
Flags: W
LayerCount: 2
Fore
SplineSet
22 212 m 1,0,-1
 22 269 l 1,1,-1
 449 269 l 1,2,-1
 449 212 l 1,3,-1
 22 212 l 1,0,-1
22 438 m 1,4,-1
 22 495 l 1,5,-1
 449 495 l 1,6,-1
 449 438 l 1,7,-1
 22 438 l 1,4,-1
EndSplineSet
EndChar

StartChar: greater
Encoding: 62 62 33
Width: 476
GlyphClass: 2
Flags: W
LayerCount: 2
Fore
SplineSet
56 140 m 1,0,-1
 56 204 l 1,1,-1
 345 354 l 1,2,-1
 56 494 l 1,3,-1
 56 556 l 1,4,-1
 421 384 l 1,5,-1
 421 325 l 1,6,-1
 56 140 l 1,0,-1
EndSplineSet
EndChar

StartChar: question
Encoding: 63 63 34
Width: 537
GlyphClass: 2
Flags: W
LayerCount: 2
Fore
SplineSet
261 740 m 0,0,1
 278 740 278 740 287 739.5 c 128,-1,2
 296 739 296 739 297 739 c 0,3,4
 493 739 493 739 493 554 c 2,5,-1
 493 453 l 2,6,7
 493 291 493 291 311 291 c 0,8,9
 280 291 280 291 242 296 c 1,10,-1
 242 195 l 1,11,-1
 184 195 l 1,12,-1
 184 343 l 1,13,-1
 313 343 l 1,14,15
 369 344 369 344 403 370.5 c 128,-1,16
 437 397 437 397 437 453 c 2,17,-1
 437 554 l 2,18,19
 437 623 437 623 402 652 c 128,-1,20
 367 681 367 681 287 681 c 2,21,-1
 22 681 l 1,22,-1
 22 722 l 1,23,24
 160 740 160 740 261 740 c 0,0,1
173 19 m 2,25,-1
 173 78 l 2,26,27
 173 99 173 99 193 99 c 2,28,-1
 234 99 l 2,29,30
 253 99 253 99 253 78 c 2,31,-1
 253 19 l 2,32,33
 253 0 253 0 234 0 c 2,34,-1
 193 0 l 2,35,36
 185 0 185 0 179 5.5 c 128,-1,37
 173 11 173 11 173 19 c 2,25,-1
EndSplineSet
Substitution2: "'smcp' Lowercase to Small Capitals lookup 1 subtable" question.smcp
EndChar

StartChar: at
Encoding: 64 64 35
Width: 851
GlyphClass: 2
Flags: W
LayerCount: 2
Fore
SplineSet
241 512 m 2,0,-1
 451 512 l 2,1,2
 510 512 510 512 553 484 c 0,3,4
 604 451 604 451 604 372 c 2,5,-1
 604 0 l 1,6,-1
 561 0 l 1,7,-1
 550 64 l 1,8,9
 550 64 550 64 538 56.5 c 128,-1,10
 526 49 526 49 506.5 38.5 c 128,-1,11
 487 28 487 28 463 17 c 0,12,13
 406 -9 406 -9 356 -9 c 0,14,15
 353 -9 353 -9 351 -9 c 0,16,17
 299 -9 299 -9 263 24 c 128,-1,18
 227 57 227 57 228 108 c 1,19,-1
 228 161 l 2,20,21
 228 222 228 222 261.5 258 c 128,-1,22
 295 294 295 294 357 294 c 2,23,-1
 548 294 l 1,24,25
 549 332 549 332 549 351 c 128,-1,26
 549 370 549 370 548 370 c 1,27,28
 548 417 548 417 523 436 c 128,-1,29
 498 455 498 455 448 455 c 2,30,-1
 241 455 l 2,31,32
 189 455 189 455 159.5 432 c 128,-1,33
 130 409 130 409 130 348 c 2,34,-1
 130 0 l 2,35,36
 130 -71 130 -71 167 -98 c 1,37,38
 199 -120 199 -120 241 -120 c 2,39,-1
 580 -120 l 2,40,41
 645 -120 645 -120 672.5 -91 c 128,-1,42
 700 -62 700 -62 700 0 c 2,43,-1
 700 512 l 2,44,45
 700 607 700 607 630 634 c 0,46,47
 608 643 608 643 580 643 c 2,48,-1
 181 643 l 1,49,-1
 181 679 l 1,50,51
 283 700 283 700 448 700 c 0,52,53
 458 700 458 700 469 700 c 2,54,-1
 580 700 l 1,55,56
 691 698 691 698 734 616 c 0,57,58
 757 573 757 573 757 512 c 2,59,-1
 757 0 l 2,60,61
 757 -178 757 -178 580 -178 c 2,62,-1
 241 -178 l 2,63,64
 163 -178 163 -178 118 -132 c 128,-1,65
 73 -86 73 -86 73 0 c 2,66,-1
 73 348 l 2,67,68
 73 396 73 396 83 419 c 128,-1,69
 93 442 93 442 105.5 458.5 c 128,-1,70
 118 475 118 475 135 486 c 0,71,72
 175 512 175 512 241 512 c 2,0,-1
361 48 m 0,73,74
 362 48 362 48 363 48 c 128,-1,75
 364 48 364 48 365 48 c 0,76,77
 429 48 429 48 548 105 c 1,78,-1
 548 255 l 1,79,-1
 362 241 l 2,80,81
 328 238 328 238 306 218 c 128,-1,82
 284 198 284 198 285 159 c 1,83,84
 284 158 284 158 284 136.5 c 128,-1,85
 284 115 284 115 285 114 c 1,86,87
 285 88 285 88 307 68 c 128,-1,88
 329 48 329 48 361 48 c 0,73,74
EndSplineSet
Substitution2: "'case' Case-Sensitive Forms lookup 18 subtable" at.alt
Substitution2: "'smcp' Lowercase to Small Capitals lookup 1 subtable" at.smcp
EndChar

StartChar: A
Encoding: 65 65 36
Width: 666
GlyphClass: 2
Flags: W
LayerCount: 2
Fore
SplineSet
50 0 m 1,0,-1
 321 732 l 1,1,-1
 382 732 l 1,2,-1
 640 0 l 1,3,-1
 573 0 l 1,4,-1
 501 221 l 1,5,-1
 195 221 l 1,6,-1
 119 0 l 1,7,-1
 50 0 l 1,0,-1
216 278 m 1,8,-1
 481 278 l 1,9,-1
 351 649 l 1,10,-1
 216 278 l 1,8,-1
EndSplineSet
Substitution2: "'c2sc' Capitals to Small Capitals in Latin lookup 2 subtable" a.smcp
EndChar

StartChar: B
Encoding: 66 66 37
Width: 597
GlyphClass: 2
Flags: W
LayerCount: 2
Fore
SplineSet
90 0 m 1,0,-1
 90 732 l 1,1,-1
 362 732 l 2,2,3
 506 732 506 732 542 612 c 0,4,5
 552 581 552 581 552 544 c 0,6,7
 552 482 552 482 524.5 438 c 128,-1,8
 497 394 497 394 447 381 c 1,9,10
 487 372 487 372 521 326.5 c 128,-1,11
 555 281 555 281 555 204 c 0,12,13
 555 121 555 121 517 64 c 0,14,15
 473 0 473 0 362 0 c 2,16,-1
 90 0 l 1,0,-1
147 57 m 1,17,-1
 362 57 l 2,18,19
 498 57 498 57 498 206 c 0,20,21
 498 269 498 269 461.5 312 c 128,-1,22
 425 355 425 355 363 355 c 0,23,24
 362 355 362 355 362 355 c 1,25,-1
 147 355 l 1,26,-1
 147 57 l 1,17,-1
495 548 m 0,27,28
 495 675 495 675 362 675 c 2,29,-1
 147 675 l 1,30,-1
 147 412 l 1,31,-1
 362 412 l 2,32,33
 424 412 424 412 459.5 446.5 c 128,-1,34
 495 481 495 481 495 548 c 0,27,28
EndSplineSet
Substitution2: "'c2sc' Capitals to Small Capitals in Latin lookup 2 subtable" b.smcp
EndChar

StartChar: C
Encoding: 67 67 38
Width: 575
GlyphClass: 2
Flags: W
LayerCount: 2
Fore
SplineSet
61 368 m 0,0,1
 61 598 61 598 133 677 c 0,2,3
 191 740 191 740 305 740 c 0,4,5
 344 740 344 740 415.5 732.5 c 128,-1,6
 487 725 487 725 539 715 c 1,7,-1
 539 672 l 1,8,9
 539 672 539 672 530.5 672.5 c 128,-1,10
 522 673 522 673 508 674 c 128,-1,11
 494 675 494 675 475.5 676 c 128,-1,12
 457 677 457 677 435 678.5 c 128,-1,13
 413 680 413 680 392 681 c 0,14,15
 343 683 343 683 305 683 c 0,16,17
 236 683 236 683 197 657 c 0,18,19
 118 605 118 605 118 366 c 0,20,21
 118 51 118 51 305 51 c 0,22,23
 404 51 404 51 525 59 c 2,24,-1
 539 60 l 1,25,-1
 539 16 l 1,26,27
 489 7 489 7 418 0.5 c 128,-1,28
 347 -6 347 -6 305 -6 c 0,29,30
 61 -6 61 -6 61 368 c 0,0,1
EndSplineSet
Substitution2: "'c2sc' Capitals to Small Capitals in Latin lookup 2 subtable" c.smcp
EndChar

StartChar: D
Encoding: 68 68 39
Width: 661
GlyphClass: 2
Flags: W
LayerCount: 2
Fore
SplineSet
90 0 m 1,0,-1
 90 732 l 1,1,-1
 355 732 l 2,2,3
 438 732 438 732 491 695 c 0,4,5
 545 657 545 657 569 604 c 0,6,7
 597 543 597 543 604 497 c 0,8,9
 615 423 615 423 615 367 c 128,-1,10
 615 311 615 311 606.5 261.5 c 128,-1,11
 598 212 598 212 578 164 c 128,-1,12
 558 116 558 116 529 80 c 128,-1,13
 500 44 500 44 455 22 c 128,-1,14
 410 0 410 0 355 0 c 2,15,-1
 90 0 l 1,0,-1
147 59 m 1,16,-1
 355 59 l 2,17,18
 407 59 407 59 447 85 c 128,-1,19
 487 111 487 111 511 155 c 0,20,21
 558 243 558 243 558 364 c 0,22,23
 558 675 558 675 355 675 c 2,24,-1
 147 675 l 1,25,-1
 147 59 l 1,16,-1
EndSplineSet
Substitution2: "'c2sc' Capitals to Small Capitals in Latin lookup 2 subtable" d.smcp
EndChar

StartChar: E
Encoding: 69 69 40
Width: 572
GlyphClass: 2
Flags: W
LayerCount: 2
Fore
SplineSet
90 123 m 2,0,-1
 90 602 l 2,1,2
 90 671 90 671 124.5 701.5 c 128,-1,3
 159 732 159 732 208 732 c 0,4,5
 212 732 212 732 216 732 c 2,6,-1
 525 718 l 1,7,-1
 525 675 l 1,8,-1
 216 675 l 2,9,10
 177 675 177 675 162 656.5 c 128,-1,11
 147 638 147 638 147 602 c 2,12,-1
 147 393 l 1,13,-1
 485 385 l 1,14,-1
 485 341 l 1,15,-1
 147 333 l 1,16,-1
 147 123 l 2,17,18
 147 76 147 76 173 63 c 0,19,20
 193 54 193 54 226 54 c 2,21,-1
 525 54 l 1,22,-1
 525 12 l 1,23,-1
 226 -3 l 2,24,25
 218 -3 218 -3 205 -3 c 128,-1,26
 192 -3 192 -3 173 0.5 c 128,-1,27
 154 4 154 4 133 16 c 0,28,29
 90 42 90 42 90 123 c 2,0,-1
EndSplineSet
Substitution2: "'c2sc' Capitals to Small Capitals in Latin lookup 2 subtable" e.smcp
EndChar

StartChar: F
Encoding: 70 70 41
Width: 572
GlyphClass: 2
Flags: W
LayerCount: 2
Fore
SplineSet
90 0 m 1,0,-1
 90 602 l 2,1,2
 90 671 90 671 124.5 701.5 c 128,-1,3
 159 732 159 732 208 732 c 0,4,5
 212 732 212 732 216 732 c 2,6,-1
 525 718 l 1,7,-1
 525 675 l 1,8,-1
 216 675 l 2,9,10
 177 675 177 675 162 656.5 c 128,-1,11
 147 638 147 638 147 602 c 2,12,-1
 147 393 l 1,13,-1
 485 385 l 1,14,-1
 485 341 l 1,15,-1
 147 333 l 1,16,-1
 147 0 l 1,17,-1
 90 0 l 1,0,-1
EndSplineSet
Substitution2: "'c2sc' Capitals to Small Capitals in Latin lookup 2 subtable" f.smcp
EndChar

StartChar: G
Encoding: 71 71 42
Width: 616
GlyphClass: 2
Flags: W
LayerCount: 2
Fore
SplineSet
63 283 m 128,-1,1
 61 321 61 321 61 378.5 c 128,-1,2
 61 436 61 436 65.5 486 c 128,-1,3
 70 536 70 536 84.5 586 c 128,-1,4
 99 636 99 636 123.5 668 c 128,-1,5
 148 700 148 700 190 720 c 128,-1,6
 232 740 232 740 280.5 740 c 128,-1,7
 329 740 329 740 409.5 731.5 c 128,-1,8
 490 723 490 723 542 713 c 1,9,-1
 542 668 l 1,10,11
 541 668 541 668 523.5 669.5 c 128,-1,12
 506 671 506 671 478.5 673 c 128,-1,13
 451 675 451 675 420 678 c 0,14,15
 344 683 344 683 295.5 683 c 128,-1,16
 247 683 247 683 217 669.5 c 128,-1,17
 187 656 187 656 167.5 632 c 128,-1,18
 148 608 148 608 138 568 c 1,19,20
 118 498 118 498 118 345.5 c 128,-1,21
 118 193 118 193 156 122 c 0,22,23
 195 51 195 51 296 51 c 0,24,25
 330 51 330 51 381 63 c 128,-1,26
 432 75 432 75 467 87 c 2,27,-1
 502 99 l 1,28,-1
 502 331 l 1,29,-1
 318 331 l 1,30,-1
 318 369 l 1,31,32
 392 389 392 389 491 389 c 0,33,34
 523 389 523 389 559 386 c 1,35,-1
 559 0 l 1,36,-1
 517 0 l 1,37,-1
 504 51 l 1,38,39
 451 22 451 22 393.5 8.5 c 128,-1,40
 336 -5 336 -5 294 -5 c 0,41,42
 293 -5 293 -5 271 -5 c 128,-1,43
 249 -5 249 -5 215.5 4.5 c 128,-1,44
 182 14 182 14 157.5 31 c 128,-1,45
 133 48 133 48 115.5 75.5 c 128,-1,46
 98 103 98 103 88 133 c 128,-1,47
 78 163 78 163 71.5 204 c 128,-1,0
 65 245 65 245 63 283 c 128,-1,1
EndSplineSet
Substitution2: "'c2sc' Capitals to Small Capitals in Latin lookup 2 subtable" g.smcp
EndChar

StartChar: H
Encoding: 72 72 43
Width: 646
GlyphClass: 2
Flags: W
LayerCount: 2
Fore
SplineSet
90 0 m 1,0,-1
 90 732 l 1,1,-1
 147 732 l 1,2,-1
 147 382 l 1,3,-1
 527 382 l 1,4,-1
 527 732 l 1,5,-1
 584 732 l 1,6,-1
 584 0 l 1,7,-1
 527 0 l 1,8,-1
 527 326 l 1,9,-1
 147 326 l 1,10,-1
 147 0 l 1,11,-1
 90 0 l 1,0,-1
EndSplineSet
Substitution2: "'c2sc' Capitals to Small Capitals in Latin lookup 2 subtable" h.smcp
EndChar

StartChar: I
Encoding: 73 73 44
Width: 209
GlyphClass: 2
Flags: W
LayerCount: 2
Fore
SplineSet
90 0 m 1,0,-1
 90 732 l 1,1,-1
 147 732 l 1,2,-1
 147 0 l 1,3,-1
 90 0 l 1,0,-1
EndSplineSet
Substitution2: "'c2sc' Capitals to Small Capitals in Latin lookup 2 subtable" i.smcp
EndChar

StartChar: J
Encoding: 74 74 45
Width: 355
GlyphClass: 2
Flags: W
LayerCount: 2
Fore
SplineSet
43 61 m 1,0,1
 105 45 105 45 120.5 45 c 128,-1,2
 136 45 136 45 144 45.5 c 128,-1,3
 152 46 152 46 168.5 48.5 c 128,-1,4
 185 51 185 51 196 60 c 128,-1,5
 207 69 207 69 216 82 c 0,6,7
 236 108 236 108 236 165 c 2,8,-1
 236 732 l 1,9,-1
 293 732 l 1,10,-1
 293 165 l 2,11,12
 293 53 293 53 241 18 c 0,13,14
 205 -6 205 -6 142.5 -6 c 128,-1,15
 80 -6 80 -6 39 21 c 1,16,-1
 43 61 l 1,0,1
EndSplineSet
Substitution2: "'c2sc' Capitals to Small Capitals in Latin lookup 2 subtable" j.smcp
EndChar

StartChar: K
Encoding: 75 75 46
Width: 591
GlyphClass: 2
Flags: W
LayerCount: 2
Fore
SplineSet
90 0 m 1,0,-1
 90 732 l 1,1,-1
 147 732 l 1,2,-1
 147 396 l 1,3,-1
 252 396 l 1,4,-1
 486 732 l 1,5,-1
 555 732 l 1,6,-1
 305 367 l 1,7,-1
 555 0 l 1,8,-1
 486 0 l 1,9,-1
 252 338 l 1,10,-1
 148 338 l 1,11,-1
 148 0 l 1,12,-1
 90 0 l 1,0,-1
EndSplineSet
Substitution2: "'c2sc' Capitals to Small Capitals in Latin lookup 2 subtable" k.smcp
EndChar

StartChar: L
Encoding: 76 76 47
Width: 557
GlyphClass: 2
Flags: W
LayerCount: 2
Fore
SplineSet
90 126 m 2,0,-1
 90 732 l 1,1,-1
 147 732 l 1,2,-1
 147 126 l 2,3,4
 147 79 147 79 173 66 c 0,5,6
 193 57 193 57 226 57 c 2,7,-1
 521 57 l 1,8,-1
 521 0 l 1,9,-1
 226 0 l 2,10,11
 126 0 126 0 101 59 c 0,12,13
 90 86 90 86 90 126 c 2,0,-1
EndSplineSet
Substitution2: "'c2sc' Capitals to Small Capitals in Latin lookup 2 subtable" l.smcp
EndChar

StartChar: M
Encoding: 77 77 48
Width: 799
GlyphClass: 2
Flags: W
LayerCount: 2
Fore
SplineSet
61 0 m 1,0,-1
 121 732 l 1,1,-1
 200 732 l 1,2,-1
 401 95 l 1,3,-1
 597 732 l 1,4,-1
 677 732 l 1,5,-1
 742 0 l 1,6,-1
 685 0 l 1,7,-1
 628 634 l 1,8,-1
 432 0 l 1,9,-1
 373 0 l 1,10,-1
 171 634 l 1,11,-1
 118 0 l 1,12,-1
 61 0 l 1,0,-1
EndSplineSet
AlternateSubs2: "'salt' Stylistic Alternatives in Latin lookup 16 subtable" M.salt
Substitution2: "'c2sc' Capitals to Small Capitals in Latin lookup 2 subtable" m.smcp
EndChar

StartChar: N
Encoding: 78 78 49
Width: 674
GlyphClass: 2
Flags: W
LayerCount: 2
Fore
SplineSet
90 0 m 1,0,-1
 90 732 l 1,1,-1
 148 732 l 1,2,-1
 555 107 l 1,3,-1
 555 732 l 1,4,-1
 612 732 l 1,5,-1
 612 0 l 1,6,-1
 555 0 l 1,7,-1
 147 625 l 1,8,-1
 147 0 l 1,9,-1
 90 0 l 1,0,-1
EndSplineSet
AlternateSubs2: "'salt' Stylistic Alternatives in Latin lookup 16 subtable" N.salt
Substitution2: "'c2sc' Capitals to Small Capitals in Latin lookup 2 subtable" n.smcp
EndChar

StartChar: O
Encoding: 79 79 50
Width: 675
GlyphClass: 2
Flags: W
LayerCount: 2
Fore
SplineSet
73 362 m 0,0,1
 73 433 73 433 80 489.5 c 128,-1,2
 87 546 87 546 98.5 585.5 c 128,-1,3
 110 625 110 625 129.5 653 c 128,-1,4
 149 681 149 681 170 697 c 128,-1,5
 191 713 191 713 222 722 c 0,6,7
 273 737 273 737 333 737 c 128,-1,8
 393 737 393 737 422 734 c 128,-1,9
 451 731 451 731 482 722 c 128,-1,10
 513 713 513 713 533.5 697 c 128,-1,11
 554 681 554 681 573.5 653 c 128,-1,12
 593 625 593 625 604 586 c 0,13,14
 629 499 629 499 629 390 c 128,-1,15
 629 281 629 281 621 222 c 128,-1,16
 613 163 613 163 596 123 c 128,-1,17
 579 83 579 83 558 57.5 c 128,-1,18
 537 32 537 32 503 19 c 0,19,20
 446 -4 446 -4 351 -4 c 0,21,22
 216 -4 216 -4 166 35 c 0,23,24
 115 74 115 74 96 143 c 0,25,26
 73 227 73 227 73 362 c 0,0,1
136 493 m 128,-1,28
 130 438 130 438 130 370 c 128,-1,29
 130 302 130 302 133.5 258.5 c 128,-1,30
 137 215 137 215 144.5 181.5 c 128,-1,31
 152 148 152 148 165.5 126 c 128,-1,32
 179 104 179 104 195 89 c 128,-1,33
 211 74 211 74 235 67 c 0,34,35
 279 53 279 53 341 53 c 128,-1,36
 403 53 403 53 436.5 59.5 c 128,-1,37
 470 66 470 66 498 84.5 c 128,-1,38
 526 103 526 103 541 138 c 0,39,40
 572 210 572 210 572 361 c 0,41,42
 572 518 572 518 546 580 c 0,43,44
 537 604 537 604 527.5 620.5 c 128,-1,45
 518 637 518 637 502 648 c 128,-1,46
 486 659 486 659 472.5 665.5 c 128,-1,47
 459 672 459 672 437 675 c 0,48,49
 403 680 403 680 356 680 c 128,-1,50
 309 680 309 680 286 678 c 128,-1,51
 263 676 263 676 233 667 c 128,-1,52
 203 658 203 658 188 637.5 c 128,-1,53
 173 617 173 617 157.5 582.5 c 128,-1,27
 142 548 142 548 136 493 c 128,-1,28
EndSplineSet
Substitution2: "'c2sc' Capitals to Small Capitals in Latin lookup 2 subtable" o.smcp
EndChar

StartChar: P
Encoding: 80 80 51
Width: 582
GlyphClass: 2
Flags: W
LayerCount: 2
Fore
SplineSet
67 0 m 1,0,-1
 67 732 l 1,1,-1
 360 732 l 2,2,3
 453 732 453 732 496 675 c 0,4,5
 535 624 535 624 535 524 c 0,6,7
 535 340 535 340 426 313 c 0,8,9
 398 306 398 306 364 306 c 128,-1,10
 330 306 330 306 229 313.5 c 128,-1,11
 128 321 128 321 124 323 c 1,12,-1
 124 0 l 1,13,-1
 67 0 l 1,0,-1
124 364 m 1,14,-1
 360 364 l 2,15,16
 410 364 410 364 441 390 c 1,17,18
 477 422 477 422 477 521 c 0,19,20
 477 632 477 632 421 661 c 0,21,22
 396 674 396 674 360 674 c 2,23,-1
 124 674 l 1,24,-1
 124 364 l 1,14,-1
EndSplineSet
Substitution2: "'c2sc' Capitals to Small Capitals in Latin lookup 2 subtable" p.smcp
EndChar

StartChar: Q
Encoding: 81 81 52
Width: 675
GlyphClass: 2
Flags: W
LayerCount: 2
Fore
SplineSet
73 366.5 m 128,-1,1
 73 434 73 434 79.5 490 c 128,-1,2
 86 546 86 546 97.5 585.5 c 128,-1,3
 109 625 109 625 128.5 653 c 128,-1,4
 148 681 148 681 168.5 697 c 128,-1,5
 189 713 189 713 220 722 c 0,6,7
 271 737 271 737 331 737 c 128,-1,8
 391 737 391 737 420 734 c 128,-1,9
 449 731 449 731 480.5 722 c 128,-1,10
 512 713 512 713 532.5 697 c 128,-1,11
 553 681 553 681 573 653 c 128,-1,12
 593 625 593 625 604 586 c 0,13,14
 629 499 629 499 629 390 c 128,-1,15
 629 281 629 281 621 222 c 128,-1,16
 613 163 613 163 596 123 c 128,-1,17
 579 83 579 83 557.5 57.5 c 128,-1,18
 536 32 536 32 502 19 c 0,19,20
 444 -4 444 -4 350 -4 c 0,21,22
 230 -4 230 -4 183 24 c 0,23,24
 133 53 133 53 113 99 c 0,25,26
 85 163 85 163 79 231 c 128,-1,0
 73 299 73 299 73 366.5 c 128,-1,1
136 493 m 128,-1,28
 130 438 130 438 130 365 c 128,-1,29
 130 292 130 292 134.5 244 c 128,-1,30
 139 196 139 196 150.5 161 c 128,-1,31
 162 126 162 126 177.5 105.5 c 128,-1,32
 193 85 193 85 220 73 c 0,33,34
 264 53 264 53 333 53 c 128,-1,35
 402 53 402 53 435.5 59.5 c 128,-1,36
 469 66 469 66 497 84.5 c 128,-1,37
 525 103 525 103 540 138 c 0,38,39
 572 210 572 210 572 361 c 0,40,41
 572 518 572 518 546 580 c 0,42,43
 536 604 536 604 527 620.5 c 128,-1,44
 518 637 518 637 501.5 648 c 128,-1,45
 485 659 485 659 471.5 665.5 c 128,-1,46
 458 672 458 672 436 675 c 0,47,48
 402 680 402 680 355 680 c 128,-1,49
 308 680 308 680 285 678 c 128,-1,50
 262 676 262 676 232 667 c 128,-1,51
 202 658 202 658 187 637.5 c 128,-1,52
 172 617 172 617 157 582.5 c 128,-1,27
 142 548 142 548 136 493 c 128,-1,28
470 -80 m 0,53,54
 501 -80 501 -80 537 -68 c 1,55,-1
 537 -129 l 1,56,57
 514 -139 514 -139 497.5 -139 c 128,-1,58
 481 -139 481 -139 462 -138 c 128,-1,59
 443 -137 443 -137 412 -127.5 c 128,-1,60
 381 -118 381 -118 357.5 -93 c 128,-1,61
 334 -68 334 -68 328 -33 c 1,62,-1
 367 -33 l 1,63,64
 409 -80 409 -80 470 -80 c 0,53,54
EndSplineSet
Substitution2: "'c2sc' Capitals to Small Capitals in Latin lookup 2 subtable" q.smcp
EndChar

StartChar: R
Encoding: 82 82 53
Width: 586
GlyphClass: 2
Flags: W
LayerCount: 2
Fore
SplineSet
67 0 m 1,0,-1
 67 732 l 1,1,-1
 367 732 l 2,2,3
 538 732 538 732 538 519 c 0,4,5
 538 465 538 465 527.5 425 c 128,-1,6
 517 385 517 385 502.5 364 c 128,-1,7
 488 343 488 343 467 330 c 0,8,9
 437 312 437 312 400 309 c 1,10,-1
 557 0 l 1,11,-1
 495 0 l 1,12,-1
 339 307 l 1,13,14
 325 307 325 307 225 313 c 128,-1,15
 125 319 125 319 124 320 c 1,16,-1
 124 0 l 1,17,-1
 67 0 l 1,0,-1
480 523 m 0,18,19
 480 568 480 568 470.5 601 c 128,-1,20
 461 634 461 634 444 649 c 1,21,22
 413 674 413 674 367 674 c 2,23,-1
 124 674 l 1,24,-1
 124 368 l 1,25,-1
 367 368 l 2,26,27
 435 368 435 368 457 404 c 0,28,29
 480 441 480 441 480 523 c 0,18,19
EndSplineSet
Substitution2: "'c2sc' Capitals to Small Capitals in Latin lookup 2 subtable" r.smcp
EndChar

StartChar: S
Encoding: 83 83 54
Width: 584
GlyphClass: 2
Flags: W
LayerCount: 2
Fore
SplineSet
264 738 m 0,0,1
 305 738 305 738 387 730 c 128,-1,2
 469 722 469 722 510 716 c 1,3,-1
 510 672 l 1,4,-1
 269 681 l 2,5,6
 262 681 262 681 255 681 c 0,7,8
 196 681 196 681 163 658 c 128,-1,9
 130 635 130 635 130 560 c 2,10,-1
 130 494 l 2,11,12
 130 446 130 446 141 429 c 128,-1,13
 152 412 152 412 161.5 405 c 128,-1,14
 171 398 171 398 185 394 c 0,15,16
 210 388 210 388 247 388 c 2,17,-1
 380 388 l 2,18,19
 475 388 475 388 509 336 c 0,20,21
 538 292 538 292 538 224 c 2,22,-1
 538 156 l 2,23,24
 538 42 538 42 451 9 c 0,25,26
 406 -8 406 -8 354 -8 c 128,-1,27
 302 -8 302 -8 215.5 -0.5 c 128,-1,28
 129 7 129 7 93 14 c 1,29,-1
 93 58 l 1,30,31
 190 49 190 49 274.5 49 c 128,-1,32
 359 49 359 49 375.5 50.5 c 128,-1,33
 392 52 392 52 413 58.5 c 128,-1,34
 434 65 434 65 448 76 c 0,35,36
 481 102 481 102 481 156 c 2,37,-1
 481 224 l 2,38,39
 481 277 481 277 458 303.5 c 128,-1,40
 435 330 435 330 380 330 c 2,41,-1
 249 330 l 2,42,43
 122 330 122 330 89 401 c 0,44,45
 73 437 73 437 73 494 c 2,46,-1
 73 560 l 2,47,48
 73 665 73 665 129 704 c 1,49,50
 180 738 180 738 264 738 c 0,0,1
EndSplineSet
Substitution2: "'c2sc' Capitals to Small Capitals in Latin lookup 2 subtable" s.smcp
EndChar

StartChar: T
Encoding: 84 84 55
Width: 586
GlyphClass: 2
Flags: W
LayerCount: 2
Fore
SplineSet
46 675 m 1,0,-1
 46 732 l 1,1,-1
 557 732 l 1,2,-1
 557 675 l 1,3,-1
 327 675 l 1,4,-1
 327 0 l 1,5,-1
 270 0 l 1,6,-1
 270 675 l 1,7,-1
 46 675 l 1,0,-1
EndSplineSet
Substitution2: "'c2sc' Capitals to Small Capitals in Latin lookup 2 subtable" t.smcp
EndChar

StartChar: U
Encoding: 85 85 56
Width: 679
GlyphClass: 2
Flags: W
LayerCount: 2
Fore
SplineSet
355 -5 m 2,0,-1
 344 -5 l 2,1,2
 226 -5 226 -5 189 20 c 0,3,4
 172 32 172 32 150 55.5 c 128,-1,5
 128 79 128 79 117 113 c 0,6,7
 90 198 90 198 90 320 c 2,8,-1
 90 732 l 1,9,-1
 147 732 l 1,10,-1
 147 320 l 2,11,12
 147 151 147 151 190 102 c 0,13,14
 206 83 206 83 219 73 c 0,15,16
 242 55 242 55 301 53 c 0,17,18
 317 52 317 52 350 52 c 2,19,-1
 355 52 l 2,20,21
 428 52 428 52 448.5 60 c 128,-1,22
 469 68 469 68 484.5 77.5 c 128,-1,23
 500 87 500 87 509.5 100.5 c 128,-1,24
 519 114 519 114 529.5 134.5 c 128,-1,25
 540 155 540 155 546 181 c 0,26,27
 559 241 559 241 559 320 c 2,28,-1
 559 732 l 1,29,-1
 616 732 l 1,30,-1
 616 320 l 2,31,32
 616 124 616 124 551 57 c 0,33,34
 528 33 528 33 509.5 21 c 128,-1,35
 491 9 491 9 459 3 c 0,36,37
 418 -5 418 -5 355 -5 c 2,0,-1
EndSplineSet
Substitution2: "'c2sc' Capitals to Small Capitals in Latin lookup 2 subtable" u.smcp
EndChar

StartChar: V
Encoding: 86 86 57
Width: 666
GlyphClass: 2
Flags: W
LayerCount: 2
Fore
SplineSet
50 732 m 1,0,-1
 113 732 l 1,1,-1
 340 86 l 1,2,-1
 578 732 l 1,3,-1
 640 732 l 1,4,-1
 370 0 l 1,5,-1
 309 0 l 1,6,-1
 50 732 l 1,0,-1
EndSplineSet
Substitution2: "'c2sc' Capitals to Small Capitals in Latin lookup 2 subtable" v.smcp
EndChar

StartChar: W
Encoding: 87 87 58
Width: 965
GlyphClass: 2
Flags: W
LayerCount: 2
Fore
SplineSet
50 732 m 1,0,-1
 113 732 l 1,1,-1
 339 93 l 1,2,-1
 542 732 l 1,3,-1
 606 732 l 1,4,-1
 526 475 l 1,5,-1
 670 89 l 1,6,-1
 877 732 l 1,7,-1
 939 732 l 1,8,-1
 702 0 l 1,9,-1
 641 0 l 1,10,-1
 496 381 l 1,11,-1
 370 0 l 1,12,-1
 309 0 l 1,13,-1
 50 732 l 1,0,-1
EndSplineSet
Substitution2: "'c2sc' Capitals to Small Capitals in Latin lookup 2 subtable" w.smcp
EndChar

StartChar: X
Encoding: 88 88 59
Width: 585
GlyphClass: 2
Flags: W
LayerCount: 2
Fore
SplineSet
50 732 m 1,0,-1
 114 732 l 1,1,-1
 303 412 l 1,2,-1
 495 732 l 1,3,-1
 559 732 l 1,4,-1
 341 368 l 1,5,-1
 554 0 l 1,6,-1
 490 0 l 1,7,-1
 303 318 l 1,8,-1
 117 0 l 1,9,-1
 53 0 l 1,10,-1
 266 368 l 1,11,-1
 50 732 l 1,0,-1
EndSplineSet
AlternateSubs2: "'salt' Stylistic Alternatives in Latin lookup 16 subtable" X.salt
Substitution2: "'c2sc' Capitals to Small Capitals in Latin lookup 2 subtable" x.smcp
EndChar

StartChar: Y
Encoding: 89 89 60
Width: 626
GlyphClass: 2
Flags: W
LayerCount: 2
Fore
SplineSet
344 0 m 1,0,-1
 287 0 l 1,1,-1
 287 260 l 1,2,-1
 50 732 l 1,3,-1
 113 732 l 1,4,-1
 315 329 l 1,5,-1
 538 732 l 1,6,-1
 600 732 l 1,7,-1
 344 260 l 1,8,-1
 344 0 l 1,0,-1
EndSplineSet
Substitution2: "'c2sc' Capitals to Small Capitals in Latin lookup 2 subtable" y.smcp
EndChar

StartChar: Z
Encoding: 90 90 61
Width: 558
GlyphClass: 2
Flags: W
LayerCount: 2
Fore
SplineSet
39 0 m 1,0,-1
 39 57 l 1,1,-1
 448 675 l 1,2,-1
 39 675 l 1,3,-1
 39 732 l 1,4,-1
 522 732 l 1,5,-1
 522 675 l 1,6,-1
 113 57 l 1,7,-1
 522 57 l 1,8,-1
 522 0 l 1,9,-1
 39 0 l 1,0,-1
EndSplineSet
Substitution2: "'c2sc' Capitals to Small Capitals in Latin lookup 2 subtable" z.smcp
EndChar

StartChar: bracketleft
Encoding: 91 91 62
Width: 323
GlyphClass: 2
Flags: W
LayerCount: 2
Fore
SplineSet
95 -38 m 2,0,-1
 95 670 l 2,1,2
 95 740 95 740 118 779 c 0,3,4
 155 842 155 842 231 842 c 2,5,-1
 301 842 l 1,6,-1
 301 785 l 1,7,-1
 231 785 l 2,8,9
 195 785 195 785 173.5 755 c 128,-1,10
 152 725 152 725 152 670 c 2,11,-1
 152 -38 l 2,12,13
 152 -90 152 -90 172.5 -121.5 c 128,-1,14
 193 -153 193 -153 231 -153 c 2,15,-1
 301 -153 l 1,16,-1
 301 -210 l 1,17,-1
 231 -210 l 2,18,19
 95 -210 95 -210 95 -38 c 2,0,-1
EndSplineSet
EndChar

StartChar: backslash
Encoding: 92 92 63
Width: 384
GlyphClass: 2
Flags: W
LayerCount: 2
Fore
SplineSet
22 770 m 1,0,-1
 81 770 l 1,1,-1
 362 -72 l 1,2,-1
 303 -72 l 1,3,-1
 22 770 l 1,0,-1
EndSplineSet
EndChar

StartChar: bracketright
Encoding: 93 93 64
Width: 323
GlyphClass: 2
Flags: W
LayerCount: 2
Fore
SplineSet
22 -153 m 1,0,-1
 92 -153 l 2,1,2
 131 -153 131 -153 151 -121.5 c 128,-1,3
 171 -90 171 -90 171 -38 c 2,4,-1
 171 670 l 2,5,6
 171 725 171 725 150 755 c 128,-1,7
 129 785 129 785 92 785 c 2,8,-1
 22 785 l 1,9,-1
 22 842 l 1,10,-1
 92 842 l 2,11,12
 127 842 127 842 153 829.5 c 128,-1,13
 179 817 179 817 192.5 799 c 128,-1,14
 206 781 206 781 215 756 c 0,15,16
 228 717 228 717 228 670 c 2,17,-1
 228 -38 l 2,18,19
 228 -161 228 -161 153 -198 c 0,20,21
 127 -210 127 -210 92 -210 c 2,22,-1
 22 -210 l 1,23,-1
 22 -153 l 1,0,-1
EndSplineSet
EndChar

StartChar: asciicircum
Encoding: 94 94 65
Width: 397
GlyphClass: 2
Flags: W
LayerCount: 2
Fore
SplineSet
56 531 m 1,0,-1
 178 661 l 1,1,-1
 232 661 l 1,2,-1
 341 531 l 1,3,-1
 288 531 l 1,4,-1
 204 617 l 1,5,-1
 110 531 l 1,6,-1
 56 531 l 1,0,-1
EndSplineSet
EndChar

StartChar: underscore
Encoding: 95 95 66
Width: 668
GlyphClass: 2
Flags: W
LayerCount: 2
Fore
SplineSet
22 -1 m 1,0,-1
 22 56 l 1,1,-1
 646 56 l 1,2,-1
 646 -1 l 1,3,-1
 22 -1 l 1,0,-1
EndSplineSet
EndChar

StartChar: grave
Encoding: 96 96 67
Width: 228
GlyphClass: 2
Flags: W
LayerCount: 2
Fore
SplineSet
22 664 m 1,0,-1
 94 664 l 1,1,-1
 206 531 l 1,2,-1
 155 531 l 1,3,-1
 22 664 l 1,0,-1
EndSplineSet
Substitution2: "'smcp' Lowercase to Small Capitals lookup 1 subtable" grave.smcp
EndChar

StartChar: a
Encoding: 97 97 68
Width: 519
GlyphClass: 2
Flags: W
LayerCount: 2
Fore
SplineSet
62 511 m 1,0,1
 174 541 174 541 313 541 c 0,2,3
 379 541 379 541 421.5 503 c 128,-1,4
 464 465 464 465 464 387 c 2,5,-1
 464 0 l 1,6,-1
 422 0 l 1,7,-1
 407 64 l 2,8,9
 406 64 406 64 391 57 c 128,-1,10
 376 50 376 50 351.5 39.5 c 128,-1,11
 327 29 327 29 298 19 c 0,12,13
 230 -6 230 -6 175.5 -6 c 128,-1,14
 121 -6 121 -6 83 29 c 128,-1,15
 45 64 45 64 45 126 c 2,16,-1
 45 187 l 2,17,18
 45 271 45 271 107 304 c 0,19,20
 137 320 137 320 178 320 c 0,21,22
 292 320 292 320 349.5 320 c 128,-1,23
 407 320 407 320 407 320 c 1,24,25
 407 353 407 353 407 370 c 128,-1,26
 407 387 407 387 407 387 c 2,27,28
 407 486 407 486 304 486 c 0,29,30
 221 486 221 486 62 470 c 1,31,-1
 62 511 l 1,0,1
102 131 m 2,32,33
 102 89 102 89 123 70 c 0,34,35
 145 51 145 51 173 51 c 128,-1,36
 201 51 201 51 232.5 56.5 c 128,-1,37
 264 62 264 62 293 70 c 0,38,39
 354 86 354 86 391 99 c 2,40,-1
 407 105 l 1,41,-1
 407 277 l 1,42,-1
 178 263 l 2,43,44
 102 258 102 258 102 183 c 2,45,-1
 102 131 l 2,32,33
EndSplineSet
AlternateSubs2: "'salt' Stylistic Alternatives in Latin lookup 16 subtable" a.salt
Substitution2: "'smcp' Lowercase to Small Capitals lookup 1 subtable" a.smcp
EndChar

StartChar: b
Encoding: 98 98 69
Width: 553
GlyphClass: 2
Flags: W
LayerCount: 2
Fore
SplineSet
67 0 m 1,0,-1
 67 785 l 1,1,-1
 122 785 l 1,2,-1
 122 499 l 1,3,4
 167 517 167 517 224.5 528 c 128,-1,5
 282 539 282 539 319 539 c 128,-1,6
 356 539 356 539 385 528.5 c 128,-1,7
 414 518 414 518 433 497.5 c 128,-1,8
 452 477 452 477 465 452 c 128,-1,9
 478 427 478 427 485 395 c 0,10,11
 498 335 498 335 498 279 c 128,-1,12
 498 223 498 223 493.5 187.5 c 128,-1,13
 489 152 489 152 476.5 115.5 c 128,-1,14
 464 79 464 79 444.5 53 c 128,-1,15
 425 27 425 27 393 10.5 c 128,-1,16
 361 -6 361 -6 317 -6 c 128,-1,17
 273 -6 273 -6 210 17 c 128,-1,18
 147 40 147 40 123 59 c 1,19,-1
 107 0 l 1,20,-1
 67 0 l 1,0,-1
319 51 m 0,21,22
 375 51 375 51 408 104.5 c 128,-1,23
 441 158 441 158 441 263 c 0,24,25
 441 392 441 392 406 439 c 0,26,27
 375 482 375 482 319 482 c 0,28,29
 228 482 228 482 123 455 c 1,30,-1
 123 100 l 1,31,32
 234 51 234 51 319 51 c 0,21,22
EndSplineSet
AlternateSubs2: "'salt' Stylistic Alternatives in Latin lookup 16 subtable" b.salt
Substitution2: "'smcp' Lowercase to Small Capitals lookup 1 subtable" b.smcp
EndChar

StartChar: c
Encoding: 99 99 70
Width: 500
GlyphClass: 2
Flags: W
LayerCount: 2
Fore
SplineSet
56 266 m 0,0,1
 56 334 56 334 65 383 c 128,-1,2
 74 432 74 432 88 461.5 c 128,-1,3
 102 491 102 491 125.5 508 c 128,-1,4
 149 525 149 525 173 530.5 c 128,-1,5
 197 536 197 536 231 536 c 0,6,7
 317 536 317 536 449 510 c 1,8,-1
 449 470 l 1,9,10
 320 479 320 479 267 479 c 128,-1,11
 214 479 214 479 202 477.5 c 128,-1,12
 190 476 190 476 177 470.5 c 128,-1,13
 164 465 164 465 155 456 c 128,-1,14
 146 447 146 447 137.5 431 c 128,-1,15
 129 415 129 415 124 392 c 0,16,17
 113 342 113 342 113 260.5 c 128,-1,18
 113 179 113 179 127 132 c 128,-1,19
 141 85 141 85 165.5 68.5 c 128,-1,20
 190 52 190 52 231 52 c 0,21,22
 313 52 313 52 420 63 c 1,23,-1
 456 66 l 1,24,-1
 456 24 l 1,25,26
 359 -3 359 -3 231 -5 c 1,27,28
 126 -5 126 -5 89 70 c 0,29,30
 56 135 56 135 56 266 c 0,0,1
EndSplineSet
Substitution2: "'smcp' Lowercase to Small Capitals lookup 1 subtable" c.smcp
EndChar

StartChar: d
Encoding: 100 100 71
Width: 553
GlyphClass: 2
Flags: W
LayerCount: 2
Fore
SplineSet
60.5 187.5 m 128,-1,1
 56 223 56 223 56 265.5 c 128,-1,2
 56 308 56 308 60 344.5 c 128,-1,3
 64 381 64 381 75.5 418.5 c 128,-1,4
 87 456 87 456 106 481 c 0,5,6
 149 539 149 539 234 539 c 0,7,8
 271 539 271 539 328.5 528 c 128,-1,9
 386 517 386 517 431 499 c 1,10,-1
 431 785 l 1,11,-1
 486 785 l 1,12,-1
 486 0 l 1,13,-1
 447 0 l 1,14,-1
 430 59 l 1,15,16
 407 40 407 40 343.5 17 c 128,-1,17
 280 -6 280 -6 236 -6 c 128,-1,18
 192 -6 192 -6 160 10.5 c 128,-1,19
 128 27 128 27 108.5 53 c 128,-1,20
 89 79 89 79 77 115.5 c 128,-1,0
 65 152 65 152 60.5 187.5 c 128,-1,1
145.5 103.5 m 128,-1,22
 178 51 178 51 234 51 c 0,23,24
 319 51 319 51 430 100 c 1,25,-1
 430 455 l 1,26,27
 325 482 325 482 234 482 c 0,28,29
 162 482 162 482 135 417 c 0,30,31
 113 365 113 365 113 260.5 c 128,-1,21
 113 156 113 156 145.5 103.5 c 128,-1,22
EndSplineSet
AlternateSubs2: "'salt' Stylistic Alternatives in Latin lookup 16 subtable" d.salt
Substitution2: "'smcp' Lowercase to Small Capitals lookup 1 subtable" d.smcp
EndChar

StartChar: e
Encoding: 101 101 72
Width: 525
GlyphClass: 2
Flags: W
LayerCount: 2
Fore
SplineSet
71.5 105.5 m 128,-1,1
 56 163 56 163 56 245 c 128,-1,2
 56 327 56 327 61 369.5 c 128,-1,3
 66 412 66 412 78.5 442 c 128,-1,4
 91 472 91 472 107 490 c 128,-1,5
 123 508 123 508 150 518 c 0,6,7
 195 535 195 535 278 535 c 0,8,9
 375 535 375 535 410 516 c 0,10,11
 448 496 448 496 462 461 c 1,12,13
 481 417 481 417 481 362.5 c 128,-1,14
 481 308 481 308 466 283 c 0,15,16
 436 234 436 234 344 234 c 2,17,-1
 113 234 l 1,18,19
 113 94 113 94 164 66 c 1,20,21
 187 52 187 52 231 52 c 0,22,23
 379 52 379 52 471 65 c 1,24,-1
 471 23 l 1,25,26
 372 -5 372 -5 236 -5 c 0,27,28
 163 -5 163 -5 125 21.5 c 128,-1,0
 87 48 87 48 71.5 105.5 c 128,-1,1
113 290 m 1,29,-1
 344 290 l 2,30,31
 383 290 383 290 403.5 302.5 c 128,-1,32
 424 315 424 315 424 354 c 128,-1,33
 424 393 424 393 417.5 418.5 c 128,-1,34
 411 444 411 444 392 457.5 c 128,-1,35
 373 471 373 471 349 474.5 c 128,-1,36
 325 478 325 478 284.5 478 c 128,-1,37
 244 478 244 478 223.5 476.5 c 128,-1,38
 203 475 203 475 182 468.5 c 128,-1,39
 161 462 161 462 150 450 c 128,-1,40
 139 438 139 438 129 417 c 0,41,42
 113 381 113 381 113 290 c 1,29,-1
EndSplineSet
Substitution2: "'smcp' Lowercase to Small Capitals lookup 1 subtable" e.smcp
EndChar

StartChar: f
Encoding: 102 102 73
Width: 394
GlyphClass: 2
Flags: W
LayerCount: 2
Fore
SplineSet
22 474 m 1,0,-1
 22 516 l 1,1,-1
 116 531 l 1,2,-1
 116 630 l 2,3,4
 116 712 116 712 141 747 c 0,5,6
 153 763 153 763 175 774.5 c 128,-1,7
 197 786 197 786 229 786 c 0,8,9
 307 786 307 786 372 766 c 1,10,-1
 372 730 l 1,11,-1
 243 730 l 2,12,13
 242 730 242 730 230.5 730 c 128,-1,14
 219 730 219 730 204.5 723.5 c 128,-1,15
 190 717 190 717 183 702 c 0,16,17
 173 677 173 677 173 630 c 2,18,-1
 173 531 l 1,19,-1
 331 531 l 1,20,-1
 331 474 l 1,21,-1
 173 474 l 1,22,-1
 173 0 l 1,23,-1
 116 0 l 1,24,-1
 116 474 l 1,25,-1
 22 474 l 1,0,-1
EndSplineSet
AlternateSubs2: "'salt' Stylistic Alternatives in Latin lookup 16 subtable" f.salt
Substitution2: "'smcp' Lowercase to Small Capitals lookup 1 subtable" f.smcp
EndChar

StartChar: g
Encoding: 103 103 74
Width: 560
GlyphClass: 2
Flags: W
LayerCount: 2
Fore
SplineSet
53 117 m 0,0,1
 53 144 53 144 71 167 c 128,-1,2
 89 190 89 190 121 195 c 1,3,4
 53 231 53 231 53 344 c 0,5,6
 53 533 53 533 226 533 c 2,7,-1
 538 533 l 1,8,-1
 538 491 l 1,9,-1
 447 476 l 2,10,11
 447 475 447 475 453 467.5 c 128,-1,12
 459 460 459 460 461 456.5 c 128,-1,13
 463 453 463 453 468.5 444 c 128,-1,14
 474 435 474 435 476.5 426.5 c 128,-1,15
 479 418 479 418 482 405 c 0,16,17
 488 383 488 383 488 353 c 128,-1,18
 488 323 488 323 484.5 301.5 c 128,-1,19
 481 280 481 280 470.5 253 c 128,-1,20
 460 226 460 226 443 205.5 c 128,-1,21
 426 185 426 185 395 171 c 128,-1,22
 364 157 364 157 323 157 c 2,23,-1
 167 157 l 2,24,25
 139 157 139 157 124.5 145.5 c 128,-1,26
 110 134 110 134 110 115.5 c 128,-1,27
 110 97 110 97 126.5 86.5 c 128,-1,28
 143 76 143 76 164 76 c 2,29,-1
 375 76 l 2,30,31
 439 76 439 76 474 39.5 c 128,-1,32
 509 3 509 3 509 -60 c 2,33,-1
 509 -119 l 2,34,35
 509 -183 509 -183 483 -217 c 0,36,37
 457 -252 457 -252 424 -261 c 128,-1,38
 391 -270 391 -270 359 -270 c 2,39,-1
 209 -270 l 2,40,41
 110 -270 110 -270 71 -201 c 1,42,43
 50 -166 50 -166 50 -116 c 2,44,-1
 50 -28 l 1,45,-1
 81 51 l 1,46,47
 53 72 53 72 53 117 c 0,0,1
165 20 m 2,48,49
 131 20 131 20 108 35 c 1,50,-1
 108 -116 l 2,51,52
 108 -177 108 -177 145 -197 c 0,53,54
 175 -213 175 -213 209 -213 c 2,55,-1
 359 -213 l 2,56,57
 452 -213 452 -213 452 -119 c 2,58,-1
 452 -63 l 2,59,60
 452 -22 452 -22 433.5 -1 c 128,-1,61
 415 20 415 20 366 20 c 2,62,-1
 165 20 l 2,48,49
135 440 m 128,-1,64
 110 404 110 404 110 345.5 c 128,-1,65
 110 287 110 287 136.5 250.5 c 128,-1,66
 163 214 163 214 219 214 c 2,67,-1
 318 214 l 2,68,69
 405 214 405 214 426 300 c 0,70,71
 431 319 431 319 431 340 c 0,72,73
 431 476 431 476 332 476 c 2,74,-1
 223 476 l 2,75,63
 160 476 160 476 135 440 c 128,-1,64
EndSplineSet
AlternateSubs2: "'salt' Stylistic Alternatives in Latin lookup 16 subtable" g.salt
Substitution2: "'smcp' Lowercase to Small Capitals lookup 1 subtable" g.smcp
EndChar

StartChar: h
Encoding: 104 104 75
Width: 546
GlyphClass: 2
Flags: W
LayerCount: 2
Fore
SplineSet
124 784 m 1,0,-1
 124 469 l 1,1,2
 162 492 162 492 187 504 c 0,3,4
 256 540 256 540 317 540 c 128,-1,5
 378 540 378 540 416 516 c 0,6,7
 491 468 491 468 491 370 c 2,8,-1
 491 0 l 1,9,-1
 434 0 l 1,10,-1
 434 370 l 2,11,12
 434 423 434 423 405 453 c 128,-1,13
 376 483 376 483 331.5 483 c 128,-1,14
 287 483 287 483 253 475.5 c 128,-1,15
 219 468 219 468 194 457.5 c 128,-1,16
 169 447 169 447 124 425 c 1,17,-1
 124 0 l 1,18,-1
 67 0 l 1,19,-1
 67 784 l 1,20,-1
 124 784 l 1,0,-1
EndSplineSet
Substitution2: "'smcp' Lowercase to Small Capitals lookup 1 subtable" h.smcp
EndChar

StartChar: i
Encoding: 105 105 76
Width: 187
GlyphClass: 2
Flags: W
LayerCount: 2
Fore
SplineSet
56 619 m 2,0,-1
 56 675 l 2,1,2
 56 696 56 696 76 696 c 2,3,-1
 113 696 l 2,4,5
 132 696 132 696 132 675 c 2,6,-1
 132 619 l 2,7,8
 132 599 132 599 113 599 c 2,9,-1
 76 599 l 2,10,11
 64 599 64 599 60 606 c 128,-1,12
 56 613 56 613 56 619 c 2,0,-1
64 0 m 1,13,-1
 64 531 l 1,14,-1
 121 531 l 1,15,-1
 121 0 l 1,16,-1
 64 0 l 1,13,-1
EndSplineSet
Substitution2: "'smcp' Lowercase to Small Capitals lookup 1 subtable" i.smcp
EndChar

StartChar: j
Encoding: 106 106 77
Width: 210
GlyphClass: 2
Flags: W
LayerCount: 2
Fore
SplineSet
67 619 m 2,0,-1
 67 675 l 2,1,2
 67 696 67 696 87 696 c 2,3,-1
 124 696 l 2,4,5
 143 696 143 696 143 675 c 2,6,-1
 143 619 l 2,7,8
 143 599 143 599 124 599 c 2,9,-1
 87 599 l 2,10,11
 75 599 75 599 71 606 c 128,-1,12
 67 613 67 613 67 619 c 2,0,-1
76 -270 m 1,13,-1
 76 531 l 1,14,-1
 133 531 l 1,15,-1
 133 -4 l 1,16,17
 134 -18 134 -18 134 -32 c 0,18,19
 134 -185 134 -185 113 -270 c 1,20,-1
 76 -270 l 1,13,-1
EndSplineSet
Substitution2: "'smcp' Lowercase to Small Capitals lookup 1 subtable" j.smcp
EndChar

StartChar: k
Encoding: 107 107 78
Width: 499
GlyphClass: 2
Flags: W
LayerCount: 2
Fore
SplineSet
67 0 m 1,0,-1
 67 782 l 1,1,-1
 124 782 l 1,2,-1
 124 334 l 1,3,-1
 171 334 l 1,4,-1
 396 531 l 1,5,-1
 477 531 l 1,6,-1
 225 305 l 1,7,-1
 477 0 l 1,8,-1
 404 0 l 1,9,-1
 171 276 l 1,10,-1
 124 276 l 1,11,-1
 124 0 l 1,12,-1
 67 0 l 1,0,-1
EndSplineSet
Substitution2: "'smcp' Lowercase to Small Capitals lookup 1 subtable" k.smcp
EndChar

StartChar: l
Encoding: 108 108 79
Width: 299
GlyphClass: 2
Flags: W
LayerCount: 2
Fore
SplineSet
67 189 m 2,0,-1
 67 783 l 1,1,-1
 124 783 l 1,2,-1
 124 189 l 2,3,4
 124 110 124 110 147 84 c 0,5,6
 165 63 165 63 193 57 c 0,7,8
 270 39 270 39 277 39 c 1,9,-1
 277 0 l 1,10,-1
 196 0 l 2,11,12
 67 0 67 0 67 189 c 2,0,-1
EndSplineSet
Substitution2: "'smcp' Lowercase to Small Capitals lookup 1 subtable" l.smcp
EndChar

StartChar: m
Encoding: 109 109 80
Width: 909
GlyphClass: 2
Flags: W
LayerCount: 2
Fore
SplineSet
247 526.5 m 128,-1,1
 285 538 285 538 328.5 538 c 128,-1,2
 372 538 372 538 411 516.5 c 128,-1,3
 450 495 450 495 468 459 c 1,4,5
 510 493 510 493 569.5 515.5 c 128,-1,6
 629 538 629 538 695 538 c 128,-1,7
 761 538 761 538 807 489.5 c 128,-1,8
 853 441 853 441 853 367 c 2,9,-1
 853 0 l 1,10,-1
 796 0 l 1,11,-1
 796 367 l 2,12,13
 796 417 796 417 766.5 449 c 128,-1,14
 737 481 737 481 693 481 c 128,-1,15
 649 481 649 481 614 474 c 0,16,17
 550 462 550 462 482 420 c 1,18,19
 487 407 487 407 487 369 c 2,20,-1
 487 0 l 1,21,-1
 430 0 l 1,22,-1
 430 367 l 2,23,24
 430 417 430 417 400 449 c 128,-1,25
 370 481 370 481 326.5 481 c 128,-1,26
 283 481 283 481 250 473.5 c 128,-1,27
 217 466 217 466 193 456 c 128,-1,28
 169 446 169 446 124 423 c 1,29,-1
 124 0 l 1,30,-1
 67 0 l 1,31,-1
 67 531 l 1,32,-1
 106 531 l 1,33,-1
 124 468 l 1,34,35
 163 491 163 491 186 503 c 128,-1,0
 209 515 209 515 247 526.5 c 128,-1,1
EndSplineSet
AlternateSubs2: "'salt' Stylistic Alternatives in Latin lookup 16 subtable" m.salt
Substitution2: "'smcp' Lowercase to Small Capitals lookup 1 subtable" m.smcp
EndChar

StartChar: n
Encoding: 110 110 81
Width: 546
GlyphClass: 2
Flags: W
LayerCount: 2
Fore
SplineSet
250.5 528.5 m 128,-1,1
 289 540 289 540 333.5 540 c 128,-1,2
 378 540 378 540 416 516 c 0,3,4
 491 468 491 468 491 370 c 2,5,-1
 491 0 l 1,6,-1
 434 0 l 1,7,-1
 434 370 l 2,8,9
 434 422 434 422 404.5 452.5 c 128,-1,10
 375 483 375 483 331 483 c 128,-1,11
 287 483 287 483 253 475.5 c 128,-1,12
 219 468 219 468 194 457.5 c 128,-1,13
 169 447 169 447 124 425 c 1,14,-1
 124 0 l 1,15,-1
 67 0 l 1,16,-1
 67 531 l 1,17,-1
 106 531 l 1,18,-1
 124 469 l 1,19,20
 162 492 162 492 187 504.5 c 128,-1,0
 212 517 212 517 250.5 528.5 c 128,-1,1
EndSplineSet
AlternateSubs2: "'salt' Stylistic Alternatives in Latin lookup 16 subtable" n.salt
Substitution2: "'smcp' Lowercase to Small Capitals lookup 1 subtable" n.smcp
EndChar

StartChar: o
Encoding: 111 111 82
Width: 569
GlyphClass: 2
Flags: W
LayerCount: 2
Fore
SplineSet
66.5 136 m 128,-1,1
 56 184 56 184 56 275.5 c 128,-1,2
 56 367 56 367 78.5 427 c 128,-1,3
 101 487 101 487 149.5 511.5 c 128,-1,4
 198 536 198 536 285 536 c 0,5,6
 415 536 415 536 464.5 474.5 c 128,-1,7
 514 413 514 413 514 261.5 c 128,-1,8
 514 110 514 110 464.5 52.5 c 128,-1,9
 415 -5 415 -5 285 -5 c 0,10,11
 217 -5 217 -5 173.5 9 c 128,-1,12
 130 23 130 23 103.5 55.5 c 128,-1,0
 77 88 77 88 66.5 136 c 128,-1,1
117.5 345.5 m 128,-1,14
 113 309 113 309 113 266 c 128,-1,15
 113 223 113 223 115.5 195 c 128,-1,16
 118 167 118 167 124 146 c 128,-1,17
 130 125 130 125 137.5 110 c 128,-1,18
 145 95 145 95 157 84.5 c 128,-1,19
 169 74 169 74 181 67.5 c 128,-1,20
 193 61 193 61 211 58 c 0,21,22
 241 52 241 52 278.5 52 c 128,-1,23
 316 52 316 52 337.5 54.5 c 128,-1,24
 359 57 359 57 380 64.5 c 128,-1,25
 401 72 401 72 414 86 c 128,-1,26
 427 100 427 100 437 123 c 0,27,28
 457 165 457 165 457 236.5 c 128,-1,29
 457 308 457 308 452.5 343.5 c 128,-1,30
 448 379 448 379 438 403.5 c 128,-1,31
 428 428 428 428 415.5 443 c 128,-1,32
 403 458 403 458 381.5 466 c 128,-1,33
 360 474 360 474 338.5 476.5 c 128,-1,34
 317 479 317 479 284.5 479 c 128,-1,35
 252 479 252 479 231.5 477 c 128,-1,36
 211 475 211 475 189.5 467.5 c 128,-1,37
 168 460 168 460 155.5 445.5 c 128,-1,38
 143 431 143 431 132.5 406.5 c 128,-1,13
 122 382 122 382 117.5 345.5 c 128,-1,14
EndSplineSet
Substitution2: "'smcp' Lowercase to Small Capitals lookup 1 subtable" o.smcp
EndChar

StartChar: p
Encoding: 112 112 83
Width: 553
GlyphClass: 2
Flags: W
LayerCount: 2
Fore
SplineSet
324.5 537 m 128,-1,1
 361 537 361 537 393 520.5 c 128,-1,2
 425 504 425 504 444.5 478 c 128,-1,3
 464 452 464 452 476 415 c 0,4,5
 498 352 498 352 498 287.5 c 128,-1,6
 498 223 498 223 494 186.5 c 128,-1,7
 490 150 490 150 478 112.5 c 128,-1,8
 466 75 466 75 447 50 c 0,9,10
 404 -8 404 -8 319 -8 c 0,11,12
 266 -8 266 -8 209.5 6 c 128,-1,13
 153 20 153 20 122 32 c 1,14,-1
 122 -269 l 1,15,-1
 67 -269 l 1,16,-1
 67 531 l 1,17,-1
 107 531 l 1,18,-1
 123 472 l 1,19,20
 159 501 159 501 223.5 519 c 128,-1,0
 288 537 288 537 324.5 537 c 128,-1,1
319 49 m 0,21,22
 375 49 375 49 406 92 c 0,23,24
 441 139 441 139 441 256 c 128,-1,25
 441 373 441 373 408 426.5 c 128,-1,26
 375 480 375 480 319 480 c 0,27,28
 234 480 234 480 123 431 c 1,29,-1
 123 76 l 1,30,31
 228 49 228 49 319 49 c 0,21,22
EndSplineSet
AlternateSubs2: "'salt' Stylistic Alternatives in Latin lookup 16 subtable" p.salt
Substitution2: "'smcp' Lowercase to Small Capitals lookup 1 subtable" p.smcp
EndChar

StartChar: q
Encoding: 113 113 84
Width: 556
GlyphClass: 2
Flags: W
LayerCount: 2
Fore
SplineSet
102 467 m 128,-1,1
 148 537 148 537 240 537 c 0,2,3
 330 537 330 537 407 527.5 c 128,-1,4
 484 518 484 518 489 518 c 1,5,-1
 489 -270 l 1,6,-1
 432 -270 l 1,7,-1
 432 29 l 1,8,9
 387 11 387 11 332 0.5 c 128,-1,10
 277 -10 277 -10 236 -10 c 128,-1,11
 195 -10 195 -10 162 4 c 128,-1,12
 129 18 129 18 109 42 c 128,-1,13
 89 66 89 66 77 102 c 0,14,15
 56 165 56 165 56 281 c 128,-1,0
 56 397 56 397 102 467 c 128,-1,1
113 268 m 0,16,17
 113 137 113 137 145 92 c 0,18,19
 176 47 176 47 235 47 c 128,-1,20
 294 47 294 47 331 52.5 c 128,-1,21
 368 58 368 58 432 74 c 1,22,-1
 432 480 l 1,23,-1
 240 480 l 2,24,25
 113 480 113 480 113 268 c 0,16,17
EndSplineSet
Substitution2: "'smcp' Lowercase to Small Capitals lookup 1 subtable" q.smcp
EndChar

StartChar: r
Encoding: 114 114 85
Width: 425
GlyphClass: 2
Flags: W
LayerCount: 2
Fore
SplineSet
67 0 m 1,0,-1
 67 531 l 1,1,-1
 106 531 l 1,2,-1
 124 464 l 1,3,4
 126 465 126 465 142 474 c 128,-1,5
 158 483 158 483 161.5 485 c 128,-1,6
 165 487 165 487 179 495 c 128,-1,7
 193 503 193 503 198.5 505 c 128,-1,8
 204 507 204 507 217.5 513.5 c 128,-1,9
 231 520 231 520 238.5 522 c 128,-1,10
 246 524 246 524 258.5 528 c 128,-1,11
 271 532 271 532 281 533 c 0,12,13
 310 537 310 537 347 537 c 128,-1,14
 384 537 384 537 403 529 c 1,15,-1
 403 473 l 1,16,17
 375 479 375 479 346 479 c 128,-1,18
 317 479 317 479 305 478 c 128,-1,19
 293 477 293 477 284 476.5 c 128,-1,20
 275 476 275 476 262.5 472.5 c 128,-1,21
 250 469 250 469 244 468.5 c 128,-1,22
 238 468 238 468 224 462.5 c 128,-1,23
 210 457 210 457 206 455.5 c 128,-1,24
 202 454 202 454 186 447 c 128,-1,25
 170 440 170 440 167.5 438.5 c 128,-1,26
 165 437 165 437 146 428 c 128,-1,27
 127 419 127 419 124 418 c 1,28,-1
 124 0 l 1,29,-1
 67 0 l 1,0,-1
EndSplineSet
AlternateSubs2: "'salt' Stylistic Alternatives in Latin lookup 16 subtable" r.salt
Substitution2: "'smcp' Lowercase to Small Capitals lookup 1 subtable" r.smcp
EndChar

StartChar: s
Encoding: 115 115 86
Width: 505
GlyphClass: 2
Flags: W
LayerCount: 2
Fore
SplineSet
45 360 m 2,0,-1
 45 406 l 2,1,2
 45 470 45 470 76.5 503 c 128,-1,3
 108 536 108 536 183 536 c 0,4,5
 220 536 220 536 306 531 c 128,-1,6
 392 526 392 526 434 522 c 1,7,-1
 434 480 l 1,8,-1
 183 480 l 2,9,10
 133 480 133 480 117.5 462.5 c 128,-1,11
 102 445 102 445 102 406 c 2,12,-1
 102 360 l 2,13,14
 102 312 102 312 124 301 c 1,15,16
 143 293 143 293 183 293 c 2,17,-1
 331 293 l 2,18,19
 392 293 392 293 426.5 259.5 c 128,-1,20
 461 226 461 226 461 169 c 2,21,-1
 461 120 l 2,22,23
 461 41 461 41 419 16 c 0,24,25
 384 -5 384 -5 340.5 -5 c 128,-1,26
 297 -5 297 -5 198.5 1 c 128,-1,27
 100 7 100 7 67 11 c 1,28,-1
 67 52 l 1,29,-1
 331 52 l 2,30,31
 369 52 369 52 379 62 c 1,32,33
 404 83 404 83 404 120 c 2,34,-1
 404 169 l 2,35,36
 404 236 404 236 331 236 c 2,37,-1
 183 236 l 2,38,39
 108 236 108 236 76.5 261 c 128,-1,40
 45 286 45 286 45 360 c 2,0,-1
EndSplineSet
Substitution2: "'smcp' Lowercase to Small Capitals lookup 1 subtable" s.smcp
EndChar

StartChar: t
Encoding: 116 116 87
Width: 368
GlyphClass: 2
Flags: W
LayerCount: 2
Fore
SplineSet
22 475 m 1,0,-1
 22 517 l 1,1,-1
 116 532 l 1,2,-1
 131 680 l 1,3,-1
 173 680 l 1,4,-1
 173 532 l 1,5,-1
 335 532 l 1,6,-1
 335 475 l 1,7,-1
 173 475 l 1,8,-1
 173 189 l 2,9,10
 173 110 173 110 196 84 c 0,11,12
 214 63 214 63 242 57 c 0,13,14
 319 40 319 40 326 40 c 1,15,-1
 326 0 l 1,16,-1
 245 0 l 2,17,18
 116 0 116 0 116 189 c 2,19,-1
 116 475 l 1,20,-1
 22 475 l 1,0,-1
EndSplineSet
AlternateSubs2: "'salt' Stylistic Alternatives in Latin lookup 16 subtable" t.salt
Substitution2: "'smcp' Lowercase to Small Capitals lookup 1 subtable" t.smcp
EndChar

StartChar: u
Encoding: 117 117 88
Width: 546
GlyphClass: 2
Flags: W
LayerCount: 2
Fore
SplineSet
113 531 m 1,0,-1
 113 161 l 2,1,2
 113 109 113 109 142.5 78.5 c 128,-1,3
 172 48 172 48 220 48 c 0,4,5
 280 48 280 48 315 60 c 0,6,7
 363 77 363 77 423 107 c 1,8,-1
 423 531 l 1,9,-1
 480 531 l 1,10,-1
 480 0 l 1,11,-1
 441 0 l 1,12,-1
 423 62 l 1,13,14
 385 40 385 40 360 27 c 0,15,16
 291 -9 291 -9 217.5 -9 c 128,-1,17
 144 -9 144 -9 100 41 c 128,-1,18
 56 91 56 91 56 161 c 2,19,-1
 56 531 l 1,20,-1
 113 531 l 1,0,-1
EndSplineSet
AlternateSubs2: "'salt' Stylistic Alternatives in Latin lookup 16 subtable" u.salt
Substitution2: "'smcp' Lowercase to Small Capitals lookup 1 subtable" u.smcp
EndChar

StartChar: v
Encoding: 118 118 89
Width: 530
GlyphClass: 2
Flags: W
LayerCount: 2
Fore
SplineSet
22 531 m 1,0,-1
 84 531 l 1,1,-1
 264 83 l 1,2,-1
 447 531 l 1,3,-1
 508 531 l 1,4,-1
 292 0 l 1,5,-1
 234 0 l 1,6,-1
 22 531 l 1,0,-1
EndSplineSet
Substitution2: "'smcp' Lowercase to Small Capitals lookup 1 subtable" v.smcp
EndChar

StartChar: w
Encoding: 119 119 90
Width: 793
GlyphClass: 2
Flags: W
LayerCount: 2
Fore
SplineSet
22 531 m 1,0,-1
 85 531 l 1,1,-1
 255 83 l 1,2,-1
 410 531 l 1,3,-1
 472 531 l 1,4,-1
 411 351 l 1,5,-1
 534 83 l 1,6,-1
 709 531 l 1,7,-1
 771 531 l 1,8,-1
 565 0 l 1,9,-1
 507 0 l 1,10,-1
 383 275 l 1,11,-1
 286 0 l 1,12,-1
 224 0 l 1,13,-1
 22 531 l 1,0,-1
EndSplineSet
Substitution2: "'smcp' Lowercase to Small Capitals lookup 1 subtable" w.smcp
EndChar

StartChar: x
Encoding: 120 120 91
Width: 509
GlyphClass: 2
Flags: W
LayerCount: 2
Fore
SplineSet
27 0 m 1,0,-1
 219 266 l 1,1,-1
 27 531 l 1,2,-1
 98 531 l 1,3,-1
 253 314 l 1,4,-1
 411 531 l 1,5,-1
 482 531 l 1,6,-1
 289 264 l 1,7,-1
 477 0 l 1,8,-1
 411 0 l 1,9,-1
 255 216 l 1,10,-1
 98 0 l 1,11,-1
 27 0 l 1,0,-1
EndSplineSet
AlternateSubs2: "'salt' Stylistic Alternatives in Latin lookup 16 subtable" x.salt
Substitution2: "'smcp' Lowercase to Small Capitals lookup 1 subtable" x.smcp
EndChar

StartChar: y
Encoding: 121 121 92
Width: 545
GlyphClass: 2
Flags: W
LayerCount: 2
Fore
SplineSet
286 58 m 0,0,1
 289 58 289 58 299 59 c 1,2,-1
 458 531 l 1,3,-1
 521 531 l 1,4,-1
 287 -168 l 1,5,-1
 222 -270 l 1,6,-1
 188 -270 l 1,7,-1
 279 0 l 1,8,9
 193 1 193 1 160 110 c 1,10,-1
 23 531 l 1,11,-1
 86 531 l 1,12,-1
 221 116 l 1,13,14
 241 58 241 58 286 58 c 0,0,1
EndSplineSet
Substitution2: "'smcp' Lowercase to Small Capitals lookup 1 subtable" y.smcp
EndChar

StartChar: z
Encoding: 122 122 93
Width: 462
GlyphClass: 2
Flags: W
LayerCount: 2
Fore
SplineSet
429 531 m 1,0,-1
 429 474 l 1,1,-1
 123 58 l 1,2,-1
 429 58 l 1,3,-1
 429 1 l 1,4,-1
 49 1 l 1,5,-1
 49 58 l 1,6,-1
 358 474 l 1,7,-1
 33 474 l 1,8,-1
 33 531 l 1,9,-1
 429 531 l 1,0,-1
EndSplineSet
Substitution2: "'smcp' Lowercase to Small Capitals lookup 1 subtable" z.smcp
EndChar

StartChar: braceleft
Encoding: 123 123 94
Width: 314
GlyphClass: 2
Flags: W
LayerCount: 2
Fore
SplineSet
168 -38 m 2,0,1
 168 -153 168 -153 284 -153 c 0,2,3
 288 -153 288 -153 292 -153 c 1,4,-1
 292 -210 l 1,5,6
 194 -210 194 -210 146 -153 c 1,7,8
 111 -113 111 -113 111 -38 c 2,9,-1
 111 247 l 2,10,11
 111 278 111 278 85.5 292.5 c 128,-1,12
 60 307 60 307 31 307 c 0,13,14
 27 307 27 307 22 307 c 1,15,-1
 22 360 l 1,16,17
 75 365 75 365 87 374 c 0,18,19
 112 393 112 393 112 420 c 2,20,-1
 112 656 l 2,21,22
 112 732 112 732 152 785 c 0,23,24
 196 842 196 842 292 842 c 1,25,-1
 292 785 l 1,26,27
 201 785 201 785 178 719 c 0,28,29
 169 693 169 693 169 656 c 2,30,-1
 169 420 l 2,31,32
 169 385 169 385 146 362.5 c 128,-1,33
 123 340 123 340 86 334 c 1,34,35
 121 329 121 329 144.5 305.5 c 128,-1,36
 168 282 168 282 168 251 c 2,37,-1
 168 -38 l 2,0,1
EndSplineSet
EndChar

StartChar: bar
Encoding: 124 124 95
Width: 248
GlyphClass: 2
Flags: W
LayerCount: 2
Fore
SplineSet
96 -72 m 1,0,-1
 96 770 l 1,1,-1
 153 770 l 1,2,-1
 153 -72 l 1,3,-1
 96 -72 l 1,0,-1
EndSplineSet
EndChar

StartChar: braceright
Encoding: 125 125 96
Width: 314
GlyphClass: 2
Flags: W
LayerCount: 2
Fore
SplineSet
30 -153 m 0,0,1
 146 -153 146 -153 146 -38 c 2,2,-1
 146 251 l 2,3,4
 146 282 146 282 169.5 305.5 c 128,-1,5
 193 329 193 329 228 334 c 1,6,7
 192 340 192 340 168.5 362.5 c 128,-1,8
 145 385 145 385 145 420 c 2,9,-1
 145 656 l 2,10,11
 145 727 145 727 113 756 c 128,-1,12
 81 785 81 785 22 785 c 1,13,-1
 22 842 l 1,14,15
 157 842 157 842 192 726 c 0,16,17
 202 694 202 694 202 656 c 2,18,-1
 202 420 l 2,19,20
 202 370 202 370 269 362 c 0,21,22
 276 362 276 362 292 360 c 1,23,-1
 292 307 l 1,24,25
 288 307 288 307 283 307 c 0,26,27
 255 307 255 307 229 292.5 c 128,-1,28
 203 278 203 278 203 247 c 2,29,-1
 203 -38 l 2,30,31
 203 -104 203 -104 169 -153 c 0,32,33
 129 -210 129 -210 22 -210 c 1,34,-1
 22 -153 l 1,35,36
 26 -153 26 -153 30 -153 c 0,0,1
EndSplineSet
EndChar

StartChar: asciitilde
Encoding: 126 126 97
Width: 449
GlyphClass: 2
Flags: W
LayerCount: 2
Fore
SplineSet
146.5 634 m 128,-1,1
 158 637 158 637 174.5 637 c 128,-1,2
 191 637 191 637 227.5 613 c 128,-1,3
 264 589 264 589 278.5 589 c 128,-1,4
 293 589 293 589 304 591.5 c 128,-1,5
 315 594 315 594 326.5 600 c 128,-1,6
 338 606 338 606 344 609.5 c 128,-1,7
 350 613 350 613 362.5 622 c 128,-1,8
 375 631 375 631 378 633 c 1,9,-1
 394 603 l 1,10,11
 391 600 391 600 379.5 588.5 c 128,-1,12
 368 577 368 577 362.5 572.5 c 128,-1,13
 357 568 357 568 346 559 c 128,-1,14
 335 550 335 550 326 546 c 0,15,16
 303 534 303 534 281 534 c 128,-1,17
 259 534 259 534 222 558 c 128,-1,18
 185 582 185 582 167.5 582 c 128,-1,19
 150 582 150 582 136 577 c 128,-1,20
 122 572 122 572 101.5 559.5 c 128,-1,21
 81 547 81 547 71 542 c 1,22,-1
 56 572 l 1,23,24
 62 577 62 577 74 587.5 c 128,-1,25
 86 598 86 598 92 603.5 c 128,-1,26
 98 609 98 609 108.5 616.5 c 128,-1,27
 119 624 119 624 127 627.5 c 128,-1,0
 135 631 135 631 146.5 634 c 128,-1,1
EndSplineSet
EndChar

StartChar: exclamdown
Encoding: 161 161 98
Width: 268
GlyphClass: 2
Flags: W
LayerCount: 2
Fore
SplineSet
93 386 m 2,0,-1
 93 442 l 2,1,2
 93 460 93 460 113 461 c 1,3,-1
 149 461 l 1,4,5
 157 460 157 460 163 454.5 c 128,-1,6
 169 449 169 449 169 440 c 2,7,-1
 169 386 l 1,8,9
 167 364 167 364 150 364 c 2,10,-1
 113 364 l 2,11,12
 93 364 93 364 93 386 c 2,0,-1
99 -270 m 1,13,-1
 104 263 l 1,14,-1
 158 263 l 1,15,-1
 165 -270 l 1,16,-1
 99 -270 l 1,13,-1
EndSplineSet
Substitution2: "'case' Case-Sensitive Forms lookup 18 subtable" exclamdown.alt
Substitution2: "'smcp' Lowercase to Small Capitals lookup 1 subtable" exclamdown.smcp
EndChar

StartChar: cent
Encoding: 162 162 99
Width: 489
GlyphClass: 2
Flags: W
LayerCount: 2
Fore
SplineSet
54 144.5 m 128,-1,1
 45 195 45 195 45 265.5 c 128,-1,2
 45 336 45 336 54 386 c 128,-1,3
 63 436 63 436 78 466 c 0,4,5
 107 522 107 522 171 533 c 1,6,7
 193 538 193 538 211 538 c 128,-1,8
 229 538 229 538 236 537 c 1,9,-1
 236 629 l 1,10,-1
 282 629 l 1,11,-1
 282 534 l 1,12,13
 360 526 360 526 438 510 c 1,14,-1
 438 470 l 1,15,16
 309 480 309 480 252.5 480 c 128,-1,17
 196 480 196 480 180 476.5 c 128,-1,18
 164 473 164 473 148 460.5 c 128,-1,19
 132 448 132 448 123 425 c 0,20,21
 102 372 102 372 102 275.5 c 128,-1,22
 102 179 102 179 116 131.5 c 128,-1,23
 130 84 130 84 154.5 67.5 c 128,-1,24
 179 51 179 51 220 51 c 0,25,26
 302 51 302 51 409 61 c 1,27,-1
 445 65 l 1,28,-1
 445 23 l 1,29,30
 367 0 367 0 282 -4 c 1,31,-1
 282 -91 l 1,32,-1
 236 -91 l 1,33,-1
 236 -6 l 1,34,35
 233 -6 233 -6 214.5 -6 c 128,-1,36
 196 -6 196 -6 171 -1.5 c 128,-1,37
 146 3 146 3 120 19 c 128,-1,38
 94 35 94 35 78.5 64.5 c 128,-1,0
 63 94 63 94 54 144.5 c 128,-1,1
EndSplineSet
EndChar

StartChar: sterling
Encoding: 163 163 100
Width: 597
GlyphClass: 2
Flags: W
LayerCount: 2
Fore
SplineSet
56 0 m 1,0,-1
 56 44 l 1,1,-1
 128 57 l 1,2,-1
 128 337 l 1,3,-1
 56 337 l 1,4,-1
 56 371 l 1,5,-1
 128 385 l 1,6,-1
 128 505 l 2,7,8
 128 587 128 587 141.5 620.5 c 128,-1,9
 155 654 155 654 165.5 671 c 128,-1,10
 176 688 176 688 193 699 c 128,-1,11
 210 710 210 710 226 716.5 c 128,-1,12
 242 723 242 723 265 727 c 1,13,14
 304 732 304 732 343 732 c 0,15,16
 407 732 407 732 508 722 c 1,17,-1
 542 718 l 1,18,-1
 542 676 l 1,19,-1
 358 676 l 2,20,21
 250 676 250 676 224 651 c 0,22,23
 195 624 195 624 189 574 c 0,24,25
 185 546 185 546 185 505 c 2,26,-1
 185 385 l 1,27,-1
 463 371 l 1,28,-1
 463 337 l 1,29,-1
 185 337 l 1,30,-1
 185 57 l 1,31,-1
 541 57 l 1,32,-1
 541 0 l 1,33,-1
 56 0 l 1,0,-1
EndSplineSet
Substitution2: "'smcp' Lowercase to Small Capitals lookup 1 subtable" sterling.smcp
EndChar

StartChar: currency
Encoding: 164 164 101
Width: 461
GlyphClass: 2
Flags: W
LayerCount: 2
Fore
SplineSet
129 440 m 1,0,1
 172 474 172 474 228.5 474 c 128,-1,2
 285 474 285 474 329 439 c 1,3,-1
 376 485 l 1,4,-1
 403 455 l 1,5,-1
 357 409 l 1,6,7
 388 368 388 368 388 313 c 128,-1,8
 388 258 388 258 356 214 c 1,9,-1
 404 166 l 1,10,-1
 372 138 l 1,11,-1
 328 183 l 1,12,13
 284 146 284 146 228 146 c 128,-1,14
 172 146 172 146 130 182 c 1,15,-1
 85 138 l 1,16,-1
 58 169 l 1,17,-1
 101 211 l 1,18,19
 68 256 68 256 68 312.5 c 128,-1,20
 68 369 68 369 101 412 c 1,21,-1
 57 457 l 1,22,-1
 87 484 l 1,23,-1
 129 440 l 1,0,1
144.5 396.5 m 128,-1,25
 110 362 110 362 110 321 c 128,-1,26
 110 280 110 280 125 251.5 c 128,-1,27
 140 223 140 223 167.5 206 c 128,-1,28
 195 189 195 189 227.5 189 c 128,-1,29
 260 189 260 189 287.5 206 c 128,-1,30
 315 223 315 223 330.5 251.5 c 128,-1,31
 346 280 346 280 346 313 c 128,-1,32
 346 346 346 346 330 373 c 128,-1,33
 314 400 314 400 287 415.5 c 128,-1,34
 260 431 260 431 219.5 431 c 128,-1,24
 179 431 179 431 144.5 396.5 c 128,-1,25
EndSplineSet
EndChar

StartChar: yen
Encoding: 165 165 102
Width: 594
GlyphClass: 2
Flags: W
LayerCount: 2
Fore
SplineSet
506 321 m 1,0,-1
 506 277 l 1,1,-1
 316 277 l 1,2,-1
 316 212 l 1,3,-1
 506 212 l 1,4,-1
 506 168 l 1,5,-1
 316 168 l 1,6,-1
 316 0 l 1,7,-1
 259 0 l 1,8,-1
 259 168 l 1,9,-1
 79 168 l 1,10,-1
 79 212 l 1,11,-1
 259 212 l 1,12,-1
 259 277 l 1,13,-1
 79 277 l 1,14,-1
 79 321 l 1,15,-1
 258 321 l 1,16,-1
 22 732 l 1,17,-1
 86 732 l 1,18,-1
 287 378 l 1,19,-1
 507 732 l 1,20,-1
 572 732 l 1,21,-1
 317 321 l 1,22,-1
 506 321 l 1,0,-1
EndSplineSet
Substitution2: "'smcp' Lowercase to Small Capitals lookup 1 subtable" yen.smcp
EndChar

StartChar: brokenbar
Encoding: 166 166 103
Width: 249
GlyphClass: 2
Flags: W
LayerCount: 2
Fore
SplineSet
96 -72 m 1,0,-1
 96 256 l 1,1,-1
 153 256 l 1,2,-1
 153 -72 l 1,3,-1
 96 -72 l 1,0,-1
96 429 m 1,4,-1
 96 770 l 1,5,-1
 153 770 l 1,6,-1
 153 429 l 1,7,-1
 96 429 l 1,4,-1
EndSplineSet
EndChar

StartChar: section
Encoding: 167 167 104
Width: 554
GlyphClass: 2
Flags: W
LayerCount: 2
Fore
SplineSet
61 590 m 2,0,-1
 61 660 l 2,1,2
 61 756 61 756 144 778 c 0,3,4
 166 784 166 784 195.5 784 c 128,-1,5
 225 784 225 784 323.5 778 c 128,-1,6
 422 772 422 772 455 768 c 1,7,-1
 455 727 l 1,8,-1
 191 727 l 2,9,10
 154 727 154 727 136.5 711 c 128,-1,11
 119 695 119 695 118 660 c 1,12,-1
 118 590 l 2,13,14
 118 558 118 558 137 546 c 128,-1,15
 156 534 156 534 191 534 c 2,16,-1
 360 534 l 2,17,18
 440 534 440 534 467 505.5 c 128,-1,19
 494 477 494 477 493 416 c 1,20,-1
 493 354 l 2,21,22
 493 271 493 271 448 265 c 1,23,24
 478 260 478 260 486 233 c 0,25,26
 492 212 492 212 492 183 c 2,27,-1
 492 110 l 2,28,29
 492 24 492 24 430 2 c 0,30,31
 400 -8 400 -8 360.5 -8 c 128,-1,32
 321 -8 321 -8 226.5 -2 c 128,-1,33
 132 4 132 4 98 8 c 1,34,-1
 98 49 l 1,35,-1
 354 49 l 2,36,37
 394 49 394 49 414.5 61.5 c 128,-1,38
 435 74 435 74 435 110 c 2,39,-1
 435 183 l 2,40,41
 435 207 435 207 428.5 218.5 c 128,-1,42
 422 230 422 230 407 234 c 128,-1,43
 392 238 392 238 360 238 c 2,44,-1
 191 238 l 2,45,46
 128 238 128 238 103.5 253.5 c 128,-1,47
 79 269 79 269 70.5 292.5 c 128,-1,48
 62 316 62 316 62 353 c 2,49,-1
 62 415 l 2,50,51
 62 455 62 455 72.5 478 c 128,-1,52
 83 501 83 501 110 508 c 1,53,54
 61 520 61 520 61 590 c 2,0,-1
118 353 m 2,55,56
 118 314 118 314 133 304.5 c 128,-1,57
 148 295 148 295 191 295 c 2,58,-1
 360 295 l 2,59,60
 424 295 424 295 432 319 c 0,61,62
 435 330 435 330 435 354 c 2,63,-1
 435 416 l 2,64,65
 435 452 435 452 421.5 465 c 128,-1,66
 408 478 408 478 360 478 c 2,67,-1
 191 478 l 2,68,69
 148 478 148 478 133 467 c 128,-1,70
 118 456 118 456 118 414 c 2,71,-1
 118 353 l 2,55,56
EndSplineSet
EndChar

StartChar: dieresis
Encoding: 168 168 105
Width: 445
GlyphClass: 2
Flags: W
LayerCount: 2
Fore
SplineSet
67.5 554 m 128,-1,1
 56 566 56 566 56 579.5 c 128,-1,2
 56 593 56 593 61 602 c 0,3,4
 73 621 73 621 92.5 621 c 128,-1,5
 112 621 112 621 123 609.5 c 128,-1,6
 134 598 134 598 134 584.5 c 128,-1,7
 134 571 134 571 129 562 c 0,8,9
 118 542 118 542 98.5 542 c 128,-1,0
 79 542 79 542 67.5 554 c 128,-1,1
311 582 m 128,-1,11
 311 598 311 598 322.5 609.5 c 128,-1,12
 334 621 334 621 350.5 621 c 128,-1,13
 367 621 367 621 378 609.5 c 128,-1,14
 389 598 389 598 389 581.5 c 128,-1,15
 389 565 389 565 378 553.5 c 128,-1,16
 367 542 367 542 350.5 542 c 128,-1,17
 334 542 334 542 322.5 554 c 128,-1,10
 311 566 311 566 311 582 c 128,-1,11
EndSplineSet
Substitution2: "'smcp' Lowercase to Small Capitals lookup 1 subtable" dieresis.smcp
EndChar

StartChar: copyright
Encoding: 169 169 106
Width: 829
GlyphClass: 2
Flags: W
LayerCount: 2
Fore
SplineSet
67.5 278 m 128,-1,1
 61 324 61 324 61 373 c 128,-1,2
 61 422 61 422 66.5 469 c 128,-1,3
 72 516 72 516 88 566 c 128,-1,4
 104 616 104 616 128.5 651.5 c 128,-1,5
 153 687 153 687 195.5 709.5 c 128,-1,6
 238 732 238 732 293 732 c 2,7,-1
 558 732 l 2,8,9
 768 732 768 732 768 368 c 0,10,11
 768 174 768 174 697 74 c 1,12,13
 646 0 646 0 558 0 c 2,14,-1
 293 0 l 2,15,16
 241 0 241 0 199 25.5 c 128,-1,17
 157 51 157 51 132 90.5 c 128,-1,18
 107 130 107 130 90.5 181 c 128,-1,0
 74 232 74 232 67.5 278 c 128,-1,1
108 365 m 0,19,20
 108 248 108 248 152 153 c 0,21,22
 174 105 174 105 210.5 76 c 128,-1,23
 247 47 247 47 293 47 c 2,24,-1
 558 47 l 1,25,26
 629 48 629 48 675 131 c 128,-1,27
 721 214 721 214 721 368 c 0,28,29
 721 685 721 685 558 685 c 2,30,-1
 293 685 l 2,31,32
 108 685 108 685 108 365 c 0,19,20
248 257 m 0,33,34
 237 301 237 301 237 362.5 c 128,-1,35
 237 424 237 424 248 467 c 128,-1,36
 259 510 259 510 279 535 c 0,37,38
 318 583 318 583 378 583 c 128,-1,39
 438 583 438 583 559 561 c 1,40,-1
 559 524 l 1,41,42
 475 536 475 536 381 536 c 0,43,44
 284 536 284 536 284 362 c 0,45,46
 284 309 284 309 292 274 c 128,-1,47
 300 239 300 239 322.5 216.5 c 128,-1,48
 345 194 345 194 381 194 c 0,49,50
 477 194 477 194 565 210 c 1,51,-1
 565 173 l 1,52,53
 474 147 474 147 381 147 c 0,54,55
 276 147 276 147 248 257 c 0,33,34
EndSplineSet
EndChar

StartChar: ordfeminine
Encoding: 170 170 107
Width: 362
GlyphClass: 3
Flags: W
LayerCount: 2
Fore
SplineSet
33 276 m 1,0,-1
 33 319 l 1,1,-1
 329 319 l 1,2,-1
 329 276 l 1,3,-1
 33 276 l 1,0,-1
33 463 m 2,4,-1
 33 509 l 2,5,6
 33 565 33 565 80 588 c 0,7,8
 103 599 103 599 133 599 c 0,9,10
 207 599 207 599 244 599 c 128,-1,11
 281 599 281 599 281 599 c 1,12,13
 281 615 281 615 281 623 c 128,-1,14
 281 631 281 631 281 631 c 2,15,16
 281 695 281 695 204 695 c 0,17,18
 158 695 158 695 45 685 c 1,19,-1
 45 716 l 1,20,21
 54 718 54 718 80.5 723.5 c 128,-1,22
 107 729 107 729 121 731 c 0,23,24
 167 739 167 739 215 739 c 128,-1,25
 263 739 263 739 295 713.5 c 128,-1,26
 327 688 327 688 327 636 c 2,27,-1
 327 378 l 1,28,-1
 297 378 l 1,29,-1
 282 427 l 2,30,31
 281 427 281 427 271.5 421.5 c 128,-1,32
 262 416 262 416 246 408.5 c 128,-1,33
 230 401 230 401 212 393 c 0,34,35
 167 374 167 374 129.5 374 c 128,-1,36
 92 374 92 374 62.5 397.5 c 128,-1,37
 33 421 33 421 33 463 c 2,4,-1
80 473 m 2,38,39
 80 420 80 420 139 420 c 0,40,41
 166 420 166 420 201.5 429.5 c 128,-1,42
 237 439 237 439 259 448 c 2,43,-1
 281 458 l 1,44,-1
 281 566 l 1,45,-1
 139 558 l 2,46,47
 80 554 80 554 80 503 c 2,48,-1
 80 473 l 2,38,39
EndSplineSet
Substitution2: "'smcp' Lowercase to Small Capitals lookup 1 subtable" ordfeminine.smcp
Ligature2: "'ordn' Ordinals lookup 0 subtable" a
EndChar

StartChar: guillemotleft
Encoding: 171 171 108
Width: 548
GlyphClass: 2
Flags: W
LayerCount: 2
Fore
SplineSet
56 354 m 1,0,-1
 261 557 l 1,1,-1
 302 517 l 1,2,-1
 136 354 l 1,3,-1
 307 186 l 1,4,-1
 267 146 l 1,5,-1
 56 354 l 1,0,-1
241 354 m 1,6,-1
 447 557 l 1,7,-1
 487 517 l 1,8,-1
 321 354 l 1,9,-1
 493 186 l 1,10,-1
 452 146 l 1,11,-1
 241 354 l 1,6,-1
EndSplineSet
EndChar

StartChar: logicalnot
Encoding: 172 172 109
Width: 528
GlyphClass: 2
Flags: W
LayerCount: 2
Fore
SplineSet
56 264 m 1,0,-1
 56 322 l 1,1,-1
 473 322 l 1,2,-1
 473 159 l 1,3,-1
 416 159 l 1,4,-1
 416 264 l 1,5,-1
 56 264 l 1,0,-1
EndSplineSet
EndChar

StartChar: uni00AD
Encoding: 173 173 110
Width: 358
GlyphClass: 2
Flags: W
LayerCount: 2
Fore
SplineSet
22 262 m 1,0,-1
 22 318 l 1,1,-1
 336 318 l 1,2,-1
 336 262 l 1,3,-1
 22 262 l 1,0,-1
EndSplineSet
Substitution2: "'case' Case-Sensitive Forms lookup 18 subtable" uni00AD.alt
Substitution2: "'c2sc' Capitals to Small Capitals in Latin lookup 2 subtable" uni00AD.smcp
Substitution2: "'smcp' Lowercase to Small Capitals lookup 1 subtable" uni00AD.smcp
EndChar

StartChar: registered
Encoding: 174 174 111
Width: 829
GlyphClass: 2
Flags: W
LayerCount: 2
Fore
SplineSet
67.5 278 m 128,-1,1
 61 324 61 324 61 373 c 128,-1,2
 61 422 61 422 66.5 469 c 128,-1,3
 72 516 72 516 88 566 c 128,-1,4
 104 616 104 616 128.5 651.5 c 128,-1,5
 153 687 153 687 195.5 709.5 c 128,-1,6
 238 732 238 732 293 732 c 2,7,-1
 558 732 l 2,8,9
 768 732 768 732 768 368 c 0,10,11
 768 174 768 174 697 74 c 1,12,13
 646 0 646 0 558 0 c 2,14,-1
 293 0 l 2,15,16
 241 0 241 0 199 25.5 c 128,-1,17
 157 51 157 51 132 90.5 c 128,-1,18
 107 130 107 130 90.5 181 c 128,-1,0
 74 232 74 232 67.5 278 c 128,-1,1
108 365 m 0,19,20
 108 248 108 248 152 153 c 0,21,22
 174 105 174 105 210.5 76 c 128,-1,23
 247 47 247 47 293 47 c 2,24,-1
 558 47 l 1,25,26
 629 48 629 48 675 131 c 128,-1,27
 721 214 721 214 721 368 c 0,28,29
 721 685 721 685 558 685 c 2,30,-1
 293 685 l 2,31,32
 108 685 108 685 108 365 c 0,19,20
446 580 m 2,33,34
 540 580 540 580 566 517 c 0,35,36
 577 491 577 491 577 463.5 c 128,-1,37
 577 436 577 436 574.5 421.5 c 128,-1,38
 572 407 572 407 569.5 396 c 128,-1,39
 567 385 567 385 561 376 c 128,-1,40
 555 367 555 367 551 361 c 128,-1,41
 547 355 547 355 538.5 350 c 128,-1,42
 530 345 530 345 526 342 c 128,-1,43
 522 339 522 339 512 336.5 c 128,-1,44
 502 334 502 334 499.5 333.5 c 128,-1,45
 497 333 497 333 486.5 331.5 c 128,-1,46
 476 330 476 330 476 329 c 2,47,-1
 573 153 l 1,48,-1
 520 153 l 1,49,-1
 422 330 l 1,50,-1
 316 340 l 1,51,-1
 316 153 l 1,52,-1
 269 153 l 1,53,-1
 269 580 l 1,54,-1
 446 580 l 2,33,34
316 372 m 1,55,-1
 452 372 l 2,56,57
 497 372 497 372 513.5 388 c 128,-1,58
 530 404 530 404 530 452 c 128,-1,59
 530 500 530 500 509 516.5 c 128,-1,60
 488 533 488 533 452 533 c 2,61,-1
 316 533 l 1,62,-1
 316 372 l 1,55,-1
EndSplineSet
EndChar

StartChar: macron
Encoding: 175 175 112
Width: 390
GlyphClass: 2
Flags: W
LayerCount: 2
Fore
SplineSet
56 531 m 1,0,-1
 56 578 l 1,1,-1
 335 578 l 1,2,-1
 335 531 l 1,3,-1
 56 531 l 1,0,-1
EndSplineSet
Substitution2: "'smcp' Lowercase to Small Capitals lookup 1 subtable" macron.smcp
EndChar

StartChar: degree
Encoding: 176 176 113
Width: 314
GlyphClass: 2
Flags: W
LayerCount: 2
Fore
SplineSet
56 632 m 128,-1,1
 56 660 56 660 70 683.5 c 128,-1,2
 84 707 84 707 107.5 721 c 128,-1,3
 131 735 131 735 158.5 735 c 128,-1,4
 186 735 186 735 209 721 c 128,-1,5
 232 707 232 707 245.5 683.5 c 128,-1,6
 259 660 259 660 259 624.5 c 128,-1,7
 259 589 259 589 229.5 559.5 c 128,-1,8
 200 530 200 530 165.5 530 c 128,-1,9
 131 530 131 530 107.5 543.5 c 128,-1,10
 84 557 84 557 70 580.5 c 128,-1,0
 56 604 56 604 56 632 c 128,-1,1
92 632 m 128,-1,12
 92 605 92 605 111.5 586 c 128,-1,13
 131 567 131 567 158 567 c 128,-1,14
 185 567 185 567 204 586 c 128,-1,15
 223 605 223 605 223 632 c 128,-1,16
 223 659 223 659 204 678.5 c 128,-1,17
 185 698 185 698 158 698 c 128,-1,18
 131 698 131 698 111.5 678.5 c 128,-1,11
 92 659 92 659 92 632 c 128,-1,12
EndSplineSet
Substitution2: "'smcp' Lowercase to Small Capitals lookup 1 subtable" degree.smcp
EndChar

StartChar: plusminus
Encoding: 177 177 114
Width: 529
GlyphClass: 2
Flags: W
LayerCount: 2
Fore
SplineSet
63 104 m 1,0,-1
 63 161 l 1,1,-1
 469 161 l 1,2,-1
 469 104 l 1,3,-1
 63 104 l 1,0,-1
63 395 m 1,4,-1
 63 452 l 1,5,-1
 237 452 l 1,6,-1
 237 627 l 1,7,-1
 294 627 l 1,8,-1
 294 452 l 1,9,-1
 469 452 l 1,10,-1
 469 395 l 1,11,-1
 294 395 l 1,12,-1
 294 221 l 1,13,-1
 237 221 l 1,14,-1
 237 395 l 1,15,-1
 63 395 l 1,4,-1
EndSplineSet
EndChar

StartChar: twosuperior
Encoding: 178 178 115
Width: 395
GlyphClass: 2
Flags: W
LayerCount: 2
Fore
SplineSet
35 824 m 2,0,1
 34 824 34 824 34 842 c 128,-1,2
 34 860 34 860 35 859 c 1,3,4
 137 871 137 871 218 871 c 0,5,6
 348 871 348 871 348 735 c 0,7,8
 348 617 348 617 132 442 c 0,9,10
 127 438 127 438 125 436 c 1,11,-1
 347 436 l 1,12,-1
 347 389 l 1,13,-1
 38 389 l 1,14,-1
 38 432 l 1,15,16
 46 438 46 438 73.5 459.5 c 128,-1,17
 101 481 101 481 120 496.5 c 128,-1,18
 139 512 139 512 168.5 537.5 c 128,-1,19
 198 563 198 563 218 585 c 128,-1,20
 238 607 238 607 258 633 c 0,21,22
 299 685 299 685 299 732 c 128,-1,23
 299 779 299 779 279.5 801.5 c 128,-1,24
 260 824 260 824 209 824 c 2,25,-1
 35 824 l 2,0,1
EndSplineSet
EndChar

StartChar: threesuperior
Encoding: 179 179 116
Width: 416
GlyphClass: 2
Flags: W
LayerCount: 2
Fore
SplineSet
33 851 m 1,0,1
 81 866 81 866 189 866 c 2,2,-1
 229 866 l 2,3,4
 290 866 290 866 320 833.5 c 128,-1,5
 350 801 350 801 350 751 c 2,6,-1
 350 716 l 2,7,8
 350 682 350 682 330.5 658 c 128,-1,9
 311 634 311 634 289 627 c 1,10,11
 350 597 350 597 350 532 c 2,12,-1
 350 504 l 2,13,14
 350 415 350 415 285 393 c 0,15,16
 260 385 260 385 222 385 c 128,-1,17
 184 385 184 385 168.5 385 c 128,-1,18
 153 385 153 385 124 387 c 0,19,20
 75 389 75 389 37 401 c 1,21,-1
 38 431 l 1,22,-1
 215 432 l 2,23,24
 263 432 263 432 282.5 449 c 128,-1,25
 302 466 302 466 302 508 c 2,26,-1
 302 531 l 2,27,28
 302 569 302 569 278 587.5 c 128,-1,29
 254 606 254 606 219 607 c 2,30,-1
 77 612 l 1,31,-1
 77 646 l 1,32,-1
 219 652 l 2,33,34
 258 654 258 654 281 672.5 c 128,-1,35
 304 691 304 691 304 723 c 2,36,-1
 304 749 l 2,37,38
 304 820 304 820 222 820 c 2,39,-1
 33 820 l 1,40,-1
 33 851 l 1,0,1
EndSplineSet
EndChar

StartChar: acute
Encoding: 180 180 117
Width: 228
GlyphClass: 2
Flags: W
LayerCount: 2
Fore
SplineSet
22 531 m 1,0,-1
 134 664 l 1,1,-1
 206 664 l 1,2,-1
 73 531 l 1,3,-1
 22 531 l 1,0,-1
EndSplineSet
Substitution2: "'smcp' Lowercase to Small Capitals lookup 1 subtable" acute.smcp
EndChar

StartChar: uni00B5
Encoding: 181 181 118
Width: 602
GlyphClass: 2
Flags: W
LayerCount: 2
Fore
SplineSet
158 531 m 1,0,-1
 158 161 l 2,1,2
 158 109 158 109 187 78.5 c 128,-1,3
 216 48 216 48 269 48 c 128,-1,4
 322 48 322 48 362 61 c 128,-1,5
 402 74 402 74 468 107 c 1,6,-1
 468 531 l 1,7,-1
 525 531 l 1,8,-1
 525 0 l 1,9,-1
 486 0 l 1,10,-1
 468 62 l 1,11,12
 377 8 377 8 321 -3 c 0,13,14
 294 -9 294 -9 265 -9 c 0,15,16
 199 -9 199 -9 158 34 c 1,17,-1
 158 -270 l 1,18,-1
 101 -270 l 1,19,-1
 101 161 l 1,20,-1
 101 531 l 1,21,-1
 158 531 l 1,0,-1
EndSplineSet
EndChar

StartChar: paragraph
Encoding: 182 182 119
Width: 577
GlyphClass: 2
Flags: W
LayerCount: 2
Fore
SplineSet
45 499 m 2,0,-1
 45 592 l 2,1,2
 45 659 45 659 91.5 695.5 c 128,-1,3
 138 732 138 732 201 732 c 2,4,-1
 556 732 l 1,5,-1
 556 673 l 1,6,-1
 487 673 l 1,7,-1
 487 0 l 1,8,-1
 430 0 l 1,9,-1
 430 675 l 1,10,-1
 312 675 l 1,11,-1
 312 -270 l 1,12,-1
 255 -270 l 1,13,-1
 255 370 l 1,14,15
 255 370 255 370 250 367 c 128,-1,16
 245 364 245 364 241 362.5 c 128,-1,17
 237 361 237 361 231 359 c 0,18,19
 217 354 217 354 201 355 c 1,20,21
 127 355 127 355 86 396 c 128,-1,22
 45 437 45 437 45 499 c 2,0,-1
102 501 m 2,23,24
 102 474 102 474 113 454.5 c 128,-1,25
 124 435 124 435 141 427 c 0,26,27
 172 412 172 412 201 412 c 2,28,-1
 255 412 l 1,29,-1
 255 675 l 1,30,-1
 201 675 l 2,31,32
 167 675 167 675 144 662 c 0,33,34
 102 638 102 638 102 590 c 2,35,-1
 102 501 l 2,23,24
EndSplineSet
EndChar

StartChar: periodcentered
Encoding: 183 183 120
Width: 269
GlyphClass: 2
Flags: W
LayerCount: 2
Fore
SplineSet
95 361 m 2,0,-1
 95 403 l 2,1,2
 95 424 95 424 115 424 c 2,3,-1
 154 424 l 2,4,5
 174 424 174 424 174 403 c 2,6,-1
 174 361 l 2,7,8
 174 342 174 342 154 342 c 2,9,-1
 115 342 l 2,10,11
 101 342 101 342 97 354 c 0,12,13
 95 357 95 357 95 361 c 2,0,-1
EndSplineSet
Substitution2: "'smcp' Lowercase to Small Capitals lookup 1 subtable" periodcentered.smcp
EndChar

StartChar: cedilla
Encoding: 184 184 121
Width: 257
GlyphClass: 2
Flags: W
LayerCount: 2
Fore
SplineSet
201 -37 m 1,0,1
 201 -113 201 -113 181 -143 c 0,2,3
 160 -173 160 -173 100 -173 c 2,4,-1
 56 -173 l 1,5,-1
 56 -146 l 1,6,-1
 102 -135 l 1,7,8
 129 -127 129 -127 140 -105 c 128,-1,9
 151 -83 151 -83 151 -37 c 1,10,-1
 201 -37 l 1,0,1
EndSplineSet
EndChar

StartChar: onesuperior
Encoding: 185 185 122
Width: 265
GlyphClass: 2
Flags: W
LayerCount: 2
Fore
SplineSet
193 865 m 1,0,-1
 193 389 l 1,1,-1
 146 389 l 1,2,-1
 146 813 l 1,3,-1
 18 775 l 1,4,-1
 18 810 l 1,5,-1
 146 865 l 1,6,-1
 193 865 l 1,0,-1
EndSplineSet
EndChar

StartChar: ordmasculine
Encoding: 186 186 123
Width: 386
GlyphClass: 3
Flags: W
LayerCount: 2
Fore
SplineSet
67 412.5 m 128,-1,1
 33 452 33 452 33 555 c 128,-1,2
 33 658 33 658 66.5 697.5 c 128,-1,3
 100 737 100 737 194.5 737 c 128,-1,4
 289 737 289 737 321 697.5 c 128,-1,5
 353 658 353 658 353 554.5 c 128,-1,6
 353 451 353 451 320 412 c 128,-1,7
 287 373 287 373 194 373 c 128,-1,0
 101 373 101 373 67 412.5 c 128,-1,1
45 278 m 1,8,-1
 45 320 l 1,9,-1
 343 320 l 1,10,-1
 343 278 l 1,11,-1
 45 278 l 1,8,-1
85.5 627.5 m 128,-1,13
 80 599 80 599 80 553 c 128,-1,14
 80 507 80 507 86 480.5 c 128,-1,15
 92 454 92 454 108 440.5 c 128,-1,16
 124 427 124 427 143 423 c 128,-1,17
 162 419 162 419 195 419 c 128,-1,18
 228 419 228 419 246 422.5 c 128,-1,19
 264 426 264 426 279.5 439 c 128,-1,20
 295 452 295 452 301 478 c 0,21,22
 307 507 307 507 307 553.5 c 128,-1,23
 307 600 307 600 302 627 c 128,-1,24
 297 654 297 654 281.5 668 c 128,-1,25
 266 682 266 682 247.5 686.5 c 128,-1,26
 229 691 229 691 194 691 c 128,-1,27
 159 691 159 691 141 687.5 c 128,-1,28
 123 684 123 684 107 670 c 128,-1,12
 91 656 91 656 85.5 627.5 c 128,-1,13
EndSplineSet
Substitution2: "'smcp' Lowercase to Small Capitals lookup 1 subtable" ordmasculine.smcp
Ligature2: "'ordn' Ordinals lookup 0 subtable" o
EndChar

StartChar: guillemotright
Encoding: 187 187 124
Width: 548
GlyphClass: 2
Flags: W
LayerCount: 2
Fore
SplineSet
56 186 m 1,0,-1
 228 354 l 1,1,-1
 61 517 l 1,2,-1
 101 557 l 1,3,-1
 307 354 l 1,4,-1
 97 146 l 1,5,-1
 56 186 l 1,0,-1
241 186 m 1,6,-1
 413 354 l 1,7,-1
 247 517 l 1,8,-1
 287 557 l 1,9,-1
 493 354 l 1,10,-1
 282 146 l 1,11,-1
 241 186 l 1,6,-1
EndSplineSet
EndChar

StartChar: onequarter
Encoding: 188 188 125
Width: 893
GlyphClass: 3
Flags: W
LayerCount: 2
Fore
SplineSet
193 732 m 1,0,-1
 193 256 l 1,1,-1
 146 256 l 1,2,-1
 146 680 l 1,3,-1
 18 642 l 1,4,-1
 18 677 l 1,5,-1
 146 732 l 1,6,-1
 193 732 l 1,0,-1
217 0 m 1,7,-1
 578 745 l 1,8,-1
 627 745 l 1,9,-1
 266 0 l 1,10,-1
 217 0 l 1,7,-1
765 185 m 1,11,-1
 765 306 l 1,12,-1
 786 354 l 1,13,-1
 812 354 l 1,14,-1
 812 185 l 1,15,-1
 871 185 l 1,16,-1
 871 148 l 1,17,-1
 812 135 l 1,18,-1
 812 0 l 1,19,-1
 765 0 l 1,20,-1
 765 135 l 1,21,-1
 507 135 l 1,22,-1
 491 155 l 1,23,-1
 693 474 l 1,24,-1
 747 474 l 1,25,-1
 565 185 l 1,26,-1
 765 185 l 1,11,-1
EndSplineSet
Ligature2: "'frac' Diagonal Fractions lookup 7 subtable" one fraction four
Ligature2: "'frac' Diagonal Fractions lookup 7 subtable" one slash four
EndChar

StartChar: onehalf
Encoding: 189 189 126
Width: 963
GlyphClass: 3
Flags: W
LayerCount: 2
Fore
SplineSet
193 732 m 1,0,-1
 193 256 l 1,1,-1
 146 256 l 1,2,-1
 146 680 l 1,3,-1
 18 642 l 1,4,-1
 18 677 l 1,5,-1
 146 732 l 1,6,-1
 193 732 l 1,0,-1
210 0 m 1,7,-1
 570 745 l 1,8,-1
 619 745 l 1,9,-1
 259 0 l 1,10,-1
 210 0 l 1,7,-1
605 435 m 2,11,12
 604 435 604 435 604 453 c 128,-1,13
 604 471 604 471 605 470 c 1,14,15
 707 482 707 482 788 482 c 0,16,17
 918 482 918 482 918 346 c 0,18,19
 918 229 918 229 702 53 c 0,20,21
 697 49 697 49 695 47 c 1,22,-1
 917 47 l 1,23,-1
 917 0 l 1,24,-1
 608 0 l 1,25,-1
 608 43 l 1,26,27
 613 47 613 47 650 76 c 128,-1,28
 687 105 687 105 707 121.5 c 128,-1,29
 727 138 727 138 762.5 171 c 128,-1,30
 798 204 798 204 818 229 c 0,31,32
 869 295 869 295 869 342.5 c 128,-1,33
 869 390 869 390 849.5 412.5 c 128,-1,34
 830 435 830 435 779 435 c 2,35,-1
 605 435 l 2,11,12
EndSplineSet
Ligature2: "'frac' Diagonal Fractions lookup 7 subtable" one fraction two
Ligature2: "'frac' Diagonal Fractions lookup 7 subtable" one slash two
EndChar

StartChar: threequarters
Encoding: 190 190 127
Width: 1012
GlyphClass: 3
Flags: W
LayerCount: 2
Fore
SplineSet
229 733 m 0,0,1
 290 733 290 733 320 700.5 c 128,-1,2
 350 668 350 668 350 618 c 2,3,-1
 350 583 l 2,4,5
 350 549 350 549 330.5 525 c 128,-1,6
 311 501 311 501 289 494 c 1,7,8
 350 464 350 464 350 399 c 2,9,-1
 350 371 l 2,10,11
 350 282 350 282 285 260 c 0,12,13
 260 252 260 252 222 252 c 128,-1,14
 184 252 184 252 168.5 252 c 128,-1,15
 153 252 153 252 124 254 c 0,16,17
 75 256 75 256 37 268 c 1,18,-1
 38 298 l 1,19,-1
 215 299 l 2,20,21
 263 299 263 299 282.5 316 c 128,-1,22
 302 333 302 333 302 375 c 2,23,-1
 302 398 l 2,24,25
 302 436 302 436 278 454.5 c 128,-1,26
 254 473 254 473 219 474 c 2,27,-1
 77 479 l 1,28,-1
 77 513 l 1,29,-1
 219 519 l 2,30,31
 258 521 258 521 281 539.5 c 128,-1,32
 304 558 304 558 304 590 c 2,33,-1
 304 616 l 2,34,35
 304 687 304 687 222 687 c 2,36,-1
 33 687 l 1,37,-1
 33 718 l 1,38,39
 53 724 53 724 67.5 726 c 128,-1,40
 82 728 82 728 90 729.5 c 128,-1,41
 98 731 98 731 112 731.5 c 128,-1,42
 126 732 126 732 133 732.5 c 128,-1,43
 140 733 140 733 156.5 733 c 128,-1,44
 173 733 173 733 179 733 c 128,-1,45
 185 733 185 733 204.5 733 c 128,-1,46
 224 733 224 733 229 733 c 0,0,1
323 0 m 1,47,-1
 684 745 l 1,48,-1
 733 745 l 1,49,-1
 372 0 l 1,50,-1
 323 0 l 1,47,-1
851 183 m 1,51,-1
 851 306 l 1,52,-1
 871 354 l 1,53,-1
 896 354 l 1,54,-1
 896 183 l 1,55,-1
 955 183 l 1,56,-1
 955 148 l 1,57,-1
 896 136 l 1,58,-1
 896 0 l 1,59,-1
 851 0 l 1,60,-1
 851 136 l 1,61,-1
 591 136 l 1,62,-1
 575 155 l 1,63,-1
 777 474 l 1,64,-1
 828 474 l 1,65,-1
 646 183 l 1,66,-1
 851 183 l 1,51,-1
EndSplineSet
Ligature2: "'frac' Diagonal Fractions lookup 7 subtable" three fraction four
Ligature2: "'frac' Diagonal Fractions lookup 7 subtable" three slash four
EndChar

StartChar: questiondown
Encoding: 191 191 128
Width: 538
GlyphClass: 2
Flags: W
LayerCount: 2
Fore
SplineSet
517 -210 m 2,0,1
 515 -210 515 -210 515.5 -230 c 128,-1,2
 516 -250 516 -250 515 -251 c 0,3,4
 377 -269 377 -269 277 -269 c 0,5,6
 260 -269 260 -269 250.5 -268.5 c 128,-1,7
 241 -268 241 -268 239 -268 c 0,8,9
 124 -268 124 -268 82 -211 c 0,10,11
 44 -160 44 -160 44 -81 c 2,12,-1
 44 21 l 1,13,14
 43 111 43 111 110 151 c 0,15,16
 158 179 158 179 232 179 c 0,17,18
 261 179 261 179 294 175 c 1,19,-1
 294 276 l 1,20,-1
 354 276 l 1,21,-1
 355 128 l 1,22,23
 311 128 311 128 278.5 128 c 128,-1,24
 246 128 246 128 224 128 c 0,25,26
 173 127 173 127 142.5 97 c 128,-1,27
 112 67 112 67 110 16 c 1,28,29
 109 -71 109 -71 109 -85 c 0,30,31
 109 -144 109 -144 142.5 -177.5 c 128,-1,32
 176 -211 176 -211 245 -211 c 0,33,34
 248 -211 248 -211 251 -211 c 2,35,-1
 517 -210 l 2,0,1
362 451 m 2,36,-1
 362 395 l 1,37,38
 360 375 360 375 344 374 c 1,39,-1
 303 374 l 1,40,41
 287 378 287 378 286 395 c 1,42,-1
 286 449 l 2,43,44
 286 458 286 458 291.5 464 c 128,-1,45
 297 470 297 470 305 471 c 1,46,-1
 342 471 l 1,47,48
 362 470 362 470 362 451 c 2,36,-1
EndSplineSet
Substitution2: "'case' Case-Sensitive Forms lookup 18 subtable" questiondown.alt
Substitution2: "'smcp' Lowercase to Small Capitals lookup 1 subtable" questiondown.smcp
EndChar

StartChar: Agrave
Encoding: 192 192 129
Width: 666
GlyphClass: 2
Flags: W
LayerCount: 2
Fore
SplineSet
193 930 m 1,0,-1
 265 930 l 1,1,-1
 376 797 l 1,2,-1
 326 797 l 1,3,-1
 193 930 l 1,0,-1
50 0 m 1,4,-1
 321 732 l 1,5,-1
 382 732 l 1,6,-1
 640 0 l 1,7,-1
 573 0 l 1,8,-1
 501 221 l 1,9,-1
 195 221 l 1,10,-1
 119 0 l 1,11,-1
 50 0 l 1,4,-1
216 278 m 1,12,-1
 481 278 l 1,13,-1
 351 649 l 1,14,-1
 216 278 l 1,12,-1
EndSplineSet
Substitution2: "'c2sc' Capitals to Small Capitals in Latin lookup 2 subtable" agrave.smcp
EndChar

StartChar: Aacute
Encoding: 193 193 130
Width: 666
GlyphClass: 2
Flags: W
LayerCount: 2
Fore
SplineSet
326 797 m 1,0,-1
 438 930 l 1,1,-1
 509 930 l 1,2,-1
 376 797 l 1,3,-1
 326 797 l 1,0,-1
50 0 m 1,4,-1
 321 732 l 1,5,-1
 382 732 l 1,6,-1
 640 0 l 1,7,-1
 573 0 l 1,8,-1
 501 221 l 1,9,-1
 195 221 l 1,10,-1
 119 0 l 1,11,-1
 50 0 l 1,4,-1
216 278 m 1,12,-1
 481 278 l 1,13,-1
 351 649 l 1,14,-1
 216 278 l 1,12,-1
EndSplineSet
Substitution2: "'c2sc' Capitals to Small Capitals in Latin lookup 2 subtable" aacute.smcp
EndChar

StartChar: Acircumflex
Encoding: 194 194 131
Width: 666
GlyphClass: 2
Flags: W
LayerCount: 2
Fore
SplineSet
209 797 m 1,0,-1
 331 927 l 1,1,-1
 384 927 l 1,2,-1
 494 797 l 1,3,-1
 441 797 l 1,4,-1
 356 883 l 1,5,-1
 262 797 l 1,6,-1
 209 797 l 1,0,-1
50 0 m 1,7,-1
 321 732 l 1,8,-1
 382 732 l 1,9,-1
 640 0 l 1,10,-1
 573 0 l 1,11,-1
 501 221 l 1,12,-1
 195 221 l 1,13,-1
 119 0 l 1,14,-1
 50 0 l 1,7,-1
216 278 m 1,15,-1
 481 278 l 1,16,-1
 351 649 l 1,17,-1
 216 278 l 1,15,-1
EndSplineSet
Substitution2: "'c2sc' Capitals to Small Capitals in Latin lookup 2 subtable" acircumflex.smcp
EndChar

StartChar: Atilde
Encoding: 195 195 132
Width: 666
GlyphClass: 2
Flags: W
LayerCount: 2
Fore
SplineSet
444 805 m 0,0,1
 402 785 402 785 346 822 c 0,2,3
 311 845 311 845 294 845 c 128,-1,4
 277 845 277 845 262 839.5 c 128,-1,5
 247 834 247 834 227.5 822 c 128,-1,6
 208 810 208 810 198 805 c 1,7,-1
 182 835 l 1,8,9
 229 874 229 874 244 882 c 0,10,11
 275 897 275 897 295.5 896.5 c 128,-1,12
 316 896 316 896 338 884 c 128,-1,13
 360 872 360 872 379 860.5 c 128,-1,14
 398 849 398 849 407 849 c 128,-1,15
 416 849 416 849 422.5 850 c 128,-1,16
 429 851 429 851 436.5 854 c 128,-1,17
 444 857 444 857 449.5 859 c 128,-1,18
 455 861 455 861 464 866.5 c 128,-1,19
 473 872 473 872 477 874.5 c 128,-1,20
 481 877 481 877 491 883 c 128,-1,21
 501 889 501 889 504 890 c 1,22,-1
 520 860 l 1,23,24
 518 858 518 858 506.5 848.5 c 128,-1,25
 495 839 495 839 490.5 835.5 c 128,-1,26
 486 832 486 832 476 824 c 0,27,28
 464 815 464 815 444 805 c 0,0,1
50 0 m 1,29,-1
 321 732 l 1,30,-1
 382 732 l 1,31,-1
 640 0 l 1,32,-1
 573 0 l 1,33,-1
 501 221 l 1,34,-1
 195 221 l 1,35,-1
 119 0 l 1,36,-1
 50 0 l 1,29,-1
216 278 m 1,37,-1
 481 278 l 1,38,-1
 351 649 l 1,39,-1
 216 278 l 1,37,-1
EndSplineSet
Substitution2: "'c2sc' Capitals to Small Capitals in Latin lookup 2 subtable" atilde.smcp
EndChar

StartChar: Adieresis
Encoding: 196 196 133
Width: 666
GlyphClass: 2
Flags: W
LayerCount: 2
Fore
SplineSet
185 836.5 m 128,-1,1
 185 853 185 853 196.5 864.5 c 128,-1,2
 208 876 208 876 224.5 876 c 128,-1,3
 241 876 241 876 252 864.5 c 128,-1,4
 263 853 263 853 263 839.5 c 128,-1,5
 263 826 263 826 258 817 c 0,6,7
 247 797 247 797 227.5 797 c 128,-1,8
 208 797 208 797 196.5 808.5 c 128,-1,0
 185 820 185 820 185 836.5 c 128,-1,1
451 808.5 m 128,-1,10
 439 820 439 820 439 834 c 128,-1,11
 439 848 439 848 445 856 c 1,12,13
 456 876 456 876 476 876 c 128,-1,14
 496 876 496 876 507 864.5 c 128,-1,15
 518 853 518 853 518 836.5 c 128,-1,16
 518 820 518 820 506.5 808.5 c 128,-1,17
 495 797 495 797 479 797 c 128,-1,9
 463 797 463 797 451 808.5 c 128,-1,10
50 0 m 1,18,-1
 321 732 l 1,19,-1
 382 732 l 1,20,-1
 640 0 l 1,21,-1
 573 0 l 1,22,-1
 501 221 l 1,23,-1
 195 221 l 1,24,-1
 119 0 l 1,25,-1
 50 0 l 1,18,-1
216 278 m 1,26,-1
 481 278 l 1,27,-1
 351 649 l 1,28,-1
 216 278 l 1,26,-1
EndSplineSet
Substitution2: "'c2sc' Capitals to Small Capitals in Latin lookup 2 subtable" adieresis.smcp
EndChar

StartChar: Aring
Encoding: 197 197 134
Width: 666
GlyphClass: 2
Flags: W
LayerCount: 2
Fore
SplineSet
263.5 780.5 m 128,-1,1
 277 757 277 757 300.5 743.5 c 128,-1,2
 324 730 324 730 359 730 c 128,-1,3
 394 730 394 730 423.5 759.5 c 128,-1,4
 453 789 453 789 453 824.5 c 128,-1,5
 453 860 453 860 439.5 884 c 128,-1,6
 426 908 426 908 403 921.5 c 128,-1,7
 380 935 380 935 345 935 c 128,-1,8
 310 935 310 935 280 905 c 128,-1,9
 250 875 250 875 250 839.5 c 128,-1,0
 250 804 250 804 263.5 780.5 c 128,-1,1
286 832 m 128,-1,11
 286 859 286 859 305.5 878.5 c 128,-1,12
 325 898 325 898 352 898 c 128,-1,13
 379 898 379 898 398 878.5 c 128,-1,14
 417 859 417 859 417 832 c 128,-1,15
 417 805 417 805 398 786 c 128,-1,16
 379 767 379 767 352 767 c 128,-1,17
 325 767 325 767 305.5 786 c 128,-1,10
 286 805 286 805 286 832 c 128,-1,11
50 0 m 1,18,-1
 321 732 l 1,19,-1
 382 732 l 1,20,-1
 640 0 l 1,21,-1
 573 0 l 1,22,-1
 501 221 l 1,23,-1
 195 221 l 1,24,-1
 119 0 l 1,25,-1
 50 0 l 1,18,-1
216 278 m 1,26,-1
 481 278 l 1,27,-1
 351 649 l 1,28,-1
 216 278 l 1,26,-1
EndSplineSet
Substitution2: "'c2sc' Capitals to Small Capitals in Latin lookup 2 subtable" aring.smcp
EndChar

StartChar: AE
Encoding: 198 198 135
Width: 925
GlyphClass: 2
Flags: W
LayerCount: 2
Fore
SplineSet
552 732 m 0,0,1
 566 732 566 732 576 732 c 2,2,-1
 878 718 l 1,3,-1
 878 674 l 1,4,-1
 576 674 l 2,5,6
 528 674 528 674 517 655 c 0,7,8
 509 640 509 640 508.5 621.5 c 128,-1,9
 508 603 508 603 508 600 c 2,10,-1
 508 390 l 1,11,-1
 838 381 l 1,12,-1
 838 338 l 1,13,-1
 508 329 l 1,14,-1
 508 122 l 2,15,16
 508 88 508 88 517.5 78 c 128,-1,17
 527 68 527 68 533 64 c 128,-1,18
 539 60 539 60 550 58 c 0,19,20
 566 56 566 56 587 56 c 2,21,-1
 877 55 l 1,22,-1
 877 10 l 1,23,-1
 587 -4 l 2,24,25
 580 -5 580 -5 567 -5 c 128,-1,26
 554 -5 554 -5 535 -1.5 c 128,-1,27
 516 2 516 2 495 14 c 0,28,29
 451 40 451 40 451 121 c 2,30,-1
 451 236 l 1,31,-1
 225 236 l 1,32,-1
 97 0 l 1,33,-1
 33 0 l 1,34,-1
 358 599 l 2,35,36
 395 669 395 669 437 702 c 0,37,38
 476 732 476 732 552 732 c 0,0,1
451 293 m 1,39,-1
 451 654 l 1,40,-1
 255 293 l 1,41,-1
 451 293 l 1,39,-1
EndSplineSet
EndChar

StartChar: Ccedilla
Encoding: 199 199 136
Width: 575
GlyphClass: 2
Flags: W
LayerCount: 2
Fore
SplineSet
361 -36 m 1,0,1
 361 -114 361 -114 340.5 -143 c 128,-1,2
 320 -172 320 -172 260 -172 c 2,3,-1
 216 -172 l 1,4,-1
 216 -145 l 1,5,-1
 262 -134 l 1,6,7
 290 -126 290 -126 301 -104 c 128,-1,8
 312 -82 312 -82 311 -36 c 1,9,-1
 361 -36 l 1,0,1
61 368 m 0,10,11
 61 598 61 598 133 677 c 0,12,13
 191 740 191 740 305 740 c 0,14,15
 344 740 344 740 415.5 732.5 c 128,-1,16
 487 725 487 725 539 715 c 1,17,-1
 539 672 l 1,18,19
 539 672 539 672 530.5 672.5 c 128,-1,20
 522 673 522 673 508 674 c 128,-1,21
 494 675 494 675 475.5 676 c 128,-1,22
 457 677 457 677 435 678.5 c 128,-1,23
 413 680 413 680 392 681 c 0,24,25
 343 683 343 683 305 683 c 0,26,27
 236 683 236 683 197 657 c 0,28,29
 118 605 118 605 118 366 c 0,30,31
 118 51 118 51 305 51 c 0,32,33
 404 51 404 51 525 59 c 2,34,-1
 539 60 l 1,35,-1
 539 16 l 1,36,37
 489 7 489 7 418 0.5 c 128,-1,38
 347 -6 347 -6 305 -6 c 0,39,40
 61 -6 61 -6 61 368 c 0,10,11
EndSplineSet
Substitution2: "'c2sc' Capitals to Small Capitals in Latin lookup 2 subtable" ccedilla.smcp
EndChar

StartChar: Egrave
Encoding: 200 200 137
Width: 572
GlyphClass: 2
Flags: W
LayerCount: 2
Fore
SplineSet
184 925 m 1,0,-1
 256 925 l 1,1,-1
 367 792 l 1,2,-1
 317 792 l 1,3,-1
 184 925 l 1,0,-1
90 123 m 2,4,-1
 90 602 l 2,5,6
 90 671 90 671 124.5 701.5 c 128,-1,7
 159 732 159 732 208 732 c 0,8,9
 212 732 212 732 216 732 c 2,10,-1
 525 718 l 1,11,-1
 525 675 l 1,12,-1
 216 675 l 2,13,14
 177 675 177 675 162 656.5 c 128,-1,15
 147 638 147 638 147 602 c 2,16,-1
 147 393 l 1,17,-1
 485 385 l 1,18,-1
 485 341 l 1,19,-1
 147 333 l 1,20,-1
 147 123 l 2,21,22
 147 76 147 76 173 63 c 0,23,24
 193 54 193 54 226 54 c 2,25,-1
 525 54 l 1,26,-1
 525 12 l 1,27,-1
 226 -3 l 2,28,29
 218 -3 218 -3 205 -3 c 128,-1,30
 192 -3 192 -3 173 0.5 c 128,-1,31
 154 4 154 4 133 16 c 0,32,33
 90 42 90 42 90 123 c 2,4,-1
EndSplineSet
Substitution2: "'c2sc' Capitals to Small Capitals in Latin lookup 2 subtable" egrave.smcp
EndChar

StartChar: Eacute
Encoding: 201 201 138
Width: 572
GlyphClass: 2
Flags: W
LayerCount: 2
Fore
SplineSet
302 792 m 1,0,-1
 414 925 l 1,1,-1
 486 925 l 1,2,-1
 353 792 l 1,3,-1
 302 792 l 1,0,-1
90 123 m 2,4,-1
 90 602 l 2,5,6
 90 671 90 671 124.5 701.5 c 128,-1,7
 159 732 159 732 208 732 c 0,8,9
 212 732 212 732 216 732 c 2,10,-1
 525 718 l 1,11,-1
 525 675 l 1,12,-1
 216 675 l 2,13,14
 177 675 177 675 162 656.5 c 128,-1,15
 147 638 147 638 147 602 c 2,16,-1
 147 393 l 1,17,-1
 485 385 l 1,18,-1
 485 341 l 1,19,-1
 147 333 l 1,20,-1
 147 123 l 2,21,22
 147 76 147 76 173 63 c 0,23,24
 193 54 193 54 226 54 c 2,25,-1
 525 54 l 1,26,-1
 525 12 l 1,27,-1
 226 -3 l 2,28,29
 218 -3 218 -3 205 -3 c 128,-1,30
 192 -3 192 -3 173 0.5 c 128,-1,31
 154 4 154 4 133 16 c 0,32,33
 90 42 90 42 90 123 c 2,4,-1
EndSplineSet
Substitution2: "'c2sc' Capitals to Small Capitals in Latin lookup 2 subtable" eacute.smcp
EndChar

StartChar: Ecircumflex
Encoding: 202 202 139
Width: 572
GlyphClass: 2
Flags: W
LayerCount: 2
Fore
SplineSet
180 797 m 1,0,-1
 302 927 l 1,1,-1
 356 927 l 1,2,-1
 465 797 l 1,3,-1
 412 797 l 1,4,-1
 327 883 l 1,5,-1
 234 797 l 1,6,-1
 180 797 l 1,0,-1
90 123 m 2,7,-1
 90 602 l 2,8,9
 90 671 90 671 124.5 701.5 c 128,-1,10
 159 732 159 732 208 732 c 0,11,12
 212 732 212 732 216 732 c 2,13,-1
 525 718 l 1,14,-1
 525 675 l 1,15,-1
 216 675 l 2,16,17
 177 675 177 675 162 656.5 c 128,-1,18
 147 638 147 638 147 602 c 2,19,-1
 147 393 l 1,20,-1
 485 385 l 1,21,-1
 485 341 l 1,22,-1
 147 333 l 1,23,-1
 147 123 l 2,24,25
 147 76 147 76 173 63 c 0,26,27
 193 54 193 54 226 54 c 2,28,-1
 525 54 l 1,29,-1
 525 12 l 1,30,-1
 226 -3 l 2,31,32
 218 -3 218 -3 205 -3 c 128,-1,33
 192 -3 192 -3 173 0.5 c 128,-1,34
 154 4 154 4 133 16 c 0,35,36
 90 42 90 42 90 123 c 2,7,-1
EndSplineSet
Substitution2: "'c2sc' Capitals to Small Capitals in Latin lookup 2 subtable" ecircumflex.smcp
EndChar

StartChar: Edieresis
Encoding: 203 203 140
Width: 572
GlyphClass: 2
Flags: W
LayerCount: 2
Fore
SplineSet
164.5 815 m 128,-1,1
 153 827 153 827 153 840.5 c 128,-1,2
 153 854 153 854 158 863 c 0,3,4
 169 882 169 882 188.5 882 c 128,-1,5
 208 882 208 882 219.5 870.5 c 128,-1,6
 231 859 231 859 231 842.5 c 128,-1,7
 231 826 231 826 219.5 814.5 c 128,-1,8
 208 803 208 803 192 803 c 128,-1,0
 176 803 176 803 164.5 815 c 128,-1,1
407 843 m 128,-1,10
 407 859 407 859 419 870.5 c 128,-1,11
 431 882 431 882 447 882 c 128,-1,12
 463 882 463 882 474.5 870.5 c 128,-1,13
 486 859 486 859 486 842.5 c 128,-1,14
 486 826 486 826 474.5 814.5 c 128,-1,15
 463 803 463 803 447 803 c 128,-1,16
 431 803 431 803 419 815 c 128,-1,9
 407 827 407 827 407 843 c 128,-1,10
90 123 m 2,17,-1
 90 602 l 2,18,19
 90 671 90 671 124.5 701.5 c 128,-1,20
 159 732 159 732 208 732 c 0,21,22
 212 732 212 732 216 732 c 2,23,-1
 525 718 l 1,24,-1
 525 675 l 1,25,-1
 216 675 l 2,26,27
 177 675 177 675 162 656.5 c 128,-1,28
 147 638 147 638 147 602 c 2,29,-1
 147 393 l 1,30,-1
 485 385 l 1,31,-1
 485 341 l 1,32,-1
 147 333 l 1,33,-1
 147 123 l 2,34,35
 147 76 147 76 173 63 c 0,36,37
 193 54 193 54 226 54 c 2,38,-1
 525 54 l 1,39,-1
 525 12 l 1,40,-1
 226 -3 l 2,41,42
 218 -3 218 -3 205 -3 c 128,-1,43
 192 -3 192 -3 173 0.5 c 128,-1,44
 154 4 154 4 133 16 c 0,45,46
 90 42 90 42 90 123 c 2,17,-1
EndSplineSet
Substitution2: "'c2sc' Capitals to Small Capitals in Latin lookup 2 subtable" edieresis.smcp
EndChar

StartChar: Igrave
Encoding: 204 204 141
Width: 209
GlyphClass: 2
Flags: W
LayerCount: 2
Fore
SplineSet
-40 930 m 1,0,-1
 31 930 l 1,1,-1
 143 797 l 1,2,-1
 93 797 l 1,3,-1
 -40 930 l 1,0,-1
90 0 m 1,4,-1
 90 732 l 1,5,-1
 147 732 l 1,6,-1
 147 0 l 1,7,-1
 90 0 l 1,4,-1
EndSplineSet
Substitution2: "'c2sc' Capitals to Small Capitals in Latin lookup 2 subtable" igrave.smcp
EndChar

StartChar: Iacute
Encoding: 205 205 142
Width: 209
GlyphClass: 2
Flags: W
LayerCount: 2
Fore
SplineSet
93 797 m 1,0,-1
 205 930 l 1,1,-1
 276 930 l 1,2,-1
 143 797 l 1,3,-1
 93 797 l 1,0,-1
90 0 m 1,4,-1
 90 732 l 1,5,-1
 147 732 l 1,6,-1
 147 0 l 1,7,-1
 90 0 l 1,4,-1
EndSplineSet
Substitution2: "'c2sc' Capitals to Small Capitals in Latin lookup 2 subtable" iacute.smcp
EndChar

StartChar: Icircumflex
Encoding: 206 206 143
Width: 209
GlyphClass: 2
Flags: W
LayerCount: 2
Fore
SplineSet
-25 797 m 1,0,-1
 98 927 l 1,1,-1
 151 927 l 1,2,-1
 261 797 l 1,3,-1
 208 797 l 1,4,-1
 123 883 l 1,5,-1
 29 797 l 1,6,-1
 -25 797 l 1,0,-1
90 0 m 1,7,-1
 90 732 l 1,8,-1
 147 732 l 1,9,-1
 147 0 l 1,10,-1
 90 0 l 1,7,-1
EndSplineSet
Substitution2: "'c2sc' Capitals to Small Capitals in Latin lookup 2 subtable" icircumflex.smcp
EndChar

StartChar: Idieresis
Encoding: 207 207 144
Width: 209
GlyphClass: 2
Flags: W
LayerCount: 2
Fore
SplineSet
-49 836.5 m 128,-1,1
 -49 853 -49 853 -37.5 864.5 c 128,-1,2
 -26 876 -26 876 -9.5 876 c 128,-1,3
 7 876 7 876 18.5 864.5 c 128,-1,4
 30 853 30 853 30 836.5 c 128,-1,5
 30 820 30 820 18.5 808.5 c 128,-1,6
 7 797 7 797 -9.5 797 c 128,-1,7
 -26 797 -26 797 -37.5 808.5 c 128,-1,0
 -49 820 -49 820 -49 836.5 c 128,-1,1
206 836.5 m 128,-1,9
 206 853 206 853 217.5 864.5 c 128,-1,10
 229 876 229 876 245.5 876 c 128,-1,11
 262 876 262 876 273.5 864.5 c 128,-1,12
 285 853 285 853 285 836.5 c 128,-1,13
 285 820 285 820 273.5 808.5 c 128,-1,14
 262 797 262 797 245.5 797 c 128,-1,15
 229 797 229 797 217.5 808.5 c 128,-1,8
 206 820 206 820 206 836.5 c 128,-1,9
90 0 m 1,16,-1
 90 732 l 1,17,-1
 147 732 l 1,18,-1
 147 0 l 1,19,-1
 90 0 l 1,16,-1
EndSplineSet
Substitution2: "'c2sc' Capitals to Small Capitals in Latin lookup 2 subtable" idieresis.smcp
EndChar

StartChar: Eth
Encoding: 208 208 145
Width: 661
GlyphClass: 2
Flags: W
LayerCount: 2
Fore
SplineSet
25 353 m 1,0,-1
 25 393 l 1,1,-1
 90 393 l 1,2,-1
 90 731 l 2,3,4
 90 732 90 732 352 732 c 0,5,6
 484 732 484 732 549 634 c 1,7,8
 611 538 611 538 611 363 c 0,9,10
 611 277 611 277 586.5 195 c 128,-1,11
 562 113 562 113 504 57 c 0,12,13
 445 0 445 0 352 0 c 2,14,-1
 90 0 l 1,15,-1
 90 353 l 1,16,-1
 25 353 l 1,0,-1
552 364 m 0,17,18
 552 522 552 522 500 597 c 128,-1,19
 448 672 448 672 352 672 c 2,20,-1
 147 671 l 1,21,-1
 147 393 l 1,22,-1
 292 393 l 1,23,-1
 292 353 l 1,24,-1
 147 353 l 1,25,-1
 147 59 l 1,26,-1
 352 59 l 2,27,28
 404 59 404 59 444 85 c 128,-1,29
 484 111 484 111 507 155 c 0,30,31
 552 243 552 243 552 364 c 0,17,18
EndSplineSet
Substitution2: "'c2sc' Capitals to Small Capitals in Latin lookup 2 subtable" eth.smcp
EndChar

StartChar: Ntilde
Encoding: 209 209 146
Width: 674
GlyphClass: 2
Flags: W
LayerCount: 2
Fore
SplineSet
365 810 m 0,0,1
 344 822 344 822 326.5 833.5 c 128,-1,2
 309 845 309 845 302 845 c 128,-1,3
 295 845 295 845 287.5 845 c 128,-1,4
 280 845 280 845 266.5 841 c 128,-1,5
 253 837 253 837 244.5 832 c 128,-1,6
 236 827 236 827 221.5 818.5 c 128,-1,7
 207 810 207 810 197 805 c 1,8,-1
 182 835 l 1,9,10
 207 856 207 856 221 866 c 0,11,12
 261 897 261 897 291 896 c 128,-1,13
 321 895 321 895 358.5 872 c 128,-1,14
 396 849 396 849 405.5 849 c 128,-1,15
 415 849 415 849 421.5 850 c 128,-1,16
 428 851 428 851 435.5 854 c 128,-1,17
 443 857 443 857 449 859 c 128,-1,18
 455 861 455 861 464 866.5 c 128,-1,19
 473 872 473 872 477 874.5 c 128,-1,20
 481 877 481 877 491 883 c 128,-1,21
 501 889 501 889 503 890 c 1,22,-1
 520 860 l 1,23,24
 517 858 517 858 506 848.5 c 128,-1,25
 495 839 495 839 490.5 835.5 c 128,-1,26
 486 832 486 832 475.5 824 c 128,-1,27
 465 816 465 816 458.5 812.5 c 128,-1,28
 452 809 452 809 443 805 c 0,29,30
 406 787 406 787 365 810 c 0,0,1
90 0 m 1,31,-1
 90 732 l 1,32,-1
 148 732 l 1,33,-1
 555 107 l 1,34,-1
 555 732 l 1,35,-1
 612 732 l 1,36,-1
 612 0 l 1,37,-1
 555 0 l 1,38,-1
 147 625 l 1,39,-1
 147 0 l 1,40,-1
 90 0 l 1,31,-1
EndSplineSet
AlternateSubs2: "'salt' Stylistic Alternatives in Latin lookup 16 subtable" Ntilde.salt
Substitution2: "'c2sc' Capitals to Small Capitals in Latin lookup 2 subtable" ntilde.smcp
EndChar

StartChar: Ograve
Encoding: 210 210 147
Width: 675
GlyphClass: 2
Flags: W
LayerCount: 2
Fore
SplineSet
193 930 m 1,0,-1
 265 930 l 1,1,-1
 377 797 l 1,2,-1
 326 797 l 1,3,-1
 193 930 l 1,0,-1
73 362 m 0,4,5
 73 433 73 433 80 489.5 c 128,-1,6
 87 546 87 546 98.5 585.5 c 128,-1,7
 110 625 110 625 129.5 653 c 128,-1,8
 149 681 149 681 170 697 c 128,-1,9
 191 713 191 713 222 722 c 0,10,11
 273 737 273 737 333 737 c 128,-1,12
 393 737 393 737 422 734 c 128,-1,13
 451 731 451 731 482 722 c 128,-1,14
 513 713 513 713 533.5 697 c 128,-1,15
 554 681 554 681 573.5 653 c 128,-1,16
 593 625 593 625 604 586 c 0,17,18
 629 499 629 499 629 390 c 128,-1,19
 629 281 629 281 621 222 c 128,-1,20
 613 163 613 163 596 123 c 128,-1,21
 579 83 579 83 558 57.5 c 128,-1,22
 537 32 537 32 503 19 c 0,23,24
 446 -4 446 -4 351 -4 c 0,25,26
 216 -4 216 -4 166 35 c 0,27,28
 115 74 115 74 96 143 c 0,29,30
 73 227 73 227 73 362 c 0,4,5
136 493 m 128,-1,32
 130 438 130 438 130 370 c 128,-1,33
 130 302 130 302 133.5 258.5 c 128,-1,34
 137 215 137 215 144.5 181.5 c 128,-1,35
 152 148 152 148 165.5 126 c 128,-1,36
 179 104 179 104 195 89 c 128,-1,37
 211 74 211 74 235 67 c 0,38,39
 279 53 279 53 341 53 c 128,-1,40
 403 53 403 53 436.5 59.5 c 128,-1,41
 470 66 470 66 498 84.5 c 128,-1,42
 526 103 526 103 541 138 c 0,43,44
 572 210 572 210 572 361 c 0,45,46
 572 518 572 518 546 580 c 0,47,48
 537 604 537 604 527.5 620.5 c 128,-1,49
 518 637 518 637 502 648 c 128,-1,50
 486 659 486 659 472.5 665.5 c 128,-1,51
 459 672 459 672 437 675 c 0,52,53
 403 680 403 680 356 680 c 128,-1,54
 309 680 309 680 286 678 c 128,-1,55
 263 676 263 676 233 667 c 128,-1,56
 203 658 203 658 188 637.5 c 128,-1,57
 173 617 173 617 157.5 582.5 c 128,-1,31
 142 548 142 548 136 493 c 128,-1,32
EndSplineSet
Substitution2: "'c2sc' Capitals to Small Capitals in Latin lookup 2 subtable" ograve.smcp
EndChar

StartChar: Oacute
Encoding: 211 211 148
Width: 675
GlyphClass: 2
Flags: W
LayerCount: 2
Fore
SplineSet
326 797 m 1,0,-1
 438 930 l 1,1,-1
 510 930 l 1,2,-1
 377 797 l 1,3,-1
 326 797 l 1,0,-1
73 362 m 0,4,5
 73 433 73 433 80 489.5 c 128,-1,6
 87 546 87 546 98.5 585.5 c 128,-1,7
 110 625 110 625 129.5 653 c 128,-1,8
 149 681 149 681 170 697 c 128,-1,9
 191 713 191 713 222 722 c 0,10,11
 273 737 273 737 333 737 c 128,-1,12
 393 737 393 737 422 734 c 128,-1,13
 451 731 451 731 482 722 c 128,-1,14
 513 713 513 713 533.5 697 c 128,-1,15
 554 681 554 681 573.5 653 c 128,-1,16
 593 625 593 625 604 586 c 0,17,18
 629 499 629 499 629 390 c 128,-1,19
 629 281 629 281 621 222 c 128,-1,20
 613 163 613 163 596 123 c 128,-1,21
 579 83 579 83 558 57.5 c 128,-1,22
 537 32 537 32 503 19 c 0,23,24
 446 -4 446 -4 351 -4 c 0,25,26
 216 -4 216 -4 166 35 c 0,27,28
 115 74 115 74 96 143 c 0,29,30
 73 227 73 227 73 362 c 0,4,5
136 493 m 128,-1,32
 130 438 130 438 130 370 c 128,-1,33
 130 302 130 302 133.5 258.5 c 128,-1,34
 137 215 137 215 144.5 181.5 c 128,-1,35
 152 148 152 148 165.5 126 c 128,-1,36
 179 104 179 104 195 89 c 128,-1,37
 211 74 211 74 235 67 c 0,38,39
 279 53 279 53 341 53 c 128,-1,40
 403 53 403 53 436.5 59.5 c 128,-1,41
 470 66 470 66 498 84.5 c 128,-1,42
 526 103 526 103 541 138 c 0,43,44
 572 210 572 210 572 361 c 0,45,46
 572 518 572 518 546 580 c 0,47,48
 537 604 537 604 527.5 620.5 c 128,-1,49
 518 637 518 637 502 648 c 128,-1,50
 486 659 486 659 472.5 665.5 c 128,-1,51
 459 672 459 672 437 675 c 0,52,53
 403 680 403 680 356 680 c 128,-1,54
 309 680 309 680 286 678 c 128,-1,55
 263 676 263 676 233 667 c 128,-1,56
 203 658 203 658 188 637.5 c 128,-1,57
 173 617 173 617 157.5 582.5 c 128,-1,31
 142 548 142 548 136 493 c 128,-1,32
EndSplineSet
Substitution2: "'c2sc' Capitals to Small Capitals in Latin lookup 2 subtable" oacute.smcp
EndChar

StartChar: Ocircumflex
Encoding: 212 212 149
Width: 675
GlyphClass: 2
Flags: W
LayerCount: 2
Fore
SplineSet
209 797 m 1,0,-1
 331 927 l 1,1,-1
 385 927 l 1,2,-1
 494 797 l 1,3,-1
 441 797 l 1,4,-1
 356 883 l 1,5,-1
 262 797 l 1,6,-1
 209 797 l 1,0,-1
73 362 m 0,7,8
 73 433 73 433 80 489.5 c 128,-1,9
 87 546 87 546 98.5 585.5 c 128,-1,10
 110 625 110 625 129.5 653 c 128,-1,11
 149 681 149 681 170 697 c 128,-1,12
 191 713 191 713 222 722 c 0,13,14
 273 737 273 737 333 737 c 128,-1,15
 393 737 393 737 422 734 c 128,-1,16
 451 731 451 731 482 722 c 128,-1,17
 513 713 513 713 533.5 697 c 128,-1,18
 554 681 554 681 573.5 653 c 128,-1,19
 593 625 593 625 604 586 c 0,20,21
 629 499 629 499 629 390 c 128,-1,22
 629 281 629 281 621 222 c 128,-1,23
 613 163 613 163 596 123 c 128,-1,24
 579 83 579 83 558 57.5 c 128,-1,25
 537 32 537 32 503 19 c 0,26,27
 446 -4 446 -4 351 -4 c 0,28,29
 216 -4 216 -4 166 35 c 0,30,31
 115 74 115 74 96 143 c 0,32,33
 73 227 73 227 73 362 c 0,7,8
136 493 m 128,-1,35
 130 438 130 438 130 370 c 128,-1,36
 130 302 130 302 133.5 258.5 c 128,-1,37
 137 215 137 215 144.5 181.5 c 128,-1,38
 152 148 152 148 165.5 126 c 128,-1,39
 179 104 179 104 195 89 c 128,-1,40
 211 74 211 74 235 67 c 0,41,42
 279 53 279 53 341 53 c 128,-1,43
 403 53 403 53 436.5 59.5 c 128,-1,44
 470 66 470 66 498 84.5 c 128,-1,45
 526 103 526 103 541 138 c 0,46,47
 572 210 572 210 572 361 c 0,48,49
 572 518 572 518 546 580 c 0,50,51
 537 604 537 604 527.5 620.5 c 128,-1,52
 518 637 518 637 502 648 c 128,-1,53
 486 659 486 659 472.5 665.5 c 128,-1,54
 459 672 459 672 437 675 c 0,55,56
 403 680 403 680 356 680 c 128,-1,57
 309 680 309 680 286 678 c 128,-1,58
 263 676 263 676 233 667 c 128,-1,59
 203 658 203 658 188 637.5 c 128,-1,60
 173 617 173 617 157.5 582.5 c 128,-1,34
 142 548 142 548 136 493 c 128,-1,35
EndSplineSet
Substitution2: "'c2sc' Capitals to Small Capitals in Latin lookup 2 subtable" ocircumflex.smcp
EndChar

StartChar: Otilde
Encoding: 213 213 150
Width: 675
GlyphClass: 2
Flags: W
LayerCount: 2
Fore
SplineSet
182 835 m 1,0,1
 207 856 207 856 221 866 c 0,2,3
 261 897 261 897 288.5 896.5 c 128,-1,4
 316 896 316 896 338 884 c 128,-1,5
 360 872 360 872 379 860.5 c 128,-1,6
 398 849 398 849 407 849 c 128,-1,7
 416 849 416 849 422.5 850 c 128,-1,8
 429 851 429 851 436.5 854 c 128,-1,9
 444 857 444 857 449.5 859 c 128,-1,10
 455 861 455 861 464 866.5 c 128,-1,11
 473 872 473 872 477 874.5 c 128,-1,12
 481 877 481 877 491 883 c 128,-1,13
 501 889 501 889 504 890 c 1,14,-1
 520 860 l 1,15,16
 518 858 518 858 506.5 848.5 c 128,-1,17
 495 839 495 839 490.5 835.5 c 128,-1,18
 486 832 486 832 476 824 c 128,-1,19
 466 816 466 816 459.5 812.5 c 128,-1,20
 453 809 453 809 444 805 c 0,21,22
 397 783 397 783 346 822 c 0,23,24
 315 845 315 845 295.5 845 c 128,-1,25
 276 845 276 845 261.5 839.5 c 128,-1,26
 247 834 247 834 227.5 822 c 128,-1,27
 208 810 208 810 198 805 c 1,28,-1
 182 835 l 1,0,1
73 362 m 0,29,30
 73 433 73 433 80 489.5 c 128,-1,31
 87 546 87 546 98.5 585.5 c 128,-1,32
 110 625 110 625 129.5 653 c 128,-1,33
 149 681 149 681 170 697 c 128,-1,34
 191 713 191 713 222 722 c 0,35,36
 273 737 273 737 333 737 c 128,-1,37
 393 737 393 737 422 734 c 128,-1,38
 451 731 451 731 482 722 c 128,-1,39
 513 713 513 713 533.5 697 c 128,-1,40
 554 681 554 681 573.5 653 c 128,-1,41
 593 625 593 625 604 586 c 0,42,43
 629 499 629 499 629 390 c 128,-1,44
 629 281 629 281 621 222 c 128,-1,45
 613 163 613 163 596 123 c 128,-1,46
 579 83 579 83 558 57.5 c 128,-1,47
 537 32 537 32 503 19 c 0,48,49
 446 -4 446 -4 351 -4 c 0,50,51
 216 -4 216 -4 166 35 c 0,52,53
 115 74 115 74 96 143 c 0,54,55
 73 227 73 227 73 362 c 0,29,30
136 493 m 128,-1,57
 130 438 130 438 130 370 c 128,-1,58
 130 302 130 302 133.5 258.5 c 128,-1,59
 137 215 137 215 144.5 181.5 c 128,-1,60
 152 148 152 148 165.5 126 c 128,-1,61
 179 104 179 104 195 89 c 128,-1,62
 211 74 211 74 235 67 c 0,63,64
 279 53 279 53 341 53 c 128,-1,65
 403 53 403 53 436.5 59.5 c 128,-1,66
 470 66 470 66 498 84.5 c 128,-1,67
 526 103 526 103 541 138 c 0,68,69
 572 210 572 210 572 361 c 0,70,71
 572 518 572 518 546 580 c 0,72,73
 537 604 537 604 527.5 620.5 c 128,-1,74
 518 637 518 637 502 648 c 128,-1,75
 486 659 486 659 472.5 665.5 c 128,-1,76
 459 672 459 672 437 675 c 0,77,78
 403 680 403 680 356 680 c 128,-1,79
 309 680 309 680 286 678 c 128,-1,80
 263 676 263 676 233 667 c 128,-1,81
 203 658 203 658 188 637.5 c 128,-1,82
 173 617 173 617 157.5 582.5 c 128,-1,56
 142 548 142 548 136 493 c 128,-1,57
EndSplineSet
Substitution2: "'c2sc' Capitals to Small Capitals in Latin lookup 2 subtable" otilde.smcp
EndChar

StartChar: Odieresis
Encoding: 214 214 151
Width: 675
GlyphClass: 2
Flags: W
LayerCount: 2
Fore
SplineSet
185 836.5 m 128,-1,1
 185 853 185 853 196.5 864.5 c 128,-1,2
 208 876 208 876 224.5 876 c 128,-1,3
 241 876 241 876 252 864.5 c 128,-1,4
 263 853 263 853 263 839.5 c 128,-1,5
 263 826 263 826 258 817 c 0,6,7
 247 797 247 797 227.5 797 c 128,-1,8
 208 797 208 797 196.5 808.5 c 128,-1,0
 185 820 185 820 185 836.5 c 128,-1,1
451 808.5 m 128,-1,10
 439 820 439 820 439 834 c 128,-1,11
 439 848 439 848 445 856 c 1,12,13
 456 876 456 876 476 876 c 128,-1,14
 496 876 496 876 507 864.5 c 128,-1,15
 518 853 518 853 518 836.5 c 128,-1,16
 518 820 518 820 507 808.5 c 128,-1,17
 496 797 496 797 479.5 797 c 128,-1,9
 463 797 463 797 451 808.5 c 128,-1,10
73 362 m 0,18,19
 73 433 73 433 80 489.5 c 128,-1,20
 87 546 87 546 98.5 585.5 c 128,-1,21
 110 625 110 625 129.5 653 c 128,-1,22
 149 681 149 681 170 697 c 128,-1,23
 191 713 191 713 222 722 c 0,24,25
 273 737 273 737 333 737 c 128,-1,26
 393 737 393 737 422 734 c 128,-1,27
 451 731 451 731 482 722 c 128,-1,28
 513 713 513 713 533.5 697 c 128,-1,29
 554 681 554 681 573.5 653 c 128,-1,30
 593 625 593 625 604 586 c 0,31,32
 629 499 629 499 629 390 c 128,-1,33
 629 281 629 281 621 222 c 128,-1,34
 613 163 613 163 596 123 c 128,-1,35
 579 83 579 83 558 57.5 c 128,-1,36
 537 32 537 32 503 19 c 0,37,38
 446 -4 446 -4 351 -4 c 0,39,40
 216 -4 216 -4 166 35 c 0,41,42
 115 74 115 74 96 143 c 0,43,44
 73 227 73 227 73 362 c 0,18,19
136 493 m 128,-1,46
 130 438 130 438 130 370 c 128,-1,47
 130 302 130 302 133.5 258.5 c 128,-1,48
 137 215 137 215 144.5 181.5 c 128,-1,49
 152 148 152 148 165.5 126 c 128,-1,50
 179 104 179 104 195 89 c 128,-1,51
 211 74 211 74 235 67 c 0,52,53
 279 53 279 53 341 53 c 128,-1,54
 403 53 403 53 436.5 59.5 c 128,-1,55
 470 66 470 66 498 84.5 c 128,-1,56
 526 103 526 103 541 138 c 0,57,58
 572 210 572 210 572 361 c 0,59,60
 572 518 572 518 546 580 c 0,61,62
 537 604 537 604 527.5 620.5 c 128,-1,63
 518 637 518 637 502 648 c 128,-1,64
 486 659 486 659 472.5 665.5 c 128,-1,65
 459 672 459 672 437 675 c 0,66,67
 403 680 403 680 356 680 c 128,-1,68
 309 680 309 680 286 678 c 128,-1,69
 263 676 263 676 233 667 c 128,-1,70
 203 658 203 658 188 637.5 c 128,-1,71
 173 617 173 617 157.5 582.5 c 128,-1,45
 142 548 142 548 136 493 c 128,-1,46
EndSplineSet
Substitution2: "'c2sc' Capitals to Small Capitals in Latin lookup 2 subtable" odieresis.smcp
EndChar

StartChar: multiply
Encoding: 215 215 152
Width: 451
GlyphClass: 2
Flags: W
LayerCount: 2
Fore
SplineSet
63 233 m 1,0,-1
 186 355 l 1,1,-1
 63 479 l 1,2,-1
 103 519 l 1,3,-1
 226 396 l 1,4,-1
 350 519 l 1,5,-1
 390 479 l 1,6,-1
 266 355 l 1,7,-1
 390 233 l 1,8,-1
 350 192 l 1,9,-1
 226 315 l 1,10,-1
 104 193 l 1,11,-1
 63 233 l 1,0,-1
EndSplineSet
EndChar

StartChar: Oslash
Encoding: 216 216 153
Width: 675
GlyphClass: 2
Flags: W
LayerCount: 2
Fore
SplineSet
73 361 m 0,0,1
 73 492 73 492 92 565 c 0,2,3
 114 646 114 646 148 678 c 0,4,5
 188 716 188 716 235 727 c 1,6,7
 283 737 283 737 349.5 737 c 128,-1,8
 416 737 416 737 460 728.5 c 128,-1,9
 504 720 504 720 536 694 c 1,10,-1
 561 732 l 1,11,-1
 607 732 l 1,12,-1
 564 666 l 1,13,14
 629 583 629 583 629 361 c 0,15,16
 629 199 629 199 596 123 c 0,17,18
 579 83 579 83 557.5 57.5 c 128,-1,19
 536 32 536 32 502 19 c 0,20,21
 445 -4 445 -4 364 -4 c 128,-1,22
 283 -4 283 -4 238.5 4.5 c 128,-1,23
 194 13 194 13 162 38 c 1,24,-1
 137 0 l 1,25,-1
 90 0 l 1,26,-1
 133 67 l 1,27,28
 73 146 73 146 73 361 c 0,0,1
168 122 m 1,29,-1
 505 645 l 1,30,31
 480 667 480 667 445 673.5 c 128,-1,32
 410 680 410 680 359 680 c 128,-1,33
 308 680 308 680 285.5 678 c 128,-1,34
 263 676 263 676 233 667 c 128,-1,35
 203 658 203 658 188 637.5 c 128,-1,36
 173 617 173 617 157 582 c 0,37,38
 130 521 130 521 130 353.5 c 128,-1,39
 130 186 130 186 168 122 c 1,29,-1
194 90 m 1,40,41
 238 53 238 53 351 53 c 0,42,43
 402 53 402 53 436 59.5 c 128,-1,44
 470 66 470 66 498 84.5 c 128,-1,45
 526 103 526 103 541 138 c 0,46,47
 572 210 572 210 572 377.5 c 128,-1,48
 572 545 572 545 531 613 c 1,49,-1
 194 90 l 1,40,41
EndSplineSet
Substitution2: "'c2sc' Capitals to Small Capitals in Latin lookup 2 subtable" oslash.smcp
EndChar

StartChar: Ugrave
Encoding: 217 217 154
Width: 679
GlyphClass: 2
Flags: W
LayerCount: 2
Fore
SplineSet
195 930 m 1,0,-1
 266 930 l 1,1,-1
 378 797 l 1,2,-1
 328 797 l 1,3,-1
 195 930 l 1,0,-1
355 -5 m 2,4,-1
 344 -5 l 2,5,6
 226 -5 226 -5 189 20 c 0,7,8
 172 32 172 32 150 55.5 c 128,-1,9
 128 79 128 79 117 113 c 0,10,11
 90 198 90 198 90 320 c 2,12,-1
 90 732 l 1,13,-1
 147 732 l 1,14,-1
 147 320 l 2,15,16
 147 151 147 151 190 102 c 0,17,18
 206 83 206 83 219 73 c 0,19,20
 242 55 242 55 301 53 c 0,21,22
 317 52 317 52 350 52 c 2,23,-1
 355 52 l 2,24,25
 428 52 428 52 448.5 60 c 128,-1,26
 469 68 469 68 484.5 77.5 c 128,-1,27
 500 87 500 87 509.5 100.5 c 128,-1,28
 519 114 519 114 529.5 134.5 c 128,-1,29
 540 155 540 155 546 181 c 0,30,31
 559 241 559 241 559 320 c 2,32,-1
 559 732 l 1,33,-1
 616 732 l 1,34,-1
 616 320 l 2,35,36
 616 124 616 124 551 57 c 0,37,38
 528 33 528 33 509.5 21 c 128,-1,39
 491 9 491 9 459 3 c 0,40,41
 418 -5 418 -5 355 -5 c 2,4,-1
EndSplineSet
Substitution2: "'c2sc' Capitals to Small Capitals in Latin lookup 2 subtable" ugrave.smcp
EndChar

StartChar: Uacute
Encoding: 218 218 155
Width: 679
GlyphClass: 2
Flags: W
LayerCount: 2
Fore
SplineSet
328 797 m 1,0,-1
 440 930 l 1,1,-1
 511 930 l 1,2,-1
 378 797 l 1,3,-1
 328 797 l 1,0,-1
355 -5 m 2,4,-1
 344 -5 l 2,5,6
 226 -5 226 -5 189 20 c 0,7,8
 172 32 172 32 150 55.5 c 128,-1,9
 128 79 128 79 117 113 c 0,10,11
 90 198 90 198 90 320 c 2,12,-1
 90 732 l 1,13,-1
 147 732 l 1,14,-1
 147 320 l 2,15,16
 147 151 147 151 190 102 c 0,17,18
 206 83 206 83 219 73 c 0,19,20
 242 55 242 55 301 53 c 0,21,22
 317 52 317 52 350 52 c 2,23,-1
 355 52 l 2,24,25
 428 52 428 52 448.5 60 c 128,-1,26
 469 68 469 68 484.5 77.5 c 128,-1,27
 500 87 500 87 509.5 100.5 c 128,-1,28
 519 114 519 114 529.5 134.5 c 128,-1,29
 540 155 540 155 546 181 c 0,30,31
 559 241 559 241 559 320 c 2,32,-1
 559 732 l 1,33,-1
 616 732 l 1,34,-1
 616 320 l 2,35,36
 616 124 616 124 551 57 c 0,37,38
 528 33 528 33 509.5 21 c 128,-1,39
 491 9 491 9 459 3 c 0,40,41
 418 -5 418 -5 355 -5 c 2,4,-1
EndSplineSet
Substitution2: "'c2sc' Capitals to Small Capitals in Latin lookup 2 subtable" uacute.smcp
EndChar

StartChar: Ucircumflex
Encoding: 219 219 156
Width: 679
GlyphClass: 2
Flags: W
LayerCount: 2
Fore
SplineSet
210 797 m 1,0,-1
 332 927 l 1,1,-1
 386 927 l 1,2,-1
 496 797 l 1,3,-1
 443 797 l 1,4,-1
 358 883 l 1,5,-1
 264 797 l 1,6,-1
 210 797 l 1,0,-1
355 -5 m 2,7,-1
 344 -5 l 2,8,9
 226 -5 226 -5 189 20 c 0,10,11
 172 32 172 32 150 55.5 c 128,-1,12
 128 79 128 79 117 113 c 0,13,14
 90 198 90 198 90 320 c 2,15,-1
 90 732 l 1,16,-1
 147 732 l 1,17,-1
 147 320 l 2,18,19
 147 151 147 151 190 102 c 0,20,21
 206 83 206 83 219 73 c 0,22,23
 242 55 242 55 301 53 c 0,24,25
 317 52 317 52 350 52 c 2,26,-1
 355 52 l 2,27,28
 428 52 428 52 448.5 60 c 128,-1,29
 469 68 469 68 484.5 77.5 c 128,-1,30
 500 87 500 87 509.5 100.5 c 128,-1,31
 519 114 519 114 529.5 134.5 c 128,-1,32
 540 155 540 155 546 181 c 0,33,34
 559 241 559 241 559 320 c 2,35,-1
 559 732 l 1,36,-1
 616 732 l 1,37,-1
 616 320 l 2,38,39
 616 124 616 124 551 57 c 0,40,41
 528 33 528 33 509.5 21 c 128,-1,42
 491 9 491 9 459 3 c 0,43,44
 418 -5 418 -5 355 -5 c 2,7,-1
EndSplineSet
Substitution2: "'c2sc' Capitals to Small Capitals in Latin lookup 2 subtable" ucircumflex.smcp
EndChar

StartChar: Udieresis
Encoding: 220 220 157
Width: 679
GlyphClass: 2
Flags: W
LayerCount: 2
Fore
SplineSet
186 836.5 m 128,-1,1
 186 853 186 853 197.5 864.5 c 128,-1,2
 209 876 209 876 225.5 876 c 128,-1,3
 242 876 242 876 253.5 864.5 c 128,-1,4
 265 853 265 853 265 836.5 c 128,-1,5
 265 820 265 820 253.5 808.5 c 128,-1,6
 242 797 242 797 225.5 797 c 128,-1,7
 209 797 209 797 197.5 808.5 c 128,-1,0
 186 820 186 820 186 836.5 c 128,-1,1
452.5 808.5 m 128,-1,9
 441 820 441 820 441 834 c 128,-1,10
 441 848 441 848 446 856 c 0,11,12
 458 876 458 876 477.5 876 c 128,-1,13
 497 876 497 876 508.5 864.5 c 128,-1,14
 520 853 520 853 520 836.5 c 128,-1,15
 520 820 520 820 508.5 808.5 c 128,-1,16
 497 797 497 797 480.5 797 c 128,-1,8
 464 797 464 797 452.5 808.5 c 128,-1,9
355 -5 m 2,17,-1
 344 -5 l 2,18,19
 226 -5 226 -5 189 20 c 0,20,21
 172 32 172 32 150 55.5 c 128,-1,22
 128 79 128 79 117 113 c 0,23,24
 90 198 90 198 90 320 c 2,25,-1
 90 732 l 1,26,-1
 147 732 l 1,27,-1
 147 320 l 2,28,29
 147 151 147 151 190 102 c 0,30,31
 206 83 206 83 219 73 c 0,32,33
 242 55 242 55 301 53 c 0,34,35
 317 52 317 52 350 52 c 2,36,-1
 355 52 l 2,37,38
 428 52 428 52 448.5 60 c 128,-1,39
 469 68 469 68 484.5 77.5 c 128,-1,40
 500 87 500 87 509.5 100.5 c 128,-1,41
 519 114 519 114 529.5 134.5 c 128,-1,42
 540 155 540 155 546 181 c 0,43,44
 559 241 559 241 559 320 c 2,45,-1
 559 732 l 1,46,-1
 616 732 l 1,47,-1
 616 320 l 2,48,49
 616 124 616 124 551 57 c 0,50,51
 528 33 528 33 509.5 21 c 128,-1,52
 491 9 491 9 459 3 c 0,53,54
 418 -5 418 -5 355 -5 c 2,17,-1
EndSplineSet
Substitution2: "'c2sc' Capitals to Small Capitals in Latin lookup 2 subtable" udieresis.smcp
EndChar

StartChar: Yacute
Encoding: 221 221 158
Width: 626
GlyphClass: 2
Flags: W
LayerCount: 2
Fore
SplineSet
300 797 m 1,0,-1
 412 930 l 1,1,-1
 483 930 l 1,2,-1
 350 797 l 1,3,-1
 300 797 l 1,0,-1
344 0 m 1,4,-1
 287 0 l 1,5,-1
 287 260 l 1,6,-1
 50 732 l 1,7,-1
 113 732 l 1,8,-1
 315 329 l 1,9,-1
 538 732 l 1,10,-1
 600 732 l 1,11,-1
 344 260 l 1,12,-1
 344 0 l 1,4,-1
EndSplineSet
Substitution2: "'c2sc' Capitals to Small Capitals in Latin lookup 2 subtable" yacute.smcp
EndChar

StartChar: Thorn
Encoding: 222 222 159
Width: 555
GlyphClass: 2
Flags: W
LayerCount: 2
Fore
SplineSet
67 0 m 1,0,-1
 67 729 l 1,1,-1
 124 729 l 1,2,-1
 124 588 l 1,3,-1
 328 588 l 1,4,5
 504 587 504 587 504 375 c 0,6,7
 504 215 504 215 421 170 c 0,8,9
 383 149 383 149 328 149 c 0,10,11
 325 149 325 149 307 149 c 128,-1,12
 289 149 289 149 282.5 149 c 128,-1,13
 276 149 276 149 258.5 149.5 c 128,-1,14
 241 150 241 150 229 151 c 128,-1,15
 217 152 217 152 199 154 c 0,16,17
 167 157 167 157 124 165 c 1,18,-1
 124 0 l 1,19,-1
 67 0 l 1,0,-1
124 206 m 1,20,-1
 328 206 l 2,21,22
 329 206 329 206 342.5 206 c 128,-1,23
 356 206 356 206 375.5 213 c 128,-1,24
 395 220 395 220 412 238 c 0,25,26
 446 275 446 275 446 377 c 0,27,28
 445 487 445 487 389 517 c 0,29,30
 363 530 363 530 328 530 c 2,31,-1
 124 530 l 1,32,-1
 124 206 l 1,20,-1
EndSplineSet
Substitution2: "'c2sc' Capitals to Small Capitals in Latin lookup 2 subtable" thorn.smcp
EndChar

StartChar: germandbls
Encoding: 223 223 160
Width: 568
GlyphClass: 2
Flags: W
LayerCount: 2
Fore
SplineSet
216 54 m 1,0,-1
 392 49 l 1,1,2
 437 49 437 49 463 73.5 c 128,-1,3
 489 98 489 98 490 132 c 1,4,-1
 490 179 l 2,5,6
 490 223 490 223 410 237 c 0,7,8
 377 243 377 243 344 251.5 c 128,-1,9
 311 260 311 260 287.5 283.5 c 128,-1,10
 264 307 264 307 264 349.5 c 128,-1,11
 264 392 264 392 287 419.5 c 128,-1,12
 310 447 310 447 389 505 c 0,13,14
 450 549 450 549 450 621 c 0,15,16
 450 670 450 670 406 695 c 128,-1,17
 362 720 362 720 287.5 720 c 128,-1,18
 213 720 213 720 168.5 681.5 c 128,-1,19
 124 643 124 643 124 566 c 2,20,-1
 124 0 l 1,21,-1
 67 0 l 1,22,-1
 67 566 l 2,23,24
 67 657 67 657 124.5 717 c 128,-1,25
 182 777 182 777 285 777 c 0,26,27
 356 777 356 777 405 759 c 128,-1,28
 454 741 454 741 476 712 c 0,29,30
 508 671 508 671 508 619 c 0,31,32
 508 566 508 566 471 510 c 0,33,34
 450 479 450 479 423 460 c 0,35,36
 410 450 410 450 389 434.5 c 128,-1,37
 368 419 368 419 359.5 411.5 c 128,-1,38
 351 404 351 404 340 393 c 0,39,40
 321 374 321 374 321 351.5 c 128,-1,41
 321 329 321 329 337.5 317 c 128,-1,42
 354 305 354 305 379.5 300.5 c 128,-1,43
 405 296 405 296 434 288.5 c 128,-1,44
 463 281 463 281 488 271 c 128,-1,45
 513 261 513 261 530 237.5 c 128,-1,46
 547 214 547 214 547 179 c 2,47,-1
 547 132 l 1,48,49
 548 29 548 29 445 0 c 0,50,51
 418 -8 418 -8 391.5 -8 c 128,-1,52
 365 -8 365 -8 337 -6 c 128,-1,53
 309 -4 309 -4 292 -1.5 c 128,-1,54
 275 1 275 1 248 5 c 128,-1,55
 221 9 221 9 216 10 c 1,56,-1
 216 54 l 1,0,-1
EndSplineSet
Substitution2: "'smcp' Lowercase to Small Capitals lookup 1 subtable" germandbls.smcp
EndChar

StartChar: agrave
Encoding: 224 224 161
Width: 519
GlyphClass: 2
Flags: W
LayerCount: 2
Fore
SplineSet
110 734 m 1,0,-1
 181 734 l 1,1,-1
 293 601 l 1,2,-1
 243 601 l 1,3,-1
 110 734 l 1,0,-1
62 511 m 1,4,5
 174 541 174 541 313 541 c 0,6,7
 379 541 379 541 421.5 503 c 128,-1,8
 464 465 464 465 464 387 c 2,9,-1
 464 0 l 1,10,-1
 422 0 l 1,11,-1
 407 64 l 2,12,13
 406 64 406 64 391 57 c 128,-1,14
 376 50 376 50 351.5 39.5 c 128,-1,15
 327 29 327 29 298 19 c 0,16,17
 230 -6 230 -6 175.5 -6 c 128,-1,18
 121 -6 121 -6 83 29 c 128,-1,19
 45 64 45 64 45 126 c 2,20,-1
 45 187 l 2,21,22
 45 271 45 271 107 304 c 0,23,24
 137 320 137 320 178 320 c 0,25,26
 292 320 292 320 349.5 320 c 128,-1,27
 407 320 407 320 407 320 c 1,28,29
 407 353 407 353 407 370 c 128,-1,30
 407 387 407 387 407 387 c 2,31,32
 407 486 407 486 304 486 c 0,33,34
 221 486 221 486 62 470 c 1,35,-1
 62 511 l 1,4,5
102 131 m 2,36,37
 102 89 102 89 123 70 c 0,38,39
 145 51 145 51 173 51 c 128,-1,40
 201 51 201 51 232.5 56.5 c 128,-1,41
 264 62 264 62 293 70 c 0,42,43
 354 86 354 86 391 99 c 2,44,-1
 407 105 l 1,45,-1
 407 277 l 1,46,-1
 178 263 l 2,47,48
 102 258 102 258 102 183 c 2,49,-1
 102 131 l 2,36,37
EndSplineSet
AlternateSubs2: "'salt' Stylistic Alternatives in Latin lookup 16 subtable" agrave.salt
Substitution2: "'smcp' Lowercase to Small Capitals lookup 1 subtable" agrave.smcp
EndChar

StartChar: aacute
Encoding: 225 225 162
Width: 519
GlyphClass: 2
Flags: W
LayerCount: 2
Fore
SplineSet
238 601 m 1,0,-1
 349 734 l 1,1,-1
 421 734 l 1,2,-1
 288 601 l 1,3,-1
 238 601 l 1,0,-1
62 511 m 1,4,5
 174 541 174 541 313 541 c 0,6,7
 379 541 379 541 421.5 503 c 128,-1,8
 464 465 464 465 464 387 c 2,9,-1
 464 0 l 1,10,-1
 422 0 l 1,11,-1
 407 64 l 2,12,13
 406 64 406 64 391 57 c 128,-1,14
 376 50 376 50 351.5 39.5 c 128,-1,15
 327 29 327 29 298 19 c 0,16,17
 230 -6 230 -6 175.5 -6 c 128,-1,18
 121 -6 121 -6 83 29 c 128,-1,19
 45 64 45 64 45 126 c 2,20,-1
 45 187 l 2,21,22
 45 271 45 271 107 304 c 0,23,24
 137 320 137 320 178 320 c 0,25,26
 292 320 292 320 349.5 320 c 128,-1,27
 407 320 407 320 407 320 c 1,28,29
 407 353 407 353 407 370 c 128,-1,30
 407 387 407 387 407 387 c 2,31,32
 407 486 407 486 304 486 c 0,33,34
 221 486 221 486 62 470 c 1,35,-1
 62 511 l 1,4,5
102 131 m 2,36,37
 102 89 102 89 123 70 c 0,38,39
 145 51 145 51 173 51 c 128,-1,40
 201 51 201 51 232.5 56.5 c 128,-1,41
 264 62 264 62 293 70 c 0,42,43
 354 86 354 86 391 99 c 2,44,-1
 407 105 l 1,45,-1
 407 277 l 1,46,-1
 178 263 l 2,47,48
 102 258 102 258 102 183 c 2,49,-1
 102 131 l 2,36,37
EndSplineSet
AlternateSubs2: "'salt' Stylistic Alternatives in Latin lookup 16 subtable" aacute.salt
Substitution2: "'smcp' Lowercase to Small Capitals lookup 1 subtable" aacute.smcp
EndChar

StartChar: acircumflex
Encoding: 226 226 163
Width: 519
GlyphClass: 2
Flags: W
LayerCount: 2
Fore
SplineSet
122 601 m 1,0,-1
 245 731 l 1,1,-1
 298 731 l 1,2,-1
 408 601 l 1,3,-1
 355 601 l 1,4,-1
 270 687 l 1,5,-1
 176 601 l 1,6,-1
 122 601 l 1,0,-1
62 511 m 1,7,8
 174 541 174 541 313 541 c 0,9,10
 379 541 379 541 421.5 503 c 128,-1,11
 464 465 464 465 464 387 c 2,12,-1
 464 0 l 1,13,-1
 422 0 l 1,14,-1
 407 64 l 2,15,16
 406 64 406 64 391 57 c 128,-1,17
 376 50 376 50 351.5 39.5 c 128,-1,18
 327 29 327 29 298 19 c 0,19,20
 230 -6 230 -6 175.5 -6 c 128,-1,21
 121 -6 121 -6 83 29 c 128,-1,22
 45 64 45 64 45 126 c 2,23,-1
 45 187 l 2,24,25
 45 271 45 271 107 304 c 0,26,27
 137 320 137 320 178 320 c 0,28,29
 292 320 292 320 349.5 320 c 128,-1,30
 407 320 407 320 407 320 c 1,31,32
 407 353 407 353 407 370 c 128,-1,33
 407 387 407 387 407 387 c 2,34,35
 407 486 407 486 304 486 c 0,36,37
 221 486 221 486 62 470 c 1,38,-1
 62 511 l 1,7,8
102 131 m 2,39,40
 102 89 102 89 123 70 c 0,41,42
 145 51 145 51 173 51 c 128,-1,43
 201 51 201 51 232.5 56.5 c 128,-1,44
 264 62 264 62 293 70 c 0,45,46
 354 86 354 86 391 99 c 2,47,-1
 407 105 l 1,48,-1
 407 277 l 1,49,-1
 178 263 l 2,50,51
 102 258 102 258 102 183 c 2,52,-1
 102 131 l 2,39,40
EndSplineSet
AlternateSubs2: "'salt' Stylistic Alternatives in Latin lookup 16 subtable" acircumflex.salt
Substitution2: "'smcp' Lowercase to Small Capitals lookup 1 subtable" acircumflex.smcp
EndChar

StartChar: atilde
Encoding: 227 227 164
Width: 519
GlyphClass: 2
Flags: W
LayerCount: 2
Fore
SplineSet
352 612 m 0,0,1
 311 592 311 592 255 629 c 0,2,3
 220 652 220 652 203 652 c 128,-1,4
 186 652 186 652 171 647 c 128,-1,5
 156 642 156 642 136 629.5 c 128,-1,6
 116 617 116 617 106 612 c 1,7,-1
 91 642 l 1,8,9
 116 663 116 663 130 673 c 0,10,11
 170 704 170 704 200 703.5 c 128,-1,12
 230 703 230 703 268 679.5 c 128,-1,13
 306 656 306 656 315 656 c 128,-1,14
 324 656 324 656 330.5 657 c 128,-1,15
 337 658 337 658 345 661 c 128,-1,16
 353 664 353 664 358.5 666.5 c 128,-1,17
 364 669 364 669 373 674 c 128,-1,18
 382 679 382 679 386 681.5 c 128,-1,19
 390 684 390 684 400 690 c 128,-1,20
 410 696 410 696 412 698 c 1,21,-1
 429 668 l 1,22,23
 426 665 426 665 415 655.5 c 128,-1,24
 404 646 404 646 399.5 642.5 c 128,-1,25
 395 639 395 639 385 631 c 0,26,27
 373 622 373 622 352 612 c 0,0,1
62 511 m 1,28,29
 174 541 174 541 313 541 c 0,30,31
 379 541 379 541 421.5 503 c 128,-1,32
 464 465 464 465 464 387 c 2,33,-1
 464 0 l 1,34,-1
 422 0 l 1,35,-1
 407 64 l 2,36,37
 406 64 406 64 391 57 c 128,-1,38
 376 50 376 50 351.5 39.5 c 128,-1,39
 327 29 327 29 298 19 c 0,40,41
 230 -6 230 -6 175.5 -6 c 128,-1,42
 121 -6 121 -6 83 29 c 128,-1,43
 45 64 45 64 45 126 c 2,44,-1
 45 187 l 2,45,46
 45 271 45 271 107 304 c 0,47,48
 137 320 137 320 178 320 c 0,49,50
 292 320 292 320 349.5 320 c 128,-1,51
 407 320 407 320 407 320 c 1,52,53
 407 353 407 353 407 370 c 128,-1,54
 407 387 407 387 407 387 c 2,55,56
 407 486 407 486 304 486 c 0,57,58
 221 486 221 486 62 470 c 1,59,-1
 62 511 l 1,28,29
102 131 m 2,60,61
 102 89 102 89 123 70 c 0,62,63
 145 51 145 51 173 51 c 128,-1,64
 201 51 201 51 232.5 56.5 c 128,-1,65
 264 62 264 62 293 70 c 0,66,67
 354 86 354 86 391 99 c 2,68,-1
 407 105 l 1,69,-1
 407 277 l 1,70,-1
 178 263 l 2,71,72
 102 258 102 258 102 183 c 2,73,-1
 102 131 l 2,60,61
EndSplineSet
AlternateSubs2: "'salt' Stylistic Alternatives in Latin lookup 16 subtable" atilde.salt
Substitution2: "'smcp' Lowercase to Small Capitals lookup 1 subtable" atilde.smcp
EndChar

StartChar: adieresis
Encoding: 228 228 165
Width: 519
GlyphClass: 2
Flags: W
LayerCount: 2
Fore
SplineSet
97 652 m 128,-1,1
 97 668 97 668 108.5 679.5 c 128,-1,2
 120 691 120 691 136.5 691 c 128,-1,3
 153 691 153 691 164 679.5 c 128,-1,4
 175 668 175 668 175 652 c 128,-1,5
 175 636 175 636 164 624 c 128,-1,6
 153 612 153 612 136.5 612 c 128,-1,7
 120 612 120 612 108.5 624 c 128,-1,0
 97 636 97 636 97 652 c 128,-1,1
352 652 m 128,-1,9
 352 668 352 668 363.5 679.5 c 128,-1,10
 375 691 375 691 391.5 691 c 128,-1,11
 408 691 408 691 419 679.5 c 128,-1,12
 430 668 430 668 430 652 c 128,-1,13
 430 636 430 636 419 624 c 128,-1,14
 408 612 408 612 391.5 612 c 128,-1,15
 375 612 375 612 363.5 624 c 128,-1,8
 352 636 352 636 352 652 c 128,-1,9
62 511 m 1,16,17
 174 541 174 541 313 541 c 0,18,19
 379 541 379 541 421.5 503 c 128,-1,20
 464 465 464 465 464 387 c 2,21,-1
 464 0 l 1,22,-1
 422 0 l 1,23,-1
 407 64 l 2,24,25
 406 64 406 64 391 57 c 128,-1,26
 376 50 376 50 351.5 39.5 c 128,-1,27
 327 29 327 29 298 19 c 0,28,29
 230 -6 230 -6 175.5 -6 c 128,-1,30
 121 -6 121 -6 83 29 c 128,-1,31
 45 64 45 64 45 126 c 2,32,-1
 45 187 l 2,33,34
 45 271 45 271 107 304 c 0,35,36
 137 320 137 320 178 320 c 0,37,38
 292 320 292 320 349.5 320 c 128,-1,39
 407 320 407 320 407 320 c 1,40,41
 407 353 407 353 407 370 c 128,-1,42
 407 387 407 387 407 387 c 2,43,44
 407 486 407 486 304 486 c 0,45,46
 221 486 221 486 62 470 c 1,47,-1
 62 511 l 1,16,17
102 131 m 2,48,49
 102 89 102 89 123 70 c 0,50,51
 145 51 145 51 173 51 c 128,-1,52
 201 51 201 51 232.5 56.5 c 128,-1,53
 264 62 264 62 293 70 c 0,54,55
 354 86 354 86 391 99 c 2,56,-1
 407 105 l 1,57,-1
 407 277 l 1,58,-1
 178 263 l 2,59,60
 102 258 102 258 102 183 c 2,61,-1
 102 131 l 2,48,49
EndSplineSet
AlternateSubs2: "'salt' Stylistic Alternatives in Latin lookup 16 subtable" adieresis.salt
Substitution2: "'smcp' Lowercase to Small Capitals lookup 1 subtable" adieresis.smcp
EndChar

StartChar: aring
Encoding: 229 229 166
Width: 519
GlyphClass: 2
Flags: W
LayerCount: 2
Fore
SplineSet
162 677 m 0,0,1
 162 701 162 701 175.5 724.5 c 128,-1,2
 189 748 189 748 212.5 762 c 128,-1,3
 236 776 236 776 263.5 776 c 128,-1,4
 291 776 291 776 314.5 762 c 128,-1,5
 338 748 338 748 351 724.5 c 128,-1,6
 364 701 364 701 364 665.5 c 128,-1,7
 364 630 364 630 335 600.5 c 128,-1,8
 306 571 306 571 263.5 571 c 128,-1,9
 221 571 221 571 191.5 600.5 c 128,-1,10
 162 630 162 630 162 677 c 0,0,1
197 673 m 128,-1,12
 197 646 197 646 216.5 627 c 128,-1,13
 236 608 236 608 263.5 608 c 128,-1,14
 291 608 291 608 310 627 c 128,-1,15
 329 646 329 646 329 673 c 128,-1,16
 329 700 329 700 310 719.5 c 128,-1,17
 291 739 291 739 264 739 c 128,-1,18
 237 739 237 739 217 719.5 c 128,-1,11
 197 700 197 700 197 673 c 128,-1,12
62 511 m 1,19,20
 174 541 174 541 313 541 c 0,21,22
 379 541 379 541 421.5 503 c 128,-1,23
 464 465 464 465 464 387 c 2,24,-1
 464 0 l 1,25,-1
 422 0 l 1,26,-1
 407 64 l 2,27,28
 406 64 406 64 391 57 c 128,-1,29
 376 50 376 50 351.5 39.5 c 128,-1,30
 327 29 327 29 298 19 c 0,31,32
 230 -6 230 -6 175.5 -6 c 128,-1,33
 121 -6 121 -6 83 29 c 128,-1,34
 45 64 45 64 45 126 c 2,35,-1
 45 187 l 2,36,37
 45 271 45 271 107 304 c 0,38,39
 137 320 137 320 178 320 c 0,40,41
 292 320 292 320 349.5 320 c 128,-1,42
 407 320 407 320 407 320 c 1,43,44
 407 353 407 353 407 370 c 128,-1,45
 407 387 407 387 407 387 c 2,46,47
 407 486 407 486 304 486 c 0,48,49
 221 486 221 486 62 470 c 1,50,-1
 62 511 l 1,19,20
102 131 m 2,51,52
 102 89 102 89 123 70 c 0,53,54
 145 51 145 51 173 51 c 128,-1,55
 201 51 201 51 232.5 56.5 c 128,-1,56
 264 62 264 62 293 70 c 0,57,58
 354 86 354 86 391 99 c 2,59,-1
 407 105 l 1,60,-1
 407 277 l 1,61,-1
 178 263 l 2,62,63
 102 258 102 258 102 183 c 2,64,-1
 102 131 l 2,51,52
EndSplineSet
AlternateSubs2: "'salt' Stylistic Alternatives in Latin lookup 16 subtable" aring.salt
Substitution2: "'smcp' Lowercase to Small Capitals lookup 1 subtable" aring.smcp
EndChar

StartChar: ae
Encoding: 230 230 167
Width: 877
GlyphClass: 2
Flags: W
LayerCount: 2
Fore
SplineSet
62 515 m 1,0,1
 161 545 161 545 315 545 c 0,2,3
 410 545 410 545 445 471 c 1,4,5
 467 510 467 510 510.5 524.5 c 128,-1,6
 554 539 554 539 607.5 539 c 128,-1,7
 661 539 661 539 680 538 c 128,-1,8
 699 537 699 537 723 533 c 128,-1,9
 747 529 747 529 761.5 521.5 c 128,-1,10
 776 514 776 514 791 501 c 128,-1,11
 806 488 806 488 814 468 c 0,12,13
 832 424 832 424 832 360.5 c 128,-1,14
 832 297 832 297 798.5 269.5 c 128,-1,15
 765 242 765 242 695 242 c 2,16,-1
 465 242 l 1,17,18
 465 237 465 237 465 214 c 128,-1,19
 465 191 465 191 467 164 c 128,-1,20
 469 137 469 137 475.5 113.5 c 128,-1,21
 482 90 482 90 496 79 c 0,22,23
 524 56 524 56 593 56 c 0,24,25
 731 56 731 56 822 69 c 1,26,-1
 822 27 l 1,27,28
 724 -1 724 -1 583 -1 c 0,29,30
 510 -1 510 -1 476 21 c 0,31,32
 458 33 458 33 449 42 c 128,-1,33
 440 51 440 51 426 68 c 1,34,35
 426 68 426 68 409 61 c 128,-1,36
 392 54 392 54 364.5 43.5 c 128,-1,37
 337 33 337 33 305 23 c 0,38,39
 230 -2 230 -2 175.5 -2 c 128,-1,40
 121 -2 121 -2 83 33 c 128,-1,41
 45 68 45 68 45 130 c 2,42,-1
 45 166 l 2,43,44
 45 250 45 250 107 283 c 0,45,46
 137 299 137 299 178 299 c 0,47,48
 292 299 292 299 349.5 299 c 128,-1,49
 407 299 407 299 407 299 c 1,50,51
 407 345 407 345 407 367.5 c 128,-1,52
 407 390 407 390 407 391 c 0,53,54
 407 490 407 490 305 490 c 0,55,56
 225 490 225 490 62 474 c 1,57,-1
 62 515 l 1,0,1
179 55 m 0,58,59
 256 55 256 55 407 111 c 1,60,-1
 407 259 l 1,61,-1
 178 246 l 2,62,63
 102 242 102 242 102 166 c 2,64,-1
 102 135 l 2,65,66
 102 93 102 93 123 74 c 0,67,68
 145 55 145 55 179 55 c 0,58,59
695 298 m 2,69,70
 736 298 736 298 755.5 310.5 c 128,-1,71
 775 323 775 323 775 354.5 c 128,-1,72
 775 386 775 386 772.5 406.5 c 128,-1,73
 770 427 770 427 762.5 441.5 c 128,-1,74
 755 456 755 456 746 463.5 c 128,-1,75
 737 471 737 471 718 475 c 0,76,77
 690 482 690 482 642.5 482 c 128,-1,78
 595 482 595 482 574 480 c 128,-1,79
 553 478 553 478 532 471.5 c 128,-1,80
 511 465 511 465 500.5 453.5 c 128,-1,81
 490 442 490 442 480 421 c 0,82,83
 465 386 465 386 465 298 c 1,84,-1
 695 298 l 2,69,70
EndSplineSet
Substitution2: "'smcp' Lowercase to Small Capitals lookup 1 subtable" ae.smcp
EndChar

StartChar: ccedilla
Encoding: 231 231 168
Width: 500
GlyphClass: 2
Flags: W
LayerCount: 2
Fore
SplineSet
56 266 m 0,0,1
 56 334 56 334 64.5 383 c 128,-1,2
 73 432 73 432 87.5 461.5 c 128,-1,3
 102 491 102 491 126 509 c 0,4,5
 164 537 164 537 237.5 537 c 128,-1,6
 311 537 311 537 449 510 c 1,7,-1
 449 470 l 1,8,9
 320 480 320 480 263.5 480 c 128,-1,10
 207 480 207 480 191 476.5 c 128,-1,11
 175 473 175 473 159 460.5 c 128,-1,12
 143 448 143 448 134 425 c 0,13,14
 113 372 113 372 113 275 c 128,-1,15
 113 178 113 178 127 131 c 128,-1,16
 141 84 141 84 165.5 67.5 c 128,-1,17
 190 51 190 51 231 51 c 0,18,19
 313 51 313 51 420 61 c 1,20,-1
 456 65 l 1,21,-1
 456 23 l 1,22,23
 359 -5 359 -5 231 -6 c 0,24,25
 127 -6 127 -6 89 69 c 0,26,27
 56 135 56 135 56 266 c 0,0,1
315 -36 m 1,28,29
 315 -114 315 -114 294 -143 c 128,-1,30
 273 -172 273 -172 214 -172 c 2,31,-1
 170 -172 l 1,32,-1
 170 -146 l 1,33,-1
 216 -134 l 2,34,35
 243 -126 243 -126 254 -104 c 128,-1,36
 265 -82 265 -82 265 -36 c 1,37,-1
 315 -36 l 1,28,29
EndSplineSet
Substitution2: "'smcp' Lowercase to Small Capitals lookup 1 subtable" ccedilla.smcp
EndChar

StartChar: egrave
Encoding: 232 232 169
Width: 525
GlyphClass: 2
Flags: W
LayerCount: 2
Fore
SplineSet
125 727 m 1,0,-1
 196 727 l 1,1,-1
 308 594 l 1,2,-1
 258 594 l 1,3,-1
 125 727 l 1,0,-1
71.5 105.5 m 128,-1,5
 56 163 56 163 56 245 c 128,-1,6
 56 327 56 327 61 369.5 c 128,-1,7
 66 412 66 412 78.5 442 c 128,-1,8
 91 472 91 472 107 490 c 128,-1,9
 123 508 123 508 150 518 c 0,10,11
 195 535 195 535 278 535 c 0,12,13
 375 535 375 535 410 516 c 0,14,15
 448 496 448 496 462 461 c 1,16,17
 481 417 481 417 481 353 c 128,-1,18
 481 289 481 289 447.5 261.5 c 128,-1,19
 414 234 414 234 344 234 c 2,20,-1
 113 234 l 1,21,22
 113 94 113 94 164 66 c 1,23,24
 187 52 187 52 231 52 c 0,25,26
 379 52 379 52 471 65 c 1,27,-1
 471 23 l 1,28,29
 372 -5 372 -5 236 -5 c 0,30,31
 163 -5 163 -5 125 21.5 c 128,-1,4
 87 48 87 48 71.5 105.5 c 128,-1,5
113 290 m 1,32,-1
 344 290 l 2,33,34
 383 290 383 290 403.5 302.5 c 128,-1,35
 424 315 424 315 424 354 c 128,-1,36
 424 393 424 393 417.5 418.5 c 128,-1,37
 411 444 411 444 392 457.5 c 128,-1,38
 373 471 373 471 349 474.5 c 128,-1,39
 325 478 325 478 284.5 478 c 128,-1,40
 244 478 244 478 223.5 476.5 c 128,-1,41
 203 475 203 475 182 468.5 c 128,-1,42
 161 462 161 462 150 450 c 128,-1,43
 139 438 139 438 129 417 c 0,44,45
 113 381 113 381 113 290 c 1,32,-1
EndSplineSet
Substitution2: "'smcp' Lowercase to Small Capitals lookup 1 subtable" egrave.smcp
EndChar

StartChar: eacute
Encoding: 233 233 170
Width: 525
GlyphClass: 2
Flags: W
LayerCount: 2
Fore
SplineSet
249 594 m 1,0,-1
 361 727 l 1,1,-1
 433 727 l 1,2,-1
 300 594 l 1,3,-1
 249 594 l 1,0,-1
71.5 105.5 m 128,-1,5
 56 163 56 163 56 245 c 128,-1,6
 56 327 56 327 61 369.5 c 128,-1,7
 66 412 66 412 78.5 442 c 128,-1,8
 91 472 91 472 107 490 c 128,-1,9
 123 508 123 508 150 518 c 0,10,11
 195 535 195 535 278 535 c 0,12,13
 375 535 375 535 410 516 c 0,14,15
 448 496 448 496 462 461 c 1,16,17
 481 417 481 417 481 353 c 128,-1,18
 481 289 481 289 447.5 261.5 c 128,-1,19
 414 234 414 234 344 234 c 2,20,-1
 113 234 l 1,21,22
 113 94 113 94 164 66 c 1,23,24
 187 52 187 52 231 52 c 0,25,26
 379 52 379 52 471 65 c 1,27,-1
 471 23 l 1,28,29
 372 -5 372 -5 236 -5 c 0,30,31
 163 -5 163 -5 125 21.5 c 128,-1,4
 87 48 87 48 71.5 105.5 c 128,-1,5
113 290 m 1,32,-1
 344 290 l 2,33,34
 383 290 383 290 403.5 302.5 c 128,-1,35
 424 315 424 315 424 354 c 128,-1,36
 424 393 424 393 417.5 418.5 c 128,-1,37
 411 444 411 444 392 457.5 c 128,-1,38
 373 471 373 471 349 474.5 c 128,-1,39
 325 478 325 478 284.5 478 c 128,-1,40
 244 478 244 478 223.5 476.5 c 128,-1,41
 203 475 203 475 182 468.5 c 128,-1,42
 161 462 161 462 150 450 c 128,-1,43
 139 438 139 438 129 417 c 0,44,45
 113 381 113 381 113 290 c 1,32,-1
EndSplineSet
Substitution2: "'smcp' Lowercase to Small Capitals lookup 1 subtable" eacute.smcp
EndChar

StartChar: ecircumflex
Encoding: 234 234 171
Width: 525
GlyphClass: 2
Flags: W
LayerCount: 2
Fore
SplineSet
130 594 m 1,0,-1
 252 724 l 1,1,-1
 306 724 l 1,2,-1
 416 594 l 1,3,-1
 363 594 l 1,4,-1
 278 680 l 1,5,-1
 184 594 l 1,6,-1
 130 594 l 1,0,-1
71.5 105.5 m 128,-1,8
 56 163 56 163 56 245 c 128,-1,9
 56 327 56 327 61 369.5 c 128,-1,10
 66 412 66 412 78.5 442 c 128,-1,11
 91 472 91 472 107 490 c 128,-1,12
 123 508 123 508 150 518 c 0,13,14
 195 535 195 535 278 535 c 0,15,16
 375 535 375 535 410 516 c 0,17,18
 448 496 448 496 462 461 c 1,19,20
 481 417 481 417 481 353 c 128,-1,21
 481 289 481 289 447.5 261.5 c 128,-1,22
 414 234 414 234 344 234 c 2,23,-1
 113 234 l 1,24,25
 113 94 113 94 164 66 c 1,26,27
 187 52 187 52 231 52 c 0,28,29
 379 52 379 52 471 65 c 1,30,-1
 471 23 l 1,31,32
 372 -5 372 -5 236 -5 c 0,33,34
 163 -5 163 -5 125 21.5 c 128,-1,7
 87 48 87 48 71.5 105.5 c 128,-1,8
113 290 m 1,35,-1
 344 290 l 2,36,37
 383 290 383 290 403.5 302.5 c 128,-1,38
 424 315 424 315 424 354 c 128,-1,39
 424 393 424 393 417.5 418.5 c 128,-1,40
 411 444 411 444 392 457.5 c 128,-1,41
 373 471 373 471 349 474.5 c 128,-1,42
 325 478 325 478 284.5 478 c 128,-1,43
 244 478 244 478 223.5 476.5 c 128,-1,44
 203 475 203 475 182 468.5 c 128,-1,45
 161 462 161 462 150 450 c 128,-1,46
 139 438 139 438 129 417 c 0,47,48
 113 381 113 381 113 290 c 1,35,-1
EndSplineSet
Substitution2: "'smcp' Lowercase to Small Capitals lookup 1 subtable" ecircumflex.smcp
EndChar

StartChar: edieresis
Encoding: 235 235 172
Width: 525
GlyphClass: 2
Flags: W
LayerCount: 2
Fore
SplineSet
118.5 617.5 m 128,-1,1
 107 629 107 629 107 642.5 c 128,-1,2
 107 656 107 656 112 665 c 0,3,4
 123 684 123 684 142.5 684 c 128,-1,5
 162 684 162 684 173.5 673 c 128,-1,6
 185 662 185 662 185 645.5 c 128,-1,7
 185 629 185 629 173.5 617.5 c 128,-1,8
 162 606 162 606 146 606 c 128,-1,0
 130 606 130 606 118.5 617.5 c 128,-1,1
361 645.5 m 128,-1,10
 361 662 361 662 373 673 c 128,-1,11
 385 684 385 684 401 684 c 128,-1,12
 417 684 417 684 428.5 673 c 128,-1,13
 440 662 440 662 440 645.5 c 128,-1,14
 440 629 440 629 428.5 617.5 c 128,-1,15
 417 606 417 606 401 606 c 128,-1,16
 385 606 385 606 373 617.5 c 128,-1,9
 361 629 361 629 361 645.5 c 128,-1,10
71.5 105.5 m 128,-1,18
 56 163 56 163 56 245 c 128,-1,19
 56 327 56 327 61 369.5 c 128,-1,20
 66 412 66 412 78.5 442 c 128,-1,21
 91 472 91 472 107 490 c 128,-1,22
 123 508 123 508 150 518 c 0,23,24
 195 535 195 535 278 535 c 0,25,26
 375 535 375 535 410 516 c 0,27,28
 448 496 448 496 462 461 c 1,29,30
 481 417 481 417 481 353 c 128,-1,31
 481 289 481 289 447.5 261.5 c 128,-1,32
 414 234 414 234 344 234 c 2,33,-1
 113 234 l 1,34,35
 113 94 113 94 164 66 c 1,36,37
 187 52 187 52 231 52 c 0,38,39
 379 52 379 52 471 65 c 1,40,-1
 471 23 l 1,41,42
 372 -5 372 -5 236 -5 c 0,43,44
 163 -5 163 -5 125 21.5 c 128,-1,17
 87 48 87 48 71.5 105.5 c 128,-1,18
113 290 m 1,45,-1
 344 290 l 2,46,47
 383 290 383 290 403.5 302.5 c 128,-1,48
 424 315 424 315 424 354 c 128,-1,49
 424 393 424 393 417.5 418.5 c 128,-1,50
 411 444 411 444 392 457.5 c 128,-1,51
 373 471 373 471 349 474.5 c 128,-1,52
 325 478 325 478 284.5 478 c 128,-1,53
 244 478 244 478 223.5 476.5 c 128,-1,54
 203 475 203 475 182 468.5 c 128,-1,55
 161 462 161 462 150 450 c 128,-1,56
 139 438 139 438 129 417 c 0,57,58
 113 381 113 381 113 290 c 1,45,-1
EndSplineSet
Substitution2: "'smcp' Lowercase to Small Capitals lookup 1 subtable" edieresis.smcp
EndChar

StartChar: igrave
Encoding: 236 236 173
Width: 191
GlyphClass: 2
Flags: W
LayerCount: 2
Fore
SplineSet
-63 729 m 1,0,-1
 9 729 l 1,1,-1
 121 596 l 1,2,-1
 70 596 l 1,3,-1
 -63 729 l 1,0,-1
67 0 m 1,4,-1
 67 531 l 1,5,-1
 124 531 l 1,6,-1
 124 0 l 1,7,-1
 67 0 l 1,4,-1
EndSplineSet
Substitution2: "'smcp' Lowercase to Small Capitals lookup 1 subtable" igrave.smcp
EndChar

StartChar: iacute
Encoding: 237 237 174
Width: 191
GlyphClass: 2
Flags: W
LayerCount: 2
Fore
SplineSet
70 596 m 1,0,-1
 182 729 l 1,1,-1
 254 729 l 1,2,-1
 121 596 l 1,3,-1
 70 596 l 1,0,-1
67 0 m 1,4,-1
 67 531 l 1,5,-1
 124 531 l 1,6,-1
 124 0 l 1,7,-1
 67 0 l 1,4,-1
EndSplineSet
Substitution2: "'smcp' Lowercase to Small Capitals lookup 1 subtable" iacute.smcp
EndChar

StartChar: icircumflex
Encoding: 238 238 175
Width: 191
GlyphClass: 2
Flags: W
LayerCount: 2
Fore
SplineSet
-47 596 m 1,0,-1
 75 726 l 1,1,-1
 129 726 l 1,2,-1
 238 596 l 1,3,-1
 185 596 l 1,4,-1
 100 682 l 1,5,-1
 7 596 l 1,6,-1
 -47 596 l 1,0,-1
67 0 m 1,7,-1
 67 531 l 1,8,-1
 124 531 l 1,9,-1
 124 0 l 1,10,-1
 67 0 l 1,7,-1
EndSplineSet
Substitution2: "'smcp' Lowercase to Small Capitals lookup 1 subtable" icircumflex.smcp
EndChar

StartChar: idieresis
Encoding: 239 239 176
Width: 191
GlyphClass: 2
Flags: W
LayerCount: 2
Fore
SplineSet
-71 635.5 m 128,-1,1
 -71 652 -71 652 -59.5 663.5 c 128,-1,2
 -48 675 -48 675 -31.5 675 c 128,-1,3
 -15 675 -15 675 -4 663.5 c 128,-1,4
 7 652 7 652 7 635.5 c 128,-1,5
 7 619 7 619 -4 607.5 c 128,-1,6
 -15 596 -15 596 -31.5 596 c 128,-1,7
 -48 596 -48 596 -59.5 607.5 c 128,-1,0
 -71 619 -71 619 -71 635.5 c 128,-1,1
184 635.5 m 128,-1,9
 184 652 184 652 195.5 663.5 c 128,-1,10
 207 675 207 675 223.5 675 c 128,-1,11
 240 675 240 675 251 663.5 c 128,-1,12
 262 652 262 652 262 635.5 c 128,-1,13
 262 619 262 619 251 607.5 c 128,-1,14
 240 596 240 596 223.5 596 c 128,-1,15
 207 596 207 596 195.5 607.5 c 128,-1,8
 184 619 184 619 184 635.5 c 128,-1,9
67 0 m 1,16,-1
 67 531 l 1,17,-1
 124 531 l 1,18,-1
 124 0 l 1,19,-1
 67 0 l 1,16,-1
EndSplineSet
Substitution2: "'smcp' Lowercase to Small Capitals lookup 1 subtable" idieresis.smcp
EndChar

StartChar: eth
Encoding: 240 240 177
Width: 538
GlyphClass: 2
Flags: W
LayerCount: 2
Fore
SplineSet
84 62.5 m 128,-1,1
 45 125 45 125 45 261.5 c 128,-1,2
 45 398 45 398 85 464.5 c 128,-1,3
 125 531 125 531 223 531 c 2,4,-1
 313 531 l 2,5,6
 338 531 338 531 367.5 521 c 128,-1,7
 397 511 397 511 406 499 c 1,8,9
 379 604 379 604 323 660 c 1,10,-1
 172 600 l 1,11,-1
 155 645 l 1,12,-1
 279 694 l 1,13,14
 219 733 219 733 135 733 c 0,15,16
 132 733 132 733 129 733 c 1,17,-1
 129 783 l 1,18,19
 259 783 259 783 339 717 c 1,20,-1
 461 766 l 1,21,-1
 479 721 l 1,22,-1
 378 681 l 1,23,24
 493 546 493 546 493 264 c 0,25,26
 493 122 493 122 446 61 c 128,-1,27
 399 0 399 0 313 0 c 2,28,-1
 223 0 l 2,29,0
 123 0 123 0 84 62.5 c 128,-1,1
110 371.5 m 128,-1,31
 102 329 102 329 102 269 c 128,-1,32
 102 209 102 209 108 171 c 128,-1,33
 114 133 114 133 123.5 111 c 128,-1,34
 133 89 133 89 149.5 77.5 c 128,-1,35
 166 66 166 66 182.5 62.5 c 128,-1,36
 199 59 199 59 223 59 c 2,37,-1
 313 59 l 2,38,39
 382 59 382 59 409 111 c 128,-1,40
 436 163 436 163 436 269 c 128,-1,41
 436 375 436 375 411 424.5 c 128,-1,42
 386 474 386 474 313 474 c 2,43,-1
 223 474 l 2,44,45
 193 474 193 474 172.5 466 c 128,-1,46
 152 458 152 458 135 436 c 128,-1,30
 118 414 118 414 110 371.5 c 128,-1,31
EndSplineSet
Substitution2: "'smcp' Lowercase to Small Capitals lookup 1 subtable" eth.smcp
EndChar

StartChar: ntilde
Encoding: 241 241 178
Width: 546
GlyphClass: 2
Flags: W
LayerCount: 2
Fore
SplineSet
371 608 m 0,0,1
 330 588 330 588 274 625 c 0,2,3
 239 648 239 648 222 648 c 128,-1,4
 205 648 205 648 190 642.5 c 128,-1,5
 175 637 175 637 155 625 c 128,-1,6
 135 613 135 613 125 608 c 1,7,-1
 110 638 l 1,8,9
 135 659 135 659 149 669 c 0,10,11
 189 700 189 700 219 699 c 128,-1,12
 249 698 249 698 287 675 c 128,-1,13
 325 652 325 652 334 652 c 128,-1,14
 343 652 343 652 349.5 653 c 128,-1,15
 356 654 356 654 364 657 c 128,-1,16
 372 660 372 660 377.5 662 c 128,-1,17
 383 664 383 664 392 669.5 c 128,-1,18
 401 675 401 675 405 677.5 c 128,-1,19
 409 680 409 680 419 686 c 128,-1,20
 429 692 429 692 431 693 c 1,21,-1
 448 663 l 1,22,23
 445 661 445 661 434 651.5 c 128,-1,24
 423 642 423 642 418.5 638.5 c 128,-1,25
 414 635 414 635 404 627 c 0,26,27
 392 618 392 618 371 608 c 0,0,1
67 0 m 1,28,-1
 67 531 l 1,29,-1
 106 531 l 1,30,-1
 124 469 l 1,31,32
 214 523 214 523 271 535 c 0,33,34
 298 540 298 540 338 540 c 128,-1,35
 378 540 378 540 416 516 c 0,36,37
 491 468 491 468 491 370 c 2,38,-1
 491 0 l 1,39,-1
 434 0 l 1,40,-1
 434 370 l 2,41,42
 434 422 434 422 404.5 452.5 c 128,-1,43
 375 483 375 483 322.5 483 c 128,-1,44
 270 483 270 483 230 470 c 128,-1,45
 190 457 190 457 124 425 c 1,46,-1
 124 0 l 1,47,-1
 67 0 l 1,28,-1
EndSplineSet
AlternateSubs2: "'salt' Stylistic Alternatives in Latin lookup 16 subtable" ntilde.salt
Substitution2: "'smcp' Lowercase to Small Capitals lookup 1 subtable" ntilde.smcp
EndChar

StartChar: ograve
Encoding: 242 242 179
Width: 569
GlyphClass: 2
Flags: W
LayerCount: 2
Fore
SplineSet
133 729 m 1,0,-1
 205 729 l 1,1,-1
 316 596 l 1,2,-1
 266 596 l 1,3,-1
 133 729 l 1,0,-1
56 258 m 0,4,5
 56 340 56 340 67.5 393 c 128,-1,6
 79 446 79 446 107 478 c 128,-1,7
 135 510 135 510 177 523 c 128,-1,8
 219 536 219 536 285 536 c 0,9,10
 415 536 415 536 464.5 474.5 c 128,-1,11
 514 413 514 413 514 261.5 c 128,-1,12
 514 110 514 110 464.5 52.5 c 128,-1,13
 415 -5 415 -5 284.5 -5 c 128,-1,14
 154 -5 154 -5 105 53.5 c 128,-1,15
 56 112 56 112 56 258 c 0,4,5
117.5 345.5 m 128,-1,17
 113 309 113 309 113 266 c 128,-1,18
 113 223 113 223 115.5 195 c 128,-1,19
 118 167 118 167 124 146 c 128,-1,20
 130 125 130 125 137.5 110 c 128,-1,21
 145 95 145 95 157 84.5 c 128,-1,22
 169 74 169 74 181 67.5 c 128,-1,23
 193 61 193 61 211 58 c 0,24,25
 241 52 241 52 282 52 c 128,-1,26
 323 52 323 52 347.5 55.5 c 128,-1,27
 372 59 372 59 394.5 71 c 128,-1,28
 417 83 417 83 430 106 c 0,29,30
 457 155 457 155 457 258 c 0,31,32
 457 359 457 359 438 404 c 0,33,34
 428 428 428 428 415.5 443 c 128,-1,35
 403 458 403 458 381.5 466 c 128,-1,36
 360 474 360 474 338.5 476.5 c 128,-1,37
 317 479 317 479 284.5 479 c 128,-1,38
 252 479 252 479 231.5 477 c 128,-1,39
 211 475 211 475 189.5 467.5 c 128,-1,40
 168 460 168 460 155.5 445.5 c 128,-1,41
 143 431 143 431 132.5 406.5 c 128,-1,16
 122 382 122 382 117.5 345.5 c 128,-1,17
EndSplineSet
Substitution2: "'smcp' Lowercase to Small Capitals lookup 1 subtable" ograve.smcp
EndChar

StartChar: oacute
Encoding: 243 243 180
Width: 569
GlyphClass: 2
Flags: W
LayerCount: 2
Fore
SplineSet
260 596 m 1,0,-1
 371 729 l 1,1,-1
 443 729 l 1,2,-1
 310 596 l 1,3,-1
 260 596 l 1,0,-1
56 258 m 0,4,5
 56 340 56 340 67.5 393 c 128,-1,6
 79 446 79 446 107 478 c 128,-1,7
 135 510 135 510 177 523 c 128,-1,8
 219 536 219 536 285 536 c 0,9,10
 415 536 415 536 464.5 474.5 c 128,-1,11
 514 413 514 413 514 261.5 c 128,-1,12
 514 110 514 110 464.5 52.5 c 128,-1,13
 415 -5 415 -5 284.5 -5 c 128,-1,14
 154 -5 154 -5 105 53.5 c 128,-1,15
 56 112 56 112 56 258 c 0,4,5
117.5 345.5 m 128,-1,17
 113 309 113 309 113 266 c 128,-1,18
 113 223 113 223 115.5 195 c 128,-1,19
 118 167 118 167 124 146 c 128,-1,20
 130 125 130 125 137.5 110 c 128,-1,21
 145 95 145 95 157 84.5 c 128,-1,22
 169 74 169 74 181 67.5 c 128,-1,23
 193 61 193 61 211 58 c 0,24,25
 241 52 241 52 282 52 c 128,-1,26
 323 52 323 52 347.5 55.5 c 128,-1,27
 372 59 372 59 394.5 71 c 128,-1,28
 417 83 417 83 430 106 c 0,29,30
 457 155 457 155 457 258 c 0,31,32
 457 359 457 359 438 404 c 0,33,34
 428 428 428 428 415.5 443 c 128,-1,35
 403 458 403 458 381.5 466 c 128,-1,36
 360 474 360 474 338.5 476.5 c 128,-1,37
 317 479 317 479 284.5 479 c 128,-1,38
 252 479 252 479 231.5 477 c 128,-1,39
 211 475 211 475 189.5 467.5 c 128,-1,40
 168 460 168 460 155.5 445.5 c 128,-1,41
 143 431 143 431 132.5 406.5 c 128,-1,16
 122 382 122 382 117.5 345.5 c 128,-1,17
EndSplineSet
Substitution2: "'smcp' Lowercase to Small Capitals lookup 1 subtable" oacute.smcp
EndChar

StartChar: ocircumflex
Encoding: 244 244 181
Width: 569
GlyphClass: 2
Flags: W
LayerCount: 2
Fore
SplineSet
145 596 m 1,0,-1
 267 726 l 1,1,-1
 321 726 l 1,2,-1
 431 596 l 1,3,-1
 378 596 l 1,4,-1
 293 682 l 1,5,-1
 199 596 l 1,6,-1
 145 596 l 1,0,-1
56 258 m 0,7,8
 56 340 56 340 67.5 393 c 128,-1,9
 79 446 79 446 107 478 c 128,-1,10
 135 510 135 510 177 523 c 128,-1,11
 219 536 219 536 285 536 c 0,12,13
 415 536 415 536 464.5 474.5 c 128,-1,14
 514 413 514 413 514 261.5 c 128,-1,15
 514 110 514 110 464.5 52.5 c 128,-1,16
 415 -5 415 -5 284.5 -5 c 128,-1,17
 154 -5 154 -5 105 53.5 c 128,-1,18
 56 112 56 112 56 258 c 0,7,8
117.5 345.5 m 128,-1,20
 113 309 113 309 113 266 c 128,-1,21
 113 223 113 223 115.5 195 c 128,-1,22
 118 167 118 167 124 146 c 128,-1,23
 130 125 130 125 137.5 110 c 128,-1,24
 145 95 145 95 157 84.5 c 128,-1,25
 169 74 169 74 181 67.5 c 128,-1,26
 193 61 193 61 211 58 c 0,27,28
 241 52 241 52 282 52 c 128,-1,29
 323 52 323 52 347.5 55.5 c 128,-1,30
 372 59 372 59 394.5 71 c 128,-1,31
 417 83 417 83 430 106 c 0,32,33
 457 155 457 155 457 258 c 0,34,35
 457 359 457 359 438 404 c 0,36,37
 428 428 428 428 415.5 443 c 128,-1,38
 403 458 403 458 381.5 466 c 128,-1,39
 360 474 360 474 338.5 476.5 c 128,-1,40
 317 479 317 479 284.5 479 c 128,-1,41
 252 479 252 479 231.5 477 c 128,-1,42
 211 475 211 475 189.5 467.5 c 128,-1,43
 168 460 168 460 155.5 445.5 c 128,-1,44
 143 431 143 431 132.5 406.5 c 128,-1,19
 122 382 122 382 117.5 345.5 c 128,-1,20
EndSplineSet
Substitution2: "'smcp' Lowercase to Small Capitals lookup 1 subtable" ocircumflex.smcp
EndChar

StartChar: otilde
Encoding: 245 245 182
Width: 569
GlyphClass: 2
Flags: W
LayerCount: 2
Fore
SplineSet
383 604 m 0,0,1
 341 584 341 584 286 621 c 0,2,3
 251 644 251 644 233.5 644 c 128,-1,4
 216 644 216 644 201 638.5 c 128,-1,5
 186 633 186 633 166.5 621 c 128,-1,6
 147 609 147 609 137 604 c 1,7,-1
 122 634 l 1,8,9
 147 655 147 655 160 665 c 0,10,11
 201 696 201 696 231 695 c 128,-1,12
 261 694 261 694 298.5 671 c 128,-1,13
 336 648 336 648 345 648 c 128,-1,14
 354 648 354 648 359 648.5 c 128,-1,15
 364 649 364 649 369.5 650.5 c 128,-1,16
 375 652 375 652 380 654 c 128,-1,17
 385 656 385 656 391 659 c 128,-1,18
 397 662 397 662 401.5 664.5 c 128,-1,19
 406 667 406 667 412.5 670.5 c 128,-1,20
 419 674 419 674 423 676.5 c 128,-1,21
 427 679 427 679 433.5 683 c 128,-1,22
 440 687 440 687 443 689 c 1,23,-1
 460 659 l 1,24,25
 457 657 457 657 445.5 647.5 c 128,-1,26
 434 638 434 638 430 634.5 c 128,-1,27
 426 631 426 631 415 623 c 0,28,29
 404 614 404 614 383 604 c 0,0,1
56 258 m 0,30,31
 56 340 56 340 67.5 393 c 128,-1,32
 79 446 79 446 107 478 c 128,-1,33
 135 510 135 510 177 523 c 128,-1,34
 219 536 219 536 285 536 c 0,35,36
 415 536 415 536 464.5 474.5 c 128,-1,37
 514 413 514 413 514 261.5 c 128,-1,38
 514 110 514 110 464.5 52.5 c 128,-1,39
 415 -5 415 -5 284.5 -5 c 128,-1,40
 154 -5 154 -5 105 53.5 c 128,-1,41
 56 112 56 112 56 258 c 0,30,31
117.5 345.5 m 128,-1,43
 113 309 113 309 113 266 c 128,-1,44
 113 223 113 223 115.5 195 c 128,-1,45
 118 167 118 167 124 146 c 128,-1,46
 130 125 130 125 137.5 110 c 128,-1,47
 145 95 145 95 157 84.5 c 128,-1,48
 169 74 169 74 181 67.5 c 128,-1,49
 193 61 193 61 211 58 c 0,50,51
 241 52 241 52 282 52 c 128,-1,52
 323 52 323 52 347.5 55.5 c 128,-1,53
 372 59 372 59 394.5 71 c 128,-1,54
 417 83 417 83 430 106 c 0,55,56
 457 155 457 155 457 258 c 0,57,58
 457 359 457 359 438 404 c 0,59,60
 428 428 428 428 415.5 443 c 128,-1,61
 403 458 403 458 381.5 466 c 128,-1,62
 360 474 360 474 338.5 476.5 c 128,-1,63
 317 479 317 479 284.5 479 c 128,-1,64
 252 479 252 479 231.5 477 c 128,-1,65
 211 475 211 475 189.5 467.5 c 128,-1,66
 168 460 168 460 155.5 445.5 c 128,-1,67
 143 431 143 431 132.5 406.5 c 128,-1,42
 122 382 122 382 117.5 345.5 c 128,-1,43
EndSplineSet
Substitution2: "'smcp' Lowercase to Small Capitals lookup 1 subtable" otilde.smcp
EndChar

StartChar: odieresis
Encoding: 246 246 183
Width: 569
GlyphClass: 2
Flags: W
LayerCount: 2
Fore
SplineSet
119 635.5 m 128,-1,1
 119 652 119 652 130.5 663.5 c 128,-1,2
 142 675 142 675 158.5 675 c 128,-1,3
 175 675 175 675 186 663.5 c 128,-1,4
 197 652 197 652 197 635.5 c 128,-1,5
 197 619 197 619 185.5 607.5 c 128,-1,6
 174 596 174 596 158 596 c 128,-1,7
 142 596 142 596 130.5 607.5 c 128,-1,0
 119 619 119 619 119 635.5 c 128,-1,1
385 607.5 m 128,-1,9
 373 619 373 619 373 633 c 128,-1,10
 373 647 373 647 379 655 c 1,11,12
 390 675 390 675 410 675 c 128,-1,13
 430 675 430 675 441 663.5 c 128,-1,14
 452 652 452 652 452 635.5 c 128,-1,15
 452 619 452 619 440.5 607.5 c 128,-1,16
 429 596 429 596 413 596 c 128,-1,8
 397 596 397 596 385 607.5 c 128,-1,9
56 258 m 0,17,18
 56 340 56 340 67.5 393 c 128,-1,19
 79 446 79 446 107 478 c 128,-1,20
 135 510 135 510 177 523 c 128,-1,21
 219 536 219 536 285 536 c 0,22,23
 415 536 415 536 464.5 474.5 c 128,-1,24
 514 413 514 413 514 261.5 c 128,-1,25
 514 110 514 110 464.5 52.5 c 128,-1,26
 415 -5 415 -5 284.5 -5 c 128,-1,27
 154 -5 154 -5 105 53.5 c 128,-1,28
 56 112 56 112 56 258 c 0,17,18
117.5 345.5 m 128,-1,30
 113 309 113 309 113 266 c 128,-1,31
 113 223 113 223 115.5 195 c 128,-1,32
 118 167 118 167 124 146 c 128,-1,33
 130 125 130 125 137.5 110 c 128,-1,34
 145 95 145 95 157 84.5 c 128,-1,35
 169 74 169 74 181 67.5 c 128,-1,36
 193 61 193 61 211 58 c 0,37,38
 241 52 241 52 282 52 c 128,-1,39
 323 52 323 52 347.5 55.5 c 128,-1,40
 372 59 372 59 394.5 71 c 128,-1,41
 417 83 417 83 430 106 c 0,42,43
 457 155 457 155 457 258 c 0,44,45
 457 359 457 359 438 404 c 0,46,47
 428 428 428 428 415.5 443 c 128,-1,48
 403 458 403 458 381.5 466 c 128,-1,49
 360 474 360 474 338.5 476.5 c 128,-1,50
 317 479 317 479 284.5 479 c 128,-1,51
 252 479 252 479 231.5 477 c 128,-1,52
 211 475 211 475 189.5 467.5 c 128,-1,53
 168 460 168 460 155.5 445.5 c 128,-1,54
 143 431 143 431 132.5 406.5 c 128,-1,29
 122 382 122 382 117.5 345.5 c 128,-1,30
EndSplineSet
Substitution2: "'smcp' Lowercase to Small Capitals lookup 1 subtable" odieresis.smcp
EndChar

StartChar: divide
Encoding: 247 247 184
Width: 527
GlyphClass: 2
Flags: W
LayerCount: 2
Fore
SplineSet
56 324 m 1,0,-1
 56 382 l 1,1,-1
 472 382 l 1,2,-1
 472 324 l 1,3,-1
 56 324 l 1,0,-1
229 168 m 2,4,-1
 229 218 l 2,5,6
 229 239 229 239 249 239 c 2,7,-1
 286 239 l 2,8,9
 305 239 305 239 305 218 c 2,10,-1
 305 168 l 2,11,12
 305 149 305 149 286 149 c 2,13,-1
 249 149 l 2,14,15
 237 149 237 149 233 156 c 128,-1,16
 229 163 229 163 229 168 c 2,4,-1
229 479 m 2,17,-1
 229 530 l 2,18,19
 229 550 229 550 249 550 c 2,20,-1
 286 550 l 2,21,22
 305 550 305 550 305 530 c 2,23,-1
 305 479 l 2,24,25
 305 461 305 461 286 461 c 2,26,-1
 249 461 l 2,27,28
 235 461 235 461 230 472 c 0,29,30
 229 475 229 475 229 479 c 2,17,-1
EndSplineSet
EndChar

StartChar: oslash
Encoding: 248 248 185
Width: 569
GlyphClass: 2
Flags: W
LayerCount: 2
Fore
SplineSet
56 258 m 0,0,1
 56 367 56 367 78.5 427 c 128,-1,2
 101 487 101 487 149.5 511.5 c 128,-1,3
 198 536 198 536 289.5 536 c 128,-1,4
 381 536 381 536 430 504 c 1,5,-1
 451 531 l 1,6,-1
 501 531 l 1,7,-1
 462 478 l 1,8,9
 514 418 514 418 514 264 c 128,-1,10
 514 110 514 110 464.5 52.5 c 128,-1,11
 415 -5 415 -5 285 -5 c 0,12,13
 181 -5 181 -5 130 31 c 1,14,-1
 107 0 l 1,15,-1
 60 0 l 1,16,-1
 102 57 l 1,17,18
 56 114 56 114 56 258 c 0,0,1
113 258 m 0,19,20
 113 154 113 154 140 108 c 1,21,-1
 397 457 l 1,22,23
 364 479 364 479 285 479 c 0,24,25
 184 479 184 479 156 445 c 0,26,27
 125 409 125 409 117 345 c 0,28,29
 113 309 113 309 113 258 c 0,19,20
452 178 m 0,30,31
 457 212 457 212 457 258 c 0,32,33
 457 382 457 382 425 430 c 1,34,-1
 164 78 l 1,35,36
 197 52 197 52 290 52 c 128,-1,37
 383 52 383 52 413.5 85 c 128,-1,38
 444 118 444 118 452 178 c 0,30,31
EndSplineSet
Substitution2: "'smcp' Lowercase to Small Capitals lookup 1 subtable" oslash.smcp
EndChar

StartChar: ugrave
Encoding: 249 249 186
Width: 546
GlyphClass: 2
Flags: W
LayerCount: 2
Fore
SplineSet
116 729 m 1,0,-1
 188 729 l 1,1,-1
 300 596 l 1,2,-1
 249 596 l 1,3,-1
 116 729 l 1,0,-1
56 161 m 2,4,-1
 56 531 l 1,5,-1
 113 531 l 1,6,-1
 113 161 l 2,7,8
 113 109 113 109 142.5 78.5 c 128,-1,9
 172 48 172 48 224.5 48 c 128,-1,10
 277 48 277 48 317 61 c 128,-1,11
 357 74 357 74 423 107 c 1,12,-1
 423 531 l 1,13,-1
 480 531 l 1,14,-1
 480 0 l 1,15,-1
 441 0 l 1,16,-1
 423 62 l 1,17,18
 385 40 385 40 360 27 c 0,19,20
 291 -9 291 -9 217.5 -9 c 128,-1,21
 144 -9 144 -9 100 41 c 128,-1,22
 56 91 56 91 56 161 c 2,4,-1
EndSplineSet
AlternateSubs2: "'salt' Stylistic Alternatives in Latin lookup 16 subtable" ugrave.salt
Substitution2: "'smcp' Lowercase to Small Capitals lookup 1 subtable" ugrave.smcp
EndChar

StartChar: uacute
Encoding: 250 250 187
Width: 546
GlyphClass: 2
Flags: W
LayerCount: 2
Fore
SplineSet
243 596 m 1,0,-1
 355 729 l 1,1,-1
 426 729 l 1,2,-1
 293 596 l 1,3,-1
 243 596 l 1,0,-1
56 161 m 2,4,-1
 56 531 l 1,5,-1
 113 531 l 1,6,-1
 113 161 l 2,7,8
 113 109 113 109 142.5 78.5 c 128,-1,9
 172 48 172 48 224.5 48 c 128,-1,10
 277 48 277 48 317 61 c 128,-1,11
 357 74 357 74 423 107 c 1,12,-1
 423 531 l 1,13,-1
 480 531 l 1,14,-1
 480 0 l 1,15,-1
 441 0 l 1,16,-1
 423 62 l 1,17,18
 385 40 385 40 360 27 c 0,19,20
 291 -9 291 -9 217.5 -9 c 128,-1,21
 144 -9 144 -9 100 41 c 128,-1,22
 56 91 56 91 56 161 c 2,4,-1
EndSplineSet
AlternateSubs2: "'salt' Stylistic Alternatives in Latin lookup 16 subtable" uacute.salt
Substitution2: "'smcp' Lowercase to Small Capitals lookup 1 subtable" uacute.smcp
EndChar

StartChar: ucircumflex
Encoding: 251 251 188
Width: 546
GlyphClass: 2
Flags: W
LayerCount: 2
Fore
SplineSet
125 596 m 1,0,-1
 248 726 l 1,1,-1
 301 726 l 1,2,-1
 411 596 l 1,3,-1
 358 596 l 1,4,-1
 273 682 l 1,5,-1
 179 596 l 1,6,-1
 125 596 l 1,0,-1
56 161 m 2,7,-1
 56 531 l 1,8,-1
 113 531 l 1,9,-1
 113 161 l 2,10,11
 113 109 113 109 142.5 78.5 c 128,-1,12
 172 48 172 48 224.5 48 c 128,-1,13
 277 48 277 48 317 61 c 128,-1,14
 357 74 357 74 423 107 c 1,15,-1
 423 531 l 1,16,-1
 480 531 l 1,17,-1
 480 0 l 1,18,-1
 441 0 l 1,19,-1
 423 62 l 1,20,21
 385 40 385 40 360 27 c 0,22,23
 291 -9 291 -9 217.5 -9 c 128,-1,24
 144 -9 144 -9 100 41 c 128,-1,25
 56 91 56 91 56 161 c 2,7,-1
EndSplineSet
AlternateSubs2: "'salt' Stylistic Alternatives in Latin lookup 16 subtable" ucircumflex.salt
Substitution2: "'smcp' Lowercase to Small Capitals lookup 1 subtable" ucircumflex.smcp
EndChar

StartChar: udieresis
Encoding: 252 252 189
Width: 546
GlyphClass: 2
Flags: W
LayerCount: 2
Fore
SplineSet
101 635.5 m 128,-1,1
 101 652 101 652 112.5 663.5 c 128,-1,2
 124 675 124 675 140.5 675 c 128,-1,3
 157 675 157 675 168.5 663.5 c 128,-1,4
 180 652 180 652 180 635.5 c 128,-1,5
 180 619 180 619 168.5 607.5 c 128,-1,6
 157 596 157 596 140.5 596 c 128,-1,7
 124 596 124 596 112.5 607.5 c 128,-1,0
 101 619 101 619 101 635.5 c 128,-1,1
356 635.5 m 128,-1,9
 356 652 356 652 367.5 663.5 c 128,-1,10
 379 675 379 675 395.5 675 c 128,-1,11
 412 675 412 675 423.5 663.5 c 128,-1,12
 435 652 435 652 435 638.5 c 128,-1,13
 435 625 435 625 430 616 c 0,14,15
 419 596 419 596 399 596 c 128,-1,16
 379 596 379 596 367.5 607.5 c 128,-1,8
 356 619 356 619 356 635.5 c 128,-1,9
56 161 m 2,17,-1
 56 531 l 1,18,-1
 113 531 l 1,19,-1
 113 161 l 2,20,21
 113 109 113 109 142.5 78.5 c 128,-1,22
 172 48 172 48 224.5 48 c 128,-1,23
 277 48 277 48 317 61 c 128,-1,24
 357 74 357 74 423 107 c 1,25,-1
 423 531 l 1,26,-1
 480 531 l 1,27,-1
 480 0 l 1,28,-1
 441 0 l 1,29,-1
 423 62 l 1,30,31
 385 40 385 40 360 27 c 0,32,33
 291 -9 291 -9 217.5 -9 c 128,-1,34
 144 -9 144 -9 100 41 c 128,-1,35
 56 91 56 91 56 161 c 2,17,-1
EndSplineSet
AlternateSubs2: "'salt' Stylistic Alternatives in Latin lookup 16 subtable" udieresis.salt
Substitution2: "'smcp' Lowercase to Small Capitals lookup 1 subtable" udieresis.smcp
EndChar

StartChar: yacute
Encoding: 253 253 190
Width: 545
GlyphClass: 2
Flags: W
LayerCount: 2
Fore
SplineSet
247 596 m 1,0,-1
 359 729 l 1,1,-1
 430 729 l 1,2,-1
 297 596 l 1,3,-1
 247 596 l 1,0,-1
286 58 m 0,4,5
 289 58 289 58 299 59 c 1,6,-1
 458 531 l 1,7,-1
 521 531 l 1,8,-1
 287 -168 l 1,9,-1
 222 -270 l 1,10,-1
 188 -270 l 1,11,-1
 279 0 l 1,12,13
 193 1 193 1 160 110 c 1,14,-1
 23 531 l 1,15,-1
 86 531 l 1,16,-1
 221 116 l 1,17,18
 241 58 241 58 286 58 c 0,4,5
EndSplineSet
Substitution2: "'smcp' Lowercase to Small Capitals lookup 1 subtable" yacute.smcp
EndChar

StartChar: thorn
Encoding: 254 254 191
Width: 556
GlyphClass: 2
Flags: W
LayerCount: 2
Fore
SplineSet
78 -270 m 1,0,-1
 78 782 l 1,1,-1
 135 782 l 1,2,-1
 135 471 l 1,3,4
 161 490 161 490 226.5 515 c 128,-1,5
 292 540 292 540 339 540 c 128,-1,6
 386 540 386 540 421.5 517 c 128,-1,7
 457 494 457 494 476 454 c 0,8,9
 512 377 512 377 512 267 c 0,10,11
 512 112 512 112 465 48 c 0,12,13
 447 23 447 23 414.5 6.5 c 128,-1,14
 382 -10 382 -10 340.5 -10 c 128,-1,15
 299 -10 299 -10 239 0.5 c 128,-1,16
 179 11 179 11 135 29 c 1,17,-1
 135 -270 l 1,18,-1
 78 -270 l 1,0,-1
426.5 97 m 128,-1,20
 455 147 455 147 455 260 c 128,-1,21
 455 373 455 373 423.5 428 c 128,-1,22
 392 483 392 483 337 483 c 1,23,24
 265 480 265 480 135 430 c 1,25,-1
 135 73 l 1,26,27
 216 51 216 51 337 47 c 1,28,19
 398 47 398 47 426.5 97 c 128,-1,20
EndSplineSet
Substitution2: "'smcp' Lowercase to Small Capitals lookup 1 subtable" thorn.smcp
EndChar

StartChar: ydieresis
Encoding: 255 255 192
Width: 545
GlyphClass: 2
Flags: W
LayerCount: 2
Fore
SplineSet
110.5 616 m 128,-1,1
 105 625 105 625 105 638.5 c 128,-1,2
 105 652 105 652 116.5 663.5 c 128,-1,3
 128 675 128 675 144.5 675 c 128,-1,4
 161 675 161 675 172.5 663.5 c 128,-1,5
 184 652 184 652 184 635.5 c 128,-1,6
 184 619 184 619 172.5 607.5 c 128,-1,7
 161 596 161 596 147.5 596 c 128,-1,8
 134 596 134 596 125 601.5 c 128,-1,0
 116 607 116 607 110.5 616 c 128,-1,1
372 607.5 m 128,-1,10
 360 619 360 619 360 633 c 128,-1,11
 360 647 360 647 365 655 c 0,12,13
 377 675 377 675 396.5 675 c 128,-1,14
 416 675 416 675 427.5 663.5 c 128,-1,15
 439 652 439 652 439 635.5 c 128,-1,16
 439 619 439 619 427.5 607.5 c 128,-1,17
 416 596 416 596 400 596 c 128,-1,9
 384 596 384 596 372 607.5 c 128,-1,10
286 58 m 0,18,19
 289 58 289 58 299 59 c 1,20,-1
 458 531 l 1,21,-1
 521 531 l 1,22,-1
 287 -168 l 1,23,-1
 222 -270 l 1,24,-1
 188 -270 l 1,25,-1
 279 0 l 1,26,27
 193 1 193 1 160 110 c 1,28,-1
 23 531 l 1,29,-1
 86 531 l 1,30,-1
 221 116 l 1,31,32
 241 58 241 58 286 58 c 0,18,19
EndSplineSet
Substitution2: "'smcp' Lowercase to Small Capitals lookup 1 subtable" ydieresis.smcp
EndChar

StartChar: Amacron
Encoding: 256 256 193
Width: 666
GlyphClass: 2
Flags: W
LayerCount: 2
Fore
SplineSet
212 797 m 1,0,-1
 212 844 l 1,1,-1
 491 844 l 1,2,-1
 491 797 l 1,3,-1
 212 797 l 1,0,-1
50 0 m 1,4,-1
 321 732 l 1,5,-1
 382 732 l 1,6,-1
 640 0 l 1,7,-1
 573 0 l 1,8,-1
 501 221 l 1,9,-1
 195 221 l 1,10,-1
 119 0 l 1,11,-1
 50 0 l 1,4,-1
216 278 m 1,12,-1
 481 278 l 1,13,-1
 351 649 l 1,14,-1
 216 278 l 1,12,-1
EndSplineSet
Substitution2: "'c2sc' Capitals to Small Capitals in Latin lookup 2 subtable" amacron.smcp
EndChar

StartChar: amacron
Encoding: 257 257 194
Width: 519
GlyphClass: 2
Flags: W
LayerCount: 2
Fore
SplineSet
131 601 m 1,0,-1
 131 648 l 1,1,-1
 410 648 l 1,2,-1
 410 601 l 1,3,-1
 131 601 l 1,0,-1
62 511 m 1,4,5
 174 541 174 541 313 541 c 0,6,7
 379 541 379 541 421.5 503 c 128,-1,8
 464 465 464 465 464 387 c 2,9,-1
 464 0 l 1,10,-1
 422 0 l 1,11,-1
 407 64 l 2,12,13
 406 64 406 64 391 57 c 128,-1,14
 376 50 376 50 351.5 39.5 c 128,-1,15
 327 29 327 29 298 19 c 0,16,17
 230 -6 230 -6 175.5 -6 c 128,-1,18
 121 -6 121 -6 83 29 c 128,-1,19
 45 64 45 64 45 126 c 2,20,-1
 45 187 l 2,21,22
 45 271 45 271 107 304 c 0,23,24
 137 320 137 320 178 320 c 0,25,26
 292 320 292 320 349.5 320 c 128,-1,27
 407 320 407 320 407 320 c 1,28,29
 407 353 407 353 407 370 c 128,-1,30
 407 387 407 387 407 387 c 2,31,32
 407 486 407 486 304 486 c 0,33,34
 221 486 221 486 62 470 c 1,35,-1
 62 511 l 1,4,5
102 131 m 2,36,37
 102 89 102 89 123 70 c 0,38,39
 145 51 145 51 173 51 c 128,-1,40
 201 51 201 51 232.5 56.5 c 128,-1,41
 264 62 264 62 293 70 c 0,42,43
 354 86 354 86 391 99 c 2,44,-1
 407 105 l 1,45,-1
 407 277 l 1,46,-1
 178 263 l 2,47,48
 102 258 102 258 102 183 c 2,49,-1
 102 131 l 2,36,37
EndSplineSet
AlternateSubs2: "'salt' Stylistic Alternatives in Latin lookup 16 subtable" amacron.salt
Substitution2: "'smcp' Lowercase to Small Capitals lookup 1 subtable" amacron.smcp
EndChar

StartChar: Abreve
Encoding: 258 258 195
Width: 666
GlyphClass: 2
Flags: W
LayerCount: 2
Fore
SplineSet
239 911 m 1,0,-1
 275 911 l 1,1,2
 275 878 275 878 298.5 855.5 c 128,-1,3
 322 833 322 833 352 833 c 0,4,5
 387 833 387 833 410 854.5 c 128,-1,6
 433 876 433 876 433 911 c 1,7,-1
 469 911 l 1,8,9
 469 856 469 856 432 825 c 1,10,11
 397 797 397 797 353 797 c 128,-1,12
 309 797 309 797 274 828.5 c 128,-1,13
 239 860 239 860 239 911 c 1,0,-1
50 0 m 1,14,-1
 321 732 l 1,15,-1
 382 732 l 1,16,-1
 640 0 l 1,17,-1
 573 0 l 1,18,-1
 501 221 l 1,19,-1
 195 221 l 1,20,-1
 119 0 l 1,21,-1
 50 0 l 1,14,-1
216 278 m 1,22,-1
 481 278 l 1,23,-1
 351 649 l 1,24,-1
 216 278 l 1,22,-1
EndSplineSet
Substitution2: "'c2sc' Capitals to Small Capitals in Latin lookup 2 subtable" abreve.smcp
EndChar

StartChar: abreve
Encoding: 259 259 196
Width: 519
GlyphClass: 2
Flags: W
LayerCount: 2
Fore
SplineSet
157 715 m 1,0,-1
 193 715 l 1,1,2
 193 682 193 682 216.5 659.5 c 128,-1,3
 240 637 240 637 270 637 c 0,4,5
 305 637 305 637 328 658.5 c 128,-1,6
 351 680 351 680 351 715 c 1,7,-1
 387 715 l 1,8,9
 387 662 387 662 352 631.5 c 128,-1,10
 317 601 317 601 272 601 c 128,-1,11
 227 601 227 601 192 632.5 c 128,-1,12
 157 664 157 664 157 715 c 1,0,-1
62 511 m 1,13,14
 174 541 174 541 313 541 c 0,15,16
 379 541 379 541 421.5 503 c 128,-1,17
 464 465 464 465 464 387 c 2,18,-1
 464 0 l 1,19,-1
 422 0 l 1,20,-1
 407 64 l 2,21,22
 406 64 406 64 391 57 c 128,-1,23
 376 50 376 50 351.5 39.5 c 128,-1,24
 327 29 327 29 298 19 c 0,25,26
 230 -6 230 -6 175.5 -6 c 128,-1,27
 121 -6 121 -6 83 29 c 128,-1,28
 45 64 45 64 45 126 c 2,29,-1
 45 187 l 2,30,31
 45 271 45 271 107 304 c 0,32,33
 137 320 137 320 178 320 c 0,34,35
 292 320 292 320 349.5 320 c 128,-1,36
 407 320 407 320 407 320 c 1,37,38
 407 353 407 353 407 370 c 128,-1,39
 407 387 407 387 407 387 c 2,40,41
 407 486 407 486 304 486 c 0,42,43
 221 486 221 486 62 470 c 1,44,-1
 62 511 l 1,13,14
102 131 m 2,45,46
 102 89 102 89 123 70 c 0,47,48
 145 51 145 51 173 51 c 128,-1,49
 201 51 201 51 232.5 56.5 c 128,-1,50
 264 62 264 62 293 70 c 0,51,52
 354 86 354 86 391 99 c 2,53,-1
 407 105 l 1,54,-1
 407 277 l 1,55,-1
 178 263 l 2,56,57
 102 258 102 258 102 183 c 2,58,-1
 102 131 l 2,45,46
EndSplineSet
Substitution2: "'smcp' Lowercase to Small Capitals lookup 1 subtable" abreve.smcp
EndChar

StartChar: Aogonek
Encoding: 260 260 197
Width: 666
GlyphClass: 2
Flags: W
LayerCount: 2
Fore
SplineSet
624 0 m 1,0,1
 559 -43 559 -43 559 -87 c 0,2,3
 559 -103 559 -103 570 -115 c 0,4,5
 590 -136 590 -136 637 -137 c 1,6,-1
 637 -181 l 1,7,8
 627 -182 627 -182 611 -182 c 128,-1,9
 595 -182 595 -182 569.5 -173 c 128,-1,10
 544 -164 544 -164 529 -143 c 0,11,12
 511 -117 511 -117 511 -93 c 128,-1,13
 511 -69 511 -69 531 -43.5 c 128,-1,14
 551 -18 551 -18 594 0 c 1,15,-1
 624 0 l 1,0,1
50 0 m 1,16,-1
 321 732 l 1,17,-1
 382 732 l 1,18,-1
 640 0 l 1,19,-1
 573 0 l 1,20,-1
 501 221 l 1,21,-1
 195 221 l 1,22,-1
 119 0 l 1,23,-1
 50 0 l 1,16,-1
216 278 m 1,24,-1
 481 278 l 1,25,-1
 351 649 l 1,26,-1
 216 278 l 1,24,-1
EndSplineSet
Substitution2: "'c2sc' Capitals to Small Capitals in Latin lookup 2 subtable" aogonek.smcp
EndChar

StartChar: aogonek
Encoding: 261 261 198
Width: 533
GlyphClass: 2
Flags: W
LayerCount: 2
Fore
SplineSet
465 0 m 1,0,1
 400 -43 400 -43 400 -87 c 0,2,3
 400 -103 400 -103 411 -115 c 0,4,5
 431 -136 431 -136 478 -137 c 1,6,-1
 478 -181 l 1,7,8
 468 -182 468 -182 452 -182 c 128,-1,9
 436 -182 436 -182 410.5 -173 c 128,-1,10
 385 -164 385 -164 370 -143 c 0,11,12
 352 -117 352 -117 352 -93 c 128,-1,13
 352 -69 352 -69 372.5 -43.5 c 128,-1,14
 393 -18 393 -18 435 0 c 1,15,-1
 465 0 l 1,0,1
68 511 m 1,16,17
 180 541 180 541 320 541 c 0,18,19
 385 541 385 541 427.5 503 c 128,-1,20
 470 465 470 465 470 387 c 2,21,-1
 470 0 l 1,22,-1
 429 0 l 1,23,-1
 413 64 l 1,24,25
 413 64 413 64 398 57 c 128,-1,26
 383 50 383 50 358.5 39.5 c 128,-1,27
 334 29 334 29 305 19 c 0,28,29
 236 -6 236 -6 181.5 -6 c 128,-1,30
 127 -6 127 -6 89 29 c 128,-1,31
 51 64 51 64 51 126 c 2,32,-1
 51 187 l 2,33,34
 51 271 51 271 113 304 c 0,35,36
 143 320 143 320 184 320 c 0,37,38
 299 320 299 320 356 320 c 128,-1,39
 413 320 413 320 413 320 c 1,40,41
 414 353 414 353 414 370 c 128,-1,42
 414 387 414 387 413 387 c 1,43,44
 413 486 413 486 311 486 c 0,45,46
 228 486 228 486 68 470 c 1,47,-1
 68 511 l 1,16,17
108 131 m 2,48,49
 108 102 108 102 119 84 c 0,50,51
 139 51 139 51 186 51 c 0,52,53
 230 51 230 51 280 64 c 0,54,55
 360 86 360 86 397 99 c 2,56,-1
 413 105 l 1,57,-1
 413 277 l 1,58,-1
 184 263 l 2,59,60
 108 258 108 258 108 183 c 2,61,-1
 108 131 l 2,48,49
EndSplineSet
AlternateSubs2: "'salt' Stylistic Alternatives in Latin lookup 16 subtable" aogonek.salt
Substitution2: "'smcp' Lowercase to Small Capitals lookup 1 subtable" aogonek.smcp
EndChar

StartChar: Cacute
Encoding: 262 262 199
Width: 575
GlyphClass: 2
Flags: W
LayerCount: 2
Fore
SplineSet
302 800 m 1,0,-1
 414 933 l 1,1,-1
 485 933 l 1,2,-1
 352 800 l 1,3,-1
 302 800 l 1,0,-1
61 368 m 0,4,5
 61 598 61 598 133 677 c 0,6,7
 191 740 191 740 305 740 c 0,8,9
 344 740 344 740 415.5 732.5 c 128,-1,10
 487 725 487 725 539 715 c 1,11,-1
 539 672 l 1,12,13
 539 672 539 672 530.5 672.5 c 128,-1,14
 522 673 522 673 508 674 c 128,-1,15
 494 675 494 675 475.5 676 c 128,-1,16
 457 677 457 677 435 678.5 c 128,-1,17
 413 680 413 680 392 681 c 0,18,19
 343 683 343 683 305 683 c 0,20,21
 236 683 236 683 197 657 c 0,22,23
 118 605 118 605 118 366 c 0,24,25
 118 51 118 51 305 51 c 0,26,27
 404 51 404 51 525 59 c 2,28,-1
 539 60 l 1,29,-1
 539 16 l 1,30,31
 489 7 489 7 418 0.5 c 128,-1,32
 347 -6 347 -6 305 -6 c 0,33,34
 61 -6 61 -6 61 368 c 0,4,5
EndSplineSet
Substitution2: "'c2sc' Capitals to Small Capitals in Latin lookup 2 subtable" cacute.smcp
EndChar

StartChar: cacute
Encoding: 263 263 200
Width: 500
GlyphClass: 2
Flags: W
LayerCount: 2
Fore
SplineSet
245 597 m 1,0,-1
 356 730 l 1,1,-1
 428 730 l 1,2,-1
 295 597 l 1,3,-1
 245 597 l 1,0,-1
56 266 m 0,4,5
 56 334 56 334 65 383 c 128,-1,6
 74 432 74 432 88 461.5 c 128,-1,7
 102 491 102 491 125.5 508 c 128,-1,8
 149 525 149 525 173 530.5 c 128,-1,9
 197 536 197 536 231 536 c 0,10,11
 317 536 317 536 449 510 c 1,12,-1
 449 470 l 1,13,14
 320 479 320 479 267 479 c 128,-1,15
 214 479 214 479 202 477.5 c 128,-1,16
 190 476 190 476 177 470.5 c 128,-1,17
 164 465 164 465 155 456 c 128,-1,18
 146 447 146 447 137.5 431 c 128,-1,19
 129 415 129 415 124 392 c 0,20,21
 113 342 113 342 113 260.5 c 128,-1,22
 113 179 113 179 127 132 c 128,-1,23
 141 85 141 85 165.5 68.5 c 128,-1,24
 190 52 190 52 231 52 c 0,25,26
 313 52 313 52 420 63 c 1,27,-1
 456 66 l 1,28,-1
 456 24 l 1,29,30
 359 -3 359 -3 231 -5 c 1,31,32
 126 -5 126 -5 89 70 c 0,33,34
 56 135 56 135 56 266 c 0,4,5
EndSplineSet
Substitution2: "'smcp' Lowercase to Small Capitals lookup 1 subtable" cacute.smcp
EndChar

StartChar: Ccircumflex
Encoding: 264 264 201
Width: 575
GlyphClass: 2
Flags: W
LayerCount: 2
Fore
SplineSet
188 800 m 1,0,-1
 310 930 l 1,1,-1
 364 930 l 1,2,-1
 473 800 l 1,3,-1
 420 800 l 1,4,-1
 335 886 l 1,5,-1
 242 800 l 1,6,-1
 188 800 l 1,0,-1
61 368 m 0,7,8
 61 598 61 598 133 677 c 0,9,10
 191 740 191 740 305 740 c 0,11,12
 344 740 344 740 415.5 732.5 c 128,-1,13
 487 725 487 725 539 715 c 1,14,-1
 539 672 l 1,15,16
 539 672 539 672 530.5 672.5 c 128,-1,17
 522 673 522 673 508 674 c 128,-1,18
 494 675 494 675 475.5 676 c 128,-1,19
 457 677 457 677 435 678.5 c 128,-1,20
 413 680 413 680 392 681 c 0,21,22
 343 683 343 683 305 683 c 0,23,24
 236 683 236 683 197 657 c 0,25,26
 118 605 118 605 118 366 c 0,27,28
 118 51 118 51 305 51 c 0,29,30
 404 51 404 51 525 59 c 2,31,-1
 539 60 l 1,32,-1
 539 16 l 1,33,34
 489 7 489 7 418 0.5 c 128,-1,35
 347 -6 347 -6 305 -6 c 0,36,37
 61 -6 61 -6 61 368 c 0,7,8
EndSplineSet
Substitution2: "'c2sc' Capitals to Small Capitals in Latin lookup 2 subtable" ccircumflex.smcp
EndChar

StartChar: ccircumflex
Encoding: 265 265 202
Width: 500
GlyphClass: 2
Flags: W
LayerCount: 2
Fore
SplineSet
136 597 m 1,0,-1
 258 727 l 1,1,-1
 311 727 l 1,2,-1
 421 597 l 1,3,-1
 368 597 l 1,4,-1
 283 683 l 1,5,-1
 189 597 l 1,6,-1
 136 597 l 1,0,-1
56 266 m 0,7,8
 56 334 56 334 65 383 c 128,-1,9
 74 432 74 432 88 461.5 c 128,-1,10
 102 491 102 491 125.5 508 c 128,-1,11
 149 525 149 525 173 530.5 c 128,-1,12
 197 536 197 536 231 536 c 0,13,14
 317 536 317 536 449 510 c 1,15,-1
 449 470 l 1,16,17
 320 479 320 479 267 479 c 128,-1,18
 214 479 214 479 202 477.5 c 128,-1,19
 190 476 190 476 177 470.5 c 128,-1,20
 164 465 164 465 155 456 c 128,-1,21
 146 447 146 447 137.5 431 c 128,-1,22
 129 415 129 415 124 392 c 0,23,24
 113 342 113 342 113 260.5 c 128,-1,25
 113 179 113 179 127 132 c 128,-1,26
 141 85 141 85 165.5 68.5 c 128,-1,27
 190 52 190 52 231 52 c 0,28,29
 313 52 313 52 420 63 c 1,30,-1
 456 66 l 1,31,-1
 456 24 l 1,32,33
 359 -3 359 -3 231 -5 c 1,34,35
 126 -5 126 -5 89 70 c 0,36,37
 56 135 56 135 56 266 c 0,7,8
EndSplineSet
Substitution2: "'smcp' Lowercase to Small Capitals lookup 1 subtable" ccircumflex.smcp
EndChar

StartChar: Cdotaccent
Encoding: 266 266 203
Width: 575
GlyphClass: 2
Flags: W
LayerCount: 2
Fore
SplineSet
303 821 m 2,0,-1
 303 877 l 2,1,2
 303 898 303 898 323 898 c 2,3,-1
 360 898 l 2,4,5
 379 898 379 898 379 877 c 2,6,-1
 379 821 l 2,7,8
 379 801 379 801 360 801 c 2,9,-1
 323 801 l 2,10,11
 315 801 315 801 309 806.5 c 128,-1,12
 303 812 303 812 303 821 c 2,0,-1
61 368 m 0,13,14
 61 598 61 598 133 677 c 0,15,16
 191 740 191 740 305 740 c 0,17,18
 344 740 344 740 415.5 732.5 c 128,-1,19
 487 725 487 725 539 715 c 1,20,-1
 539 672 l 1,21,22
 539 672 539 672 530.5 672.5 c 128,-1,23
 522 673 522 673 508 674 c 128,-1,24
 494 675 494 675 475.5 676 c 128,-1,25
 457 677 457 677 435 678.5 c 128,-1,26
 413 680 413 680 392 681 c 0,27,28
 343 683 343 683 305 683 c 0,29,30
 236 683 236 683 197 657 c 0,31,32
 118 605 118 605 118 366 c 0,33,34
 118 51 118 51 305 51 c 0,35,36
 404 51 404 51 525 59 c 2,37,-1
 539 60 l 1,38,-1
 539 16 l 1,39,40
 489 7 489 7 418 0.5 c 128,-1,41
 347 -6 347 -6 305 -6 c 0,42,43
 61 -6 61 -6 61 368 c 0,13,14
EndSplineSet
Substitution2: "'c2sc' Capitals to Small Capitals in Latin lookup 2 subtable" cdotaccent.smcp
EndChar

StartChar: cdotaccent
Encoding: 267 267 204
Width: 500
GlyphClass: 2
Flags: W
LayerCount: 2
Fore
SplineSet
250 618 m 2,0,-1
 250 675 l 2,1,2
 250 695 250 695 270 695 c 2,3,-1
 306 695 l 2,4,5
 326 695 326 695 326 675 c 2,6,-1
 326 618 l 2,7,8
 326 599 326 599 306 599 c 2,9,-1
 270 599 l 2,10,11
 261 599 261 599 255.5 604 c 128,-1,12
 250 609 250 609 250 618 c 2,0,-1
56 266 m 0,13,14
 56 334 56 334 65 383 c 128,-1,15
 74 432 74 432 88 461.5 c 128,-1,16
 102 491 102 491 125.5 508 c 128,-1,17
 149 525 149 525 173 530.5 c 128,-1,18
 197 536 197 536 231 536 c 0,19,20
 317 536 317 536 449 510 c 1,21,-1
 449 470 l 1,22,23
 320 479 320 479 267 479 c 128,-1,24
 214 479 214 479 202 477.5 c 128,-1,25
 190 476 190 476 177 470.5 c 128,-1,26
 164 465 164 465 155 456 c 128,-1,27
 146 447 146 447 137.5 431 c 128,-1,28
 129 415 129 415 124 392 c 0,29,30
 113 342 113 342 113 260.5 c 128,-1,31
 113 179 113 179 127 132 c 128,-1,32
 141 85 141 85 165.5 68.5 c 128,-1,33
 190 52 190 52 231 52 c 0,34,35
 313 52 313 52 420 63 c 1,36,-1
 456 66 l 1,37,-1
 456 24 l 1,38,39
 359 -3 359 -3 231 -5 c 1,40,41
 126 -5 126 -5 89 70 c 0,42,43
 56 135 56 135 56 266 c 0,13,14
EndSplineSet
Substitution2: "'smcp' Lowercase to Small Capitals lookup 1 subtable" cdotaccent.smcp
EndChar

StartChar: Ccaron
Encoding: 268 268 205
Width: 575
GlyphClass: 2
Flags: W
LayerCount: 2
Fore
SplineSet
193 930 m 1,0,-1
 246 930 l 1,1,-1
 337 844 l 1,2,-1
 425 930 l 1,3,-1
 478 930 l 1,4,-1
 365 800 l 1,5,-1
 310 800 l 1,6,-1
 193 930 l 1,0,-1
61 368 m 0,7,8
 61 598 61 598 133 677 c 0,9,10
 191 740 191 740 305 740 c 0,11,12
 344 740 344 740 415.5 732.5 c 128,-1,13
 487 725 487 725 539 715 c 1,14,-1
 539 672 l 1,15,16
 539 672 539 672 530.5 672.5 c 128,-1,17
 522 673 522 673 508 674 c 128,-1,18
 494 675 494 675 475.5 676 c 128,-1,19
 457 677 457 677 435 678.5 c 128,-1,20
 413 680 413 680 392 681 c 0,21,22
 343 683 343 683 305 683 c 0,23,24
 236 683 236 683 197 657 c 0,25,26
 118 605 118 605 118 366 c 0,27,28
 118 51 118 51 305 51 c 0,29,30
 404 51 404 51 525 59 c 2,31,-1
 539 60 l 1,32,-1
 539 16 l 1,33,34
 489 7 489 7 418 0.5 c 128,-1,35
 347 -6 347 -6 305 -6 c 0,36,37
 61 -6 61 -6 61 368 c 0,7,8
EndSplineSet
Substitution2: "'c2sc' Capitals to Small Capitals in Latin lookup 2 subtable" ccaron.smcp
EndChar

